<svg xmlns="http://www.w3.org/2000/svg" viewBox="0 0 503.961 503.961"><path d="M161.201 351.308l77.194-24.418c8.665 23.631-12.209 31.114-8.271 60.258 1.575 11.028 9.846 7.877 14.572 20.086l1.182 29.932 24.812 19.692c3.545 9.452-8.271 20.48-8.271 20.48s-25.994 29.538-44.505 26.388c-25.993-3.938-56.713-152.418-56.713-152.418z" fill="#3e4e5c"/><path d="M230.124 387.148c-3.545-27.963 14.572-35.84 9.058-56.714l-48.049 11.422-29.932 9.452s.788 4.332 2.757 11.815L231.7 391.48c-.788-1.181-1.182-2.363-1.576-4.332z" fill="#323e4a"/><path d="M57.226 219.763l41.748-14.966c.394 17.723 7.483 48.049 19.692 81.526 12.209 33.083 26.782 60.652 38.597 74.437l-41.748 14.966c-28.357 10.24-64.197-16.542-80.345-59.471-16.148-43.322-6.301-86.252 22.056-96.492z" fill="#3e4e5c"/><path d="M338.826 206.373c-33.477-90.191-44.505-171.323-27.569-193.378-2.363 2.363-5.12 5.514-8.271 10.24-27.963 41.354-74.831 130.363-235.52 187.865v.394c-9.846 3.545-4.332 42.929 12.209 87.434 16.542 44.898 37.809 78.375 47.655 74.831 160.689-57.502 255.212-17.723 304.049-3.938 15.36 4.332 24.025-1.182 24.025-1.182-25.6 9.844-79.163-62.23-116.578-162.266z" fill="#5992bd"/><path d="M303.773 51.197c3.938-24.025 5.12-28.751 6.695-36.234l.394-1.182c-1.969 2.363-4.726 5.12-7.483 9.452-28.357 41.354-75.225 130.363-235.914 187.865v.394c-3.938 1.575-5.514 8.665-4.726 19.298l12.997-3.938C223.822 174.471 274.629 94.914 303.773 51.197z" fill="#63a3d2"/><path d="M323.859 1.179c-31.114 11.422-26.782 103.188 9.846 204.8 36.234 101.612 90.978 174.868 122.092 163.052 31.114-11.422 26.782-103.188-9.846-204.8S354.579-10.243 323.859 1.179z" fill="#487190"/><path d="M372.696 245.363c-36.234-101.612-40.566-193.378-9.846-204.8 6.695-2.363 14.178-1.182 22.449 3.545-22.843-31.902-45.292-48.837-61.44-42.929-31.114 11.422-26.782 103.188 9.846 204.8 28.751 80.345 68.923 142.572 99.643 159.508-21.267-29.145-42.929-71.287-60.652-120.124z" fill="#426885"/><path d="M324.647 164.625c-1.575.394-2.757 1.182-3.938 1.575 3.545 12.997 7.877 25.994 12.603 39.778 7.089 19.692 14.966 38.597 23.237 55.926 1.182-.394 2.363-.788 3.151-1.182 26.388-9.846 40.172-38.991 30.72-65.772-9.847-26.387-38.991-40.171-65.773-30.325z" fill="#ebedee"/><path d="M372.696 245.363c-10.634-29.145-18.117-57.502-23.237-83.495-7.877-1.182-16.542-.394-24.812 2.757-1.575.394-2.757 1.182-3.938 1.575 3.545 12.997 7.877 25.994 12.603 39.778 7.089 19.692 14.966 38.597 23.237 55.926 1.182-.394 2.363-.788 3.151-1.182 5.908-1.969 11.028-5.12 15.36-9.058-.788-1.968-1.576-3.938-2.364-6.301z" fill="#d9dadb"/></svg>