<svg width="100" height="100" viewBox="0 0 100 100" xmlns="http://www.w3.org/2000/svg"><title>Artboard</title><defs><filter x="-50%" y="-50%" width="200%" height="200%" filterUnits="objectBoundingBox" id="a"><feOffset dy="3" in="SourceAlpha" result="shadowOffsetOuter1"/><feGaussianBlur stdDeviation="2" in="shadowOffsetOuter1" result="shadowBlurOuter1"/><feColorMatrix values="0 0 0 0 0 0 0 0 0 0 0 0 0 0 0 0 0 0 0.102836277 0" in="shadowBlurOuter1" result="shadowMatrixOuter1"/><feMerge><feMergeNode in="shadowMatrixOuter1"/><feMergeNode in="SourceGraphic"/></feMerge></filter></defs><g fill="none" fill-rule="evenodd"><path d="M80.589 79.063l-57.46 18.67c-1.98.643-4.088-.386-4.71-2.299L5.98 57.15c-.621-1.913.48-3.985 2.46-4.628l57.46-18.67c1.98-.643 4.087.386 4.709 2.298l12.44 38.285c.62 1.913-.48 3.984-2.46 4.628" fill="#D1D4D2"/><path fill="#A5A5A4" d="M6.604 59.069l64.629-21 2.798 8.612-64.629 21z"/><path d="M28.565 69.785L19.65 72.68c-.615.2-1.27-.12-1.464-.714-.193-.595.15-1.239.765-1.439l8.914-2.896c.615-.2 1.271.12 1.464.714.193.594-.15 1.239-.764 1.439m13.371-4.344l-8.914 2.896c-.615.2-1.271-.12-1.464-.714-.193-.594.15-1.239.764-1.438l8.914-2.897c.616-.2 1.271.12 1.465.714.193.595-.15 1.24-.765 1.439M22.513 77.701l-1.114.362c-.615.2-1.271-.12-1.464-.714-.193-.594.15-1.239.765-1.439l1.114-.362c.615-.2 1.27.12 1.464.715.193.594-.15 1.238-.765 1.438m6.686-2.172l-2.229.724c-.615.2-1.27-.12-1.464-.714-.193-.595.15-1.239.765-1.439l2.229-.724c.615-.2 1.27.12 1.464.714.193.595-.15 1.239-.765 1.439m5.571-1.81l-1.114.362c-.615.2-1.27-.12-1.464-.715-.193-.594.15-1.238.765-1.438l1.114-.362c.615-.2 1.27.12 1.464.714.193.594-.15 1.239-.765 1.439m6.686-2.173l-2.228.724c-.615.2-1.271-.12-1.464-.714-.193-.594.149-1.239.764-1.438l2.229-.725c.615-.2 1.27.12 1.464.715.193.594-.15 1.238-.765 1.438m4.457-1.448c-.29.094-.618.07-.892-.055a1.149 1.149 0 0 1-.572-.66c-.09-.28-.059-.599.075-.869.283-.532 1.04-.778 1.582-.514.267.14.481.38.572.66.09.28.06.6-.075.869-.149.262-.4.475-.69.57m20.057-6.518l-1.114.362c-.615.2-1.27-.12-1.464-.714-.193-.594.15-1.239.765-1.439l1.114-.362c.615-.2 1.271.12 1.464.715.193.594-.15 1.238-.764 1.438m4.457-1.448c-.29.094-.618.07-.893-.055a1.17 1.17 0 0 1-.571-.66c-.091-.28-.06-.6.074-.869.283-.532 1.041-.778 1.583-.514.267.14.48.38.571.66.091.28.06.599-.075.869-.148.262-.4.475-.69.569m-15.12-1.038l-8.914 2.897c-.615.2-1.27-.12-1.464-.715-.193-.594.15-1.238.765-1.438l8.914-2.897c.615-.2 1.27.12 1.464.715.193.594-.15 1.238-.765 1.438m13.372-4.345l-8.914 2.897c-.615.2-1.271-.12-1.464-.714-.194-.594.149-1.239.764-1.439l8.914-2.896c.615-.2 1.271.12 1.464.714.194.594-.149 1.239-.764 1.439M55.942 66.84l-5.571 1.81c-.616.2-1.271-.12-1.465-.715-.193-.594.15-1.238.765-1.438l5.571-1.81c.616-.2 1.271.12 1.464.714.194.594-.149 1.239-.764 1.439m4.458-1.449c-.29.095-.619.07-.893-.055a1.17 1.17 0 0 1-.572-.659c-.09-.28-.06-.6.075-.87.283-.532 1.04-.778 1.582-.513.267.139.48.379.572.659.09.28.059.6-.075.87-.149.262-.4.474-.69.568" fill="#FFF"/><path d="M55.684 70.97c-2.651 2.621-1.964 6.247-1.063 9.39l1.655-1.38-3.949-1.514c-1.378-.53-2.472 1.5-1.081 2.034l3.949 1.515c.926.354 1.94-.389 1.655-1.38-.676-2.357-1.464-5.167.562-7.172 1.066-1.053-.665-2.546-1.728-1.493" fill="#4482C4"/><path d="M58.435 75.645c3.144 1.7 5.871-.454 7.935-2.8l-1.65.108c.94.843 2.042 1.318 3.362 1.157.94-.115 4.086-2.684 4.365-2.49 1.197.836 2.784-.867 1.572-1.712-.823-.574-1.486-.807-2.526-.538-1.657.429-3.25 3.62-5.203 1.872-.452-.405-1.24-.356-1.65.11-1.273 1.447-2.898 3.463-5.124 2.26-1.305-.706-2.383 1.33-1.081 2.033" fill="#4482C4"/><g filter="url(#a)" transform="rotate(12 -2.693 111.667)"><path d="M71.885 53.448H4.22c-2.33 0-4.22-1.833-4.22-4.094V4.094C0 1.832 1.89 0 4.221 0h67.664c2.331 0 4.22 1.832 4.22 4.094v45.26c0 2.261-1.889 4.094-4.22 4.094" fill="#8798CC"/><path fill="#556180" d="M0 6.363h76.106v10.181H0z"/><path d="M19.683 22.906H7.873c-.726 0-1.312.57-1.312 1.273 0 .702.586 1.272 1.312 1.272h11.81c.725 0 1.312-.57 1.312-1.272 0-.703-.587-1.273-1.312-1.273m18.37 1.273c0-.703-.587-1.273-1.312-1.273H24.93c-.725 0-1.312.57-1.312 1.273 0 .702.587 1.272 1.312 1.272h11.81c.725 0 1.312-.57 1.312-1.272m-28.867 5.09H7.873c-.726 0-1.312.57-1.312 1.273 0 .702.586 1.272 1.312 1.272h1.312c.726 0 1.312-.57 1.312-1.272 0-.703-.586-1.273-1.312-1.273m7.873 0h-2.624c-.726 0-1.312.57-1.312 1.273 0 .702.586 1.272 1.312 1.272h2.624c.726 0 1.312-.57 1.312-1.272 0-.703-.586-1.273-1.312-1.273m6.562 0h-1.313c-.726 0-1.312.57-1.312 1.273 0 .702.586 1.272 1.312 1.272h1.312c.726 0 1.312-.57 1.312-1.272 0-.703-.586-1.273-1.312-1.273m7.873 0h-2.624c-.726 0-1.312.57-1.312 1.273 0 .702.586 1.272 1.312 1.272h2.624c.726 0 1.312-.57 1.312-1.272 0-.703-.586-1.273-1.312-1.273m4.318.369a1.311 1.311 0 0 0-.381.904c0 .33.143.661.38.903.247.23.575.37.932.37.341 0 .68-.14.931-.37.237-.242.381-.573.381-.903 0-.331-.144-.662-.38-.904-.486-.47-1.378-.47-1.864 0" fill="#B0D3F0"/><path fill="#91BAE1" d="M47.238 33.087h20.995v12.726H47.238z"/></g></g></svg>