<svg width="246" height="181" viewBox="0 0 246 181" xmlns="http://www.w3.org/2000/svg"><title>woocommerce</title><g fill="none" fill-rule="evenodd"><path d="M23.7 19.2h199.1c12.6 0 22.8 10.2 22.8 22.8v76c0 12.6-10.2 22.8-22.8 22.8h-71.4l9.8 24-43.1-24H23.8C11.2 140.8 1 130.6 1 118V42C.9 29.5 11.1 19.2 23.7 19.2z" fill="#9B5C8F"/><path d="M13.2 39.9c1.4-1.9 3.5-2.9 6.3-3.1 5.1-.4 8 2 8.7 7.2 3.1 20.9 6.5 38.6 10.1 53.1l21.9-41.7c2-3.8 4.5-5.8 7.5-6 4.4-.3 7.1 2.5 8.2 8.4 2.5 13.3 5.7 24.6 9.5 34.2 2.6-25.4 7-43.7 13.2-55 1.5-2.8 3.7-4.2 6.6-4.4 2.3-.2 4.4.5 6.3 2 1.9 1.5 2.9 3.4 3.1 5.7.1 1.8-.2 3.3-1 4.8-3.9 7.2-7.1 19.3-9.7 36.1-2.5 16.3-3.4 29-2.8 38.1.2 2.5-.2 4.7-1.2 6.6-1.2 2.2-3 3.4-5.3 3.6-2.6.2-5.3-1-7.9-3.7-9.3-9.5-16.7-23.7-22.1-42.6C58.1 96 53.3 105.6 50.2 112c-5.9 11.3-10.9 17.1-15.1 17.4-2.7.2-5-2.1-7-6.9-5.1-13.1-10.6-38.4-16.5-75.9-.3-2.6.2-4.9 1.6-6.7zm215 15.7c-3.6-6.3-8.9-10.1-16-11.6-1.9-.4-3.7-.6-5.4-.6-9.6 0-17.4 5-23.5 15-5.2 8.5-7.8 17.9-7.8 28.2 0 7.7 1.6 14.3 4.8 19.8 3.6 6.3 8.9 10.1 16 11.6 1.9.4 3.7.6 5.4.6 9.7 0 17.5-5 23.5-15 5.2-8.6 7.8-18 7.8-28.3 0-7.8-1.6-14.3-4.8-19.7zm-12.6 27.7c-1.4 6.6-3.9 11.5-7.6 14.8-2.9 2.6-5.6 3.7-8.1 3.2-2.4-.5-4.4-2.6-5.9-6.5-1.2-3.1-1.8-6.2-1.8-9.1 0-2.5.2-5 .7-7.3.9-4.1 2.6-8.1 5.3-11.9 3.3-4.9 6.8-6.9 10.4-6.2 2.4.5 4.4 2.6 5.9 6.5 1.2 3.1 1.8 6.2 1.8 9.1 0 2.6-.3 5.1-.7 7.4zm-50.1-27.7c-3.6-6.3-9-10.1-16-11.6-1.9-.4-3.7-.6-5.4-.6-9.6 0-17.4 5-23.5 15-5.2 8.5-7.8 17.9-7.8 28.2 0 7.7 1.6 14.3 4.8 19.8 3.6 6.3 8.9 10.1 16 11.6 1.9.4 3.7.6 5.4.6 9.7 0 17.5-5 23.5-15 5.2-8.6 7.8-18 7.8-28.3 0-7.8-1.6-14.3-4.8-19.7zm-12.6 27.7c-1.4 6.6-3.9 11.5-7.6 14.8-2.9 2.6-5.6 3.7-8.1 3.2-2.4-.5-4.4-2.6-5.9-6.5-1.2-3.1-1.8-6.2-1.8-9.1 0-2.5.2-5 .7-7.3.9-4.1 2.6-8.1 5.3-11.9 3.3-4.9 6.8-6.9 10.4-6.2 2.4.5 4.4 2.6 5.9 6.5 1.2 3.1 1.8 6.2 1.8 9.1 0 2.6-.2 5.1-.7 7.4z" fill="#FFF"/></g></svg>