<svg xmlns="http://www.w3.org/2000/svg" viewBox="0 0 535.5 535.5" width="512" height="512"><path d="M267.445 535.5c-36.72 0-71.4-7.038-104.04-21.114-32.64-14.073-60.996-33.252-85.068-57.525-24.072-24.276-43.146-52.734-57.222-85.374C7.039 338.844.001 304.166.001 267.446s7.038-71.4 21.114-104.04 33.15-60.996 57.222-85.068 52.428-43.146 85.068-57.222S230.725 0 267.445 0s71.4 7.038 104.041 21.114c32.639 14.076 61.098 33.15 85.373 57.222 24.277 24.072 43.453 52.428 57.529 85.068 14.072 32.64 21.111 67.32 21.111 104.04s-7.039 71.397-21.111 104.04c-14.076 32.64-33.252 61.098-57.529 85.374-24.275 24.273-52.734 43.452-85.373 57.525-32.641 14.079-67.321 21.117-104.041 21.117zm0-516.528c-34.272 0-66.504 6.528-96.696 19.584S114.139 69.36 91.495 91.8s-40.494 48.756-53.55 78.948-19.584 62.424-19.584 96.696c0 34.271 6.528 66.504 19.584 96.696 13.056 30.189 30.906 56.607 53.55 79.254 22.644 22.644 49.062 40.491 79.254 53.55 30.192 13.056 62.424 19.584 96.696 19.584 34.273 0 66.503-6.528 96.697-19.584 30.189-13.059 56.607-30.906 79.254-53.55 22.643-22.646 40.494-49.063 53.549-79.254 13.057-30.192 19.584-62.427 19.584-96.696 0-34.272-6.527-66.504-19.584-96.696-13.055-30.192-30.906-56.508-53.549-78.948-22.646-22.44-49.063-40.188-79.254-53.244-30.194-13.056-62.424-19.584-96.697-19.584zm-64.26 467.568c10.2 2.856 20.706 5.103 31.518 6.732s21.726 2.445 32.742 2.445c25.705 0 51-4.485 75.888-13.464l-71.604-192.777-68.544 197.064zm-52.632-348.228c2.448 0 4.692.816 6.732 2.448s3.264 3.672 3.672 6.12c.816 5.712-2.04 8.976-8.568 9.792-4.488.816-8.772 1.326-12.852 1.53s-8.364.51-12.852.918l83.232 245.412 50.184-148.104-36.108-96.696c-7.752-.816-13.77-1.53-18.054-2.142s-6.63-.918-7.038-.918c-2.448-.408-4.488-1.632-6.12-3.672s-2.04-4.284-1.224-6.732c.408-2.448 1.632-4.488 3.672-6.12s4.284-2.04 6.732-1.224l8.568 1.224 24.174 1.836c16.116 1.224 28.662 1.224 37.638 0 8.979-1.224 25.5-2.448 49.572-3.672 2.447 0 4.691.816 6.732 2.448 2.039 1.632 3.264 3.672 3.672 6.12.813 5.712-2.041 8.976-8.568 9.792-4.486.816-8.771 1.326-12.852 1.53-4.082.204-8.16.51-12.24.918l82.619 245.412a13920.837 13920.837 0 0 0 16.219-55.08c4.283-14.688 7.854-26.724 10.709-36.108 3.268-10.605 5.713-19.176 7.344-25.702 4.488-14.688 6.225-28.866 5.203-42.536-1.02-13.668-4.387-25.194-10.098-34.578-2.449-4.896-6.02-11.016-10.711-18.36s-8.873-15.198-12.545-23.562c-3.672-8.364-6.121-16.728-7.344-25.092-1.227-8.364 0-16.014 3.672-22.95 5.303-9.384 11.219-15.402 17.748-18.054 6.525-2.652 13.26-3.57 20.193-2.754-20.398-18.768-43.758-33.456-70.072-44.063-26.316-10.608-54.365-15.912-84.15-15.912-39.984 0-76.602 9.282-109.854 27.846s-60.078 43.35-80.478 74.358c9.792.408 20.808.408 33.048 0 12.241-.409 25.705-1.633 40.393-3.673zM39.781 267.444c0 22.438 3.06 44.062 9.18 64.872 6.12 20.808 14.892 40.086 26.316 57.834a233.433 233.433 0 0 0 40.698 47.733c15.708 14.076 33.15 25.604 52.326 34.578L58.753 176.256c-12.648 28.968-18.972 59.364-18.972 91.188zm455.327 0c0-38.352-8.771-73.848-26.316-106.488.816 4.488 1.227 8.874 1.227 13.158s-.203 8.67-.611 13.158c-2.449 22.032-6.732 42.024-12.852 59.976a6794.52 6794.52 0 0 1-17.748 51.408c-2.449 6.936-6.324 18.359-11.629 34.271a3043.76 3043.76 0 0 1-17.139 49.88 5407.326 5407.326 0 0 0-17.135 49.266c-5.305 15.504-9.18 26.52-11.629 33.048a214.19 214.19 0 0 0 46.512-35.802c13.873-14.076 25.809-29.58 35.805-46.513 9.994-16.934 17.748-35.09 23.256-54.47 5.506-19.378 8.259-39.676 8.259-60.892z" fill="#696869"/></svg>