<svg width="68" height="68" viewBox="0 0 68 68" xmlns="http://www.w3.org/2000/svg"><title>unlimited support</title><g transform="translate(2 2)" fill="none" fill-rule="evenodd"><circle stroke="#00FF98" stroke-width="3" stroke-linecap="square" stroke-dasharray="5,4" cx="32" cy="32" r="32"/><circle stroke="#00FF98" stroke-linecap="round" stroke-dasharray="3,3" cx="32" cy="32" r="27.661"/><text font-family="AndaleMono, Andale Mono" font-size="7" letter-spacing=".042" fill="#029614"><tspan x="12.908" y="44.051">UNLIMITED </tspan> <tspan x="17.151" y="52.051">SUPPORT</tspan></text><path d="M29.324 33.277h.03l.796.005c.386 0 .758-.031 1.116-.093a8.658 8.658 0 0 0 1.037-.246c.333-.101.655-.218.965-.35.31-.132.609-.267.896-.406.101.17.23.323.386.458.157.135.336.25.537.344.202.094.425.166.67.215.245.05.507.074.785.074h.06a.774.774 0 0 0 .06 0 1.971 1.971 0 0 0 1.248-.413c.116-.087.232-.184.348-.292a5.975 5.975 0 0 0 .455.27 7.235 7.235 0 0 0 .424.213c.142.055.286.099.432.13a1.954 1.954 0 0 0 .63.037c.069-.007.138-.02.207-.04.209-.062.402-.174.58-.338.179-.164.316-.367.411-.61a2.56 2.56 0 0 0 .157-.883c0-.145-.009-.274-.026-.387v.008a2.463 2.463 0 0 0-.161-.64 1.998 1.998 0 0 0-.317-.538 1.905 1.905 0 0 0-.58-.46 1.558 1.558 0 0 0-.712-.162c-.22 0-.427.05-.621.15-.195.1-.37.242-.527.424-.101.13-.194.273-.28.426a8.856 8.856 0 0 0-.241.466v-.005a12.67 12.67 0 0 1-.248.453c-.087.15-.186.286-.296.408-.11.122-.237.22-.38.296a1.075 1.075 0 0 1-.523.114.711.711 0 0 0-.04-.001h-.06a4.33 4.33 0 0 1-.237-.009c-.1-.006-.205-.02-.313-.041a1.474 1.474 0 0 1-.318-.102.713.713 0 0 1-.254-.187l.113-.057a11.605 11.605 0 0 1 .444-.208l.226-1.283c-.218 0-.44-.019-.668-.057a6.397 6.397 0 0 1-1.3-.356 7.001 7.001 0 0 1-.55-.24 33.986 33.986 0 0 0-.482-.219 5.726 5.726 0 0 0-.474-.187 4.44 4.44 0 0 0-.468-.132 2.327 2.327 0 0 0-.467-.057 1.542 1.542 0 0 0-.633.13c-.21.09-.41.211-.602.364a3.497 3.497 0 0 0-.53.526 3.935 3.935 0 0 0-.418.62l1.03.59.042-.062a2.813 2.813 0 0 1 .291-.357 1.73 1.73 0 0 1 .23-.2c.086-.062.18-.114.28-.157a.855.855 0 0 1 .31-.067c.168-.003.359.023.572.076.213.054.432.118.658.194.226.075.45.152.67.23.22.078.42.14.6.183-.275.13-.586.258-.933.384-.346.127-.704.24-1.074.342-.37.101-.738.183-1.106.245a6.195 6.195 0 0 1-1.03.094h-.857a.94.94 0 0 1-.32-.046.544.544 0 0 1-.213-.141.884.884 0 0 1-.154-.24 159.794 159.794 0 0 1-1.191-2.86l-.387-.94-1.27.531c.11.264.229.54.357.826a343.397 343.397 0 0 0 .776 1.737c.129.289.248.566.358.833a1.796 1.796 0 0 1-.356.191.929.929 0 0 1-.144.044 1.86 1.86 0 0 1-.326.043 1.945 1.945 0 0 1-.454-.022 1.755 1.755 0 0 1-.346-.095 2.261 2.261 0 0 1-.382-.194 2.795 2.795 0 0 1-.413-.32l-.787 1.11c.31.321.647.554 1.01.7a3.01 3.01 0 0 0 1.116.217c.246 0 .47-.015.671-.046.202-.03.39-.079.564-.145a2.944 2.944 0 0 0 .547-.292c.073.073.15.139.233.198.083.06.177.11.283.152.105.042.226.075.36.098a2.783 2.783 0 0 0 .497.034zm15.144-1.373h.589c.107 0 .22-.004.337-.013.117-.009.227-.026.33-.052a1.06 1.06 0 0 0 .274-.109.403.403 0 0 0 .172-.187.606.606 0 0 0 .034-.235c0-.07-.02-.174-.06-.313a5.45 5.45 0 0 0-.161-.463 11.404 11.404 0 0 0-.483-1.059l1.244-.617c.08.183.161.377.24.583a8.4 8.4 0 0 1 .216.626c.064.211.115.422.154.632.04.21.06.411.06.603 0 .292-.053.56-.157.804a1.861 1.861 0 0 1-.5.676c-.212.178-.466.31-.761.393-.174.05-.34.08-.5.09a7.2 7.2 0 0 1-.448.015h-.635a.784.784 0 0 1-.02 0c-.357 0-.663-.044-.918-.133a1.741 1.741 0 0 1-.661-.406 1.37 1.37 0 0 1-.267-.366 1.705 1.705 0 0 1-.135-.376 1.963 1.963 0 0 1-.048-.35 7.324 7.324 0 0 1-.007-.282V31.3l.011-.463c.005-.202.007-.439.007-.711 0-.273-.002-.573-.005-.9-.002-.328-.01-.655-.023-.98-.013-.327-.032-.64-.057-.942a7.267 7.267 0 0 0-.102-.787l1.3-.396c.038.192.068.417.091.676a24.74 24.74 0 0 1 .094 1.672c.007.287.012.554.015.8a6.13 6.13 0 0 1-.024.637c-.019.207-.034.41-.046.609a4.52 4.52 0 0 0 .002.578c.014.187.053.369.12.546a.39.39 0 0 0 .098.152c.039.035.085.06.137.076.052.016.11.025.172.028.062.003.13.005.206.005h.04c.025 0 .05.001.075.004zM20.261 19.905a.766.766 0 0 1 .048-.001h.644c.107 0 .22-.004.337-.013.117-.009.227-.026.33-.052a1.06 1.06 0 0 0 .274-.109.403.403 0 0 0 .172-.187.606.606 0 0 0 .034-.235c0-.07-.02-.174-.06-.313a5.45 5.45 0 0 0-.161-.463 11.404 11.404 0 0 0-.483-1.059l1.244-.617c.08.183.161.377.24.583a8.4 8.4 0 0 1 .216.626c.064.211.115.422.154.632.04.21.06.411.06.603 0 .292-.053.56-.157.804a1.861 1.861 0 0 1-.5.676c-.212.178-.466.31-.761.393-.174.05-.34.08-.5.09a7.2 7.2 0 0 1-.448.015h-.635c-.016 0-.032 0-.048-.002a.726.726 0 0 1-.047.002h-.482a1.597 1.597 0 0 1 .178.652 1.603 1.603 0 0 1-.206.728 2.1 2.1 0 0 1-.477.563 2.9 2.9 0 0 1-.66.413 4.983 4.983 0 0 1-.757.276 5.478 5.478 0 0 1-.763.155 5.44 5.44 0 0 1-.685.048 7.95 7.95 0 0 1-.832-.046 4.2 4.2 0 0 1-.826-.172 2.934 2.934 0 0 1-.742-.354 2 2 0 0 1-.578-.594 3.011 3.011 0 0 1-.344-.774 3.399 3.399 0 0 1-.121-.943c0-.255.01-.498.032-.728a6.394 6.394 0 0 1 .283-1.372c.074-.232.163-.478.267-.74l1.118.466c-.084.209-.156.397-.215.565-.06.168-.11.321-.15.459a3.823 3.823 0 0 0-.17 1.026c-.003.103-.004.21-.004.324 0 .217.034.406.104.565.07.16.164.294.283.405.118.11.255.2.41.271.156.071.317.126.485.163.168.038.339.064.511.079.173.014.336.021.49.021a6.902 6.902 0 0 0 1.359-.165c.183-.04.35-.09.501-.15.15-.06.274-.129.37-.209a.356.356 0 0 0 .143-.28c0-.012-.024-.032-.072-.06a2.253 2.253 0 0 0-.195-.103 11.457 11.457 0 0 0-.637-.276h.004a4.276 4.276 0 0 0-.437-.111 10.938 10.938 0 0 0-.539-.093 3.595 3.595 0 0 1-.222-.042 1.987 1.987 0 0 1-.089-.02l.178-1.321h3.487l.047.001zm6.006-.001h.05c.402 0 .706-.065.912-.194.206-.129.309-.325.309-.589 0-.052 0-.098.002-.139a.875.875 0 0 0-.013-.159 2.746 2.746 0 0 0-.057-.256 14.213 14.213 0 0 0-.123-.437l1.239-.3c.06.174.114.369.16.585.047.216.07.451.07.706 0 .084.008.172.024.263a.986.986 0 0 0 .078.253.54.54 0 0 0 .148.19.356.356 0 0 0 .237.077l.044.001.047-.001h.33c.209 0 .41-.009.602-.026.193-.018.363-.055.511-.111a.898.898 0 0 0 .359-.24.63.63 0 0 0 .145-.41c.003-.064.004-.117.003-.159a.772.772 0 0 0-.024-.152 6.868 6.868 0 0 0-.063-.235l-.116-.41 1.266-.357c.055.139.105.323.152.552.046.23.08.48.104.752.006.087.016.177.03.27.015.093.039.178.072.256a.526.526 0 0 0 .137.194.33.33 0 0 0 .226.076h.395c.209 0 .41-.009.602-.026.193-.018.363-.055.511-.111a.898.898 0 0 0 .359-.24.63.63 0 0 0 .145-.41c.003-.064.004-.117.003-.159a.772.772 0 0 0-.024-.152 6.868 6.868 0 0 0-.063-.235l-.116-.41 1.266-.357c.055.139.105.323.152.552.046.23.081.48.104.752.006.087.016.177.03.27.015.093.04.178.072.256a.526.526 0 0 0 .137.194.33.33 0 0 0 .226.076c.034 0 .066.002.098.006a.918.918 0 0 1 .067-.006 1.2 1.2 0 0 0 .43-.076.928.928 0 0 0 .378-.294c.12-.145.23-.349.335-.613.105-.263.205-.608.3-1.034l1.156.165-.014.056a4.29 4.29 0 0 0-.066.307c-.024.132-.047.28-.07.443-.021.164-.031.32-.03.47.002.15.02.278.053.387.033.108.092.173.176.193.09.023.176.005.26-.054a.98.98 0 0 0 .24-.257c.075-.111.145-.242.208-.39a5.984 5.984 0 0 0 .309-.92c.038-.151.067-.285.087-.4l1.148.165a7.617 7.617 0 0 1-.03.289 6.897 6.897 0 0 0-.046.796c.001.137.016.262.045.373a.674.674 0 0 0 .135.274.315.315 0 0 0 .252.107.354.354 0 0 0 .248-.096.78.78 0 0 0 .176-.25 1.69 1.69 0 0 0 .115-.352 3.691 3.691 0 0 0 .087-.8 3.8 3.8 0 0 0-.013-.341l1.174-.165.144 1.226a.911.911 0 0 0 .565.74.68.68 0 0 0 .248.05h.052c.025 0 .049.002.073.004a.759.759 0 0 1 .065-.003h.692c.13 0 .273-.006.43-.017.156-.012.307-.03.452-.057.145-.026.276-.062.394-.107a.59.59 0 0 0 .258-.171.365.365 0 0 0 .048-.2c0-.125-.03-.273-.089-.444a5.871 5.871 0 0 0-.21-.521 10.402 10.402 0 0 0-.25-.51 14.658 14.658 0 0 1-.207-.404l1.239-.608c.09.156.177.341.26.554.085.213.16.432.227.657.066.224.12.445.16.66.041.216.061.404.061.564 0 .292-.052.56-.156.804a1.861 1.861 0 0 1-.5.676 2.01 2.01 0 0 1-.761.393 2.266 2.266 0 0 1-.326.057 9.013 9.013 0 0 1-.774.046l-.278.002h-.67a.75.75 0 0 1-.085-.005 2.144 2.144 0 0 1-.9-.143 1.53 1.53 0 0 1-.649-.5.568.568 0 0 1-.052.06.782.782 0 0 0-.048.053v-.004a1.81 1.81 0 0 1-.541.393 1.515 1.515 0 0 1-.659.146 1.6 1.6 0 0 1-1.283-.63 2.22 2.22 0 0 1-.59.465c-.22.118-.463.178-.727.178a1.495 1.495 0 0 1-1.213-.617c-.156.217-.35.372-.58.465-.23.092-.515.139-.855.139a.932.932 0 0 1-.09-.004 1.802 1.802 0 0 1-.794-.124 1.702 1.702 0 0 1-.51-.333c-.13.087-.28.16-.45.217-.17.058-.35.105-.542.142a5.484 5.484 0 0 1-.59.078 7.659 7.659 0 0 1-.6.024h-.331a.774.774 0 0 1-.06 0c-.279 0-.517-.043-.716-.128a1.702 1.702 0 0 1-.51-.333c-.13.087-.28.16-.45.217-.17.058-.35.105-.542.142a5.484 5.484 0 0 1-.591.078 7.659 7.659 0 0 1-.6.024h-.33l-.044-.001a1.902 1.902 0 0 1-.755-.118 1.624 1.624 0 0 1-.51-.32c-.208.15-.457.261-.745.332-.288.071-.63.107-1.024.107h-.074a.777.777 0 0 1-.051 0c-.357 0-.662-.044-.917-.133a1.741 1.741 0 0 1-.661-.406 1.37 1.37 0 0 1-.268-.366 1.705 1.705 0 0 1-.135-.376 1.963 1.963 0 0 1-.047-.35 7.324 7.324 0 0 1-.007-.282V19.3l.011-.463c.004-.202.007-.439.007-.711 0-.273-.002-.573-.005-.9a28.938 28.938 0 0 0-.08-1.922 7.267 7.267 0 0 0-.102-.787l1.3-.396c.037.192.068.417.09.676a24.74 24.74 0 0 1 .094 1.672c.008.287.013.554.016.8a6.13 6.13 0 0 1-.024.637c-.02.207-.034.41-.046.609a4.52 4.52 0 0 0 .002.578c.013.187.053.369.12.546a.39.39 0 0 0 .098.152c.039.035.084.06.137.076a.695.695 0 0 0 .171.028c.063.003.131.005.207.005h.039c.026 0 .051.001.076.004zm21.602 3.591l-.817-.817-.826.826-.835-.84.843-.838.818.817.826-.826.835.84-.844.838zm-.813-.356l.774.774-.778.778-.774-.774.778-.778zm-3.964-7.022l-.835.84-.826-.827-.817.817-.844-.839.835-.839.826.826.817-.817.844.839zm-2.435-1.26l.774-.775.778.778-.774.774-.778-.778zM36.823 16.4l-.835.839-.826-.826-.817.817-.844-.84.835-.838.826.826.818-.818.843.84zm-3.956 6.439l-.834.839-.826-.826-.818.817-.843-.839.834-.84.827.827.817-.817.843.839zm-4.955-1.23l.965.964-.965.966-.965-.966.965-.965zm-6.138-7.21l.966.966-.966.965-.965-.965.965-.965zm24.104 12l.966.966-.966.965-.965-.965.965-.965zM19.34 35.005a7.496 7.496 0 0 0 1.118-.307c.336-.123.63-.26.884-.413.254-.152.464-.313.63-.484.167-.171.286-.345.355-.522a12.696 12.696 0 0 1-.739-.022 2.946 2.946 0 0 1-.922-.224 1.69 1.69 0 0 1-.665-.489 1.459 1.459 0 0 1-.259-.509 2.151 2.151 0 0 1-.076-.578c0-.156.015-.314.044-.472a3.078 3.078 0 0 1 .535-1.25c.173-.217.364-.382.571-.493.208-.112.426-.168.655-.168.49 0 .931.215 1.326.644.139.156.263.332.374.526.11.194.203.4.28.62a4.345 4.345 0 0 1 .215 1.854 3.577 3.577 0 0 1-.68 1.776 3.91 3.91 0 0 1-.641.683 4.777 4.777 0 0 1-.794.539 5.44 5.44 0 0 1-.906.389 6.22 6.22 0 0 1-.983.235l-.322-1.335zm-4.399-3.757c.122.079.265.157.428.235.164.078.332.15.505.215.172.066.34.118.502.16a1.776 1.776 0 0 0 .81.027 2.32 2.32 0 0 0 .233-.052c.079-.022.15-.05.216-.085a.535.535 0 0 0 .158-.124.276.276 0 0 0 .065-.171.823.823 0 0 0-.102-.383 2.724 2.724 0 0 0-.287-.446 5.014 5.014 0 0 0-.417-.47 9.694 9.694 0 0 0-.994-.864 7.204 7.204 0 0 0-.465-.324l.77-1.144c.28.197.56.418.837.661.277.244.532.502.767.776s.438.557.609.85c.17.293.294.586.37.879.023.084.039.168.047.254.009.085.013.167.013.246 0 .27-.052.516-.156.74a1.74 1.74 0 0 1-.437.583 1.99 1.99 0 0 1-.672.38 2.629 2.629 0 0 1-1 .131c-.2 0-.405-.02-.615-.063a4.924 4.924 0 0 1-.622-.167 5.344 5.344 0 0 1-.596-.244 5.988 5.988 0 0 1-.537-.29l.57-1.31z" fill="#029614"/></g></svg>