<svg width="18" height="19" viewBox="0 0 18 19" xmlns="http://www.w3.org/2000/svg"><title>shopping-cart@2x</title><g fill="#FFF" fill-rule="evenodd"><path d="M12.18 15.121c-.852 0-1.514.7-1.514 1.551 0 .852.7 1.551 1.514 1.551.814 0 1.513-.699 1.513-1.55 0-.852-.699-1.552-1.513-1.552zm0 2.325c-.428 0-.737-.35-.737-.777 0-.428.35-.778.737-.778s.736.35.736.778c0 .427-.35.777-.736.777zm-8.26-2.325c-.852 0-1.514.7-1.514 1.551 0 .852.7 1.551 1.514 1.551.851 0 1.513-.699 1.513-1.55 0-.852-.699-1.552-1.513-1.552zm0 2.325c-.428 0-.737-.35-.737-.777 0-.428.35-.778.737-.778.428 0 .736.35.736.778 0 .431-.346.777-.736.777zM15.824 0l-.602 2.365H.004l2.808 8.32c-.941.137-1.644.933-1.644 1.956 0 1.123.851 2.016 1.937 2.016h10.547v-.737H3.105c-.658 0-1.164-.543-1.164-1.242 0-.7.543-1.242 1.164-1.242H13.69L16.442.774h1.55V0h-2.168zM13.11 10.662h-9.5L1.09 3.14h13.92l-1.9 7.523z"/><path d="M4.928 4.961h.777v4.381h-.777zm2.755 0h.777v4.381h-.777zm2.753 0h.777v4.381h-.777z"/></g></svg>