<svg xmlns="http://www.w3.org/2000/svg" viewBox="0 0 512 512"><path fill="#89b06c" d="M463.198 165.673l-338.03 81.283-38.64-160.69 338.03-81.282z"/><path fill="#789761" d="M491.487 172.206L153.46 253.488l-38.64-160.69 338.027-81.281z"/><path fill="#91b874" d="M476.501 191.617l-351.486 84.519-40.18-167.093 351.487-84.519z"/><path d="M440.27 157.406L419.6 71.44c-10.664 2.565-21.39-4.005-23.951-14.665l-259.923 62.502c2.561 10.66-4.005 21.386-14.665 23.947l20.67 85.966c10.66-2.565 21.386 4.005 23.951 14.665l259.927-62.498c-2.569-10.661 4-21.386 14.661-23.951z" fill="#b2d797"/><ellipse transform="rotate(-103.521 280.665 150.322)" cx="280.667" cy="150.325" rx="71.441" ry="60.326" fill="#91b874"/><path d="M286.582 205.488l-2.994-12.46c-8.881 1.718-17.97 1.411-23.648-.274l.241-16.289c6.234 1.694 14.632 2.589 23.157.54 7.474-1.796 11.896-5.911 10.632-11.159-1.194-4.982-6.148-7.118-16.641-8.067-15.168-1.346-26.315-5.6-29.371-18.322-2.773-11.536 3.178-22.54 16.547-28.668l-2.994-12.456 12.853-3.093 2.773 11.536c8.877-1.718 15.217-1.297 20.049-.245l-.241 15.741c-3.755-.622-10.509-2.189-19.954.082-8.521 2.049-10.394 6.39-9.511 10.059 1.039 4.328 6.292 5.977 18.449 7.49 16.927 1.759 24.953 7.453 27.788 19.255 2.806 11.675-3.056 23.62-17.504 29.874l3.215 13.372-12.846 3.084z" fill="#b2d797"/><g fill="#91b874"><circle cx="169.879" cy="176.963" r="21.926"/><circle cx="391.439" cy="123.661" r="21.926"/></g><path d="M512 479.172c0 15.377-12.464 27.841-27.837 27.841H56.292c-15.373 0-27.837-12.464-27.837-27.841V139.824c0-15.377 12.464-27.841 27.837-27.841h427.871c15.373 0 27.837 12.464 27.837 27.841v339.348z" fill="#654a34"/><path d="M453.924 436.003c0 11.462-9.294 20.752-20.756 20.752H107.287c-11.462 0-20.756-9.29-20.756-20.752V182.989c0-11.462 9.294-20.752 20.756-20.752h325.881c11.462 0 20.756 9.29 20.756 20.752v253.014z" fill="#936b49" opacity=".2"/><path d="M436.919 483.467h-4.058a4.09 4.09 0 1 1 0-8.182h4.058a4.09 4.09 0 1 1 0 8.182zm-28.414 0h-4.062a4.09 4.09 0 1 1 0-8.182h4.062a4.09 4.09 0 1 1 0 8.182zm-28.414 0h-4.058a4.09 4.09 0 1 1 0-8.182h4.058a4.09 4.09 0 1 1 0 8.182zm-28.414 0h-4.062a4.09 4.09 0 1 1 0-8.182h4.062a4.09 4.09 0 1 1 0 8.182zm-28.418 0h-4.058a4.09 4.09 0 1 1 0-8.182h4.058a4.09 4.09 0 0 1 4.091 4.091 4.088 4.088 0 0 1-4.091 4.091zm-28.41 0h-4.058a4.09 4.09 0 1 1 0-8.182h4.058a4.09 4.09 0 1 1 0 8.182zm-28.418 0h-4.058a4.09 4.09 0 1 1 0-8.182h4.058a4.09 4.09 0 0 1 4.091 4.091 4.088 4.088 0 0 1-4.091 4.091zm-28.41 0h-4.058a4.09 4.09 0 1 1 0-8.182h4.058a4.09 4.09 0 1 1 0 8.182zm-28.418 0h-4.058a4.09 4.09 0 1 1 0-8.182h4.058a4.09 4.09 0 0 1 4.091 4.091 4.088 4.088 0 0 1-4.091 4.091zm-28.414 0h-4.058a4.09 4.09 0 1 1 0-8.182h4.058a4.09 4.09 0 0 1 4.091 4.091 4.088 4.088 0 0 1-4.091 4.091zm-28.414 0h-4.058a4.09 4.09 0 1 1 0-8.182h4.058a4.09 4.09 0 1 1 0 8.182zm-28.414 0h-4.058a4.09 4.09 0 1 1 0-8.182h4.058a4.09 4.09 0 0 1 4.091 4.091 4.088 4.088 0 0 1-4.091 4.091zm-28.414 0h-4.058a4.09 4.09 0 1 1 0-8.182h4.058a4.09 4.09 0 1 1 0 8.182zm365.279-.548a4.095 4.095 0 0 1-3.997-3.232 4.095 4.095 0 0 1 3.138-4.86 19.637 19.637 0 0 0 3.199-.986 4.092 4.092 0 0 1 3.072 7.584 27.687 27.687 0 0 1-4.549 1.403 4.076 4.076 0 0 1-.863.091zm-392.343-5.101a4.078 4.078 0 0 1-2.643-.969 27.892 27.892 0 0 1-3.346-3.354 4.09 4.09 0 0 1 .495-5.76 4.085 4.085 0 0 1 5.764.495 20.714 20.714 0 0 0 2.377 2.381 4.09 4.09 0 0 1 .479 5.764 4.094 4.094 0 0 1-3.126 1.443zm410.845-14.252a4.086 4.086 0 0 1-4.033-4.769c.184-1.109.278-2.238.278-3.363 0-2.262 1.833-4.23 4.091-4.23s4.091 1.685 4.091 3.947v.282c0 1.583-.131 3.17-.397 4.721a4.088 4.088 0 0 1-4.03 3.412zm-419.337-11.63a4.09 4.09 0 0 1-4.091-4.091v-4.058a4.09 4.09 0 1 1 8.182 0v4.058a4.093 4.093 0 0 1-4.091 4.091zm419.673-17.05a4.09 4.09 0 0 1-4.091-4.091v-4.058a4.09 4.09 0 1 1 8.182 0v4.058a4.093 4.093 0 0 1-4.091 4.091zM60.391 423.518a4.09 4.09 0 0 1-4.091-4.091v-4.058a4.09 4.09 0 1 1 8.182 0v4.058a4.09 4.09 0 0 1-4.091 4.091zm419.673-17.05a4.09 4.09 0 0 1-4.091-4.091v-4.058a4.09 4.09 0 1 1 8.182 0v4.058a4.09 4.09 0 0 1-4.091 4.091zm-419.673-11.36a4.09 4.09 0 0 1-4.091-4.091v-4.058a4.09 4.09 0 1 1 8.182 0v4.058a4.09 4.09 0 0 1-4.091 4.091zm419.673-17.05a4.09 4.09 0 0 1-4.091-4.091v-4.058a4.09 4.09 0 1 1 8.182 0v4.058a4.09 4.09 0 0 1-4.091 4.091zM60.391 366.694a4.09 4.09 0 0 1-4.091-4.091v-4.058a4.09 4.09 0 1 1 8.182 0v4.058a4.093 4.093 0 0 1-4.091 4.091zm419.673-17.05a4.09 4.09 0 0 1-4.091-4.091v-4.062a4.09 4.09 0 1 1 8.182 0v4.058a4.094 4.094 0 0 1-4.091 4.095zM60.391 338.276a4.09 4.09 0 0 1-4.091-4.091v-4.058a4.09 4.09 0 1 1 8.182 0v4.058a4.09 4.09 0 0 1-4.091 4.091zm419.673-17.05a4.09 4.09 0 0 1-4.091-4.091v-4.058a4.09 4.09 0 1 1 8.182 0v4.058a4.09 4.09 0 0 1-4.091 4.091zM60.391 309.862a4.09 4.09 0 0 1-4.091-4.091v-4.058a4.09 4.09 0 1 1 8.182 0v4.058a4.09 4.09 0 0 1-4.091 4.091zm419.673-17.05a4.09 4.09 0 0 1-4.091-4.091v-4.058a4.09 4.09 0 1 1 8.182 0v4.058a4.09 4.09 0 0 1-4.091 4.091zm-419.673-11.36a4.09 4.09 0 0 1-4.091-4.091v-4.058a4.09 4.09 0 1 1 8.182 0v4.058a4.093 4.093 0 0 1-4.091 4.091zm419.673-17.05a4.09 4.09 0 0 1-4.091-4.091v-4.058a4.09 4.09 0 1 1 8.182 0v4.058a4.09 4.09 0 0 1-4.091 4.091zM60.391 253.034a4.09 4.09 0 0 1-4.091-4.091v-4.058a4.09 4.09 0 1 1 8.182 0v4.058a4.09 4.09 0 0 1-4.091 4.091zm419.673-17.05a4.09 4.09 0 0 1-4.091-4.091v-4.058a4.09 4.09 0 1 1 8.182 0v4.058a4.09 4.09 0 0 1-4.091 4.091zM60.391 224.62a4.09 4.09 0 0 1-4.091-4.091v-4.058a4.09 4.09 0 1 1 8.182 0v4.058a4.09 4.09 0 0 1-4.091 4.091zm419.673-17.05a4.09 4.09 0 0 1-4.091-4.091v-4.058a4.09 4.09 0 1 1 8.182 0v4.058a4.09 4.09 0 0 1-4.091 4.091zM60.391 196.206a4.09 4.09 0 0 1-4.091-4.091v-4.058a4.09 4.09 0 1 1 8.182 0v4.058a4.09 4.09 0 0 1-4.091 4.091zm419.673-17.046a4.09 4.09 0 0 1-4.091-4.091v-4.062a4.09 4.09 0 1 1 8.182 0v4.062a4.09 4.09 0 0 1-4.091 4.091zM60.391 167.726c-2.258 0-4.091-1.763-4.091-4.021v-.139c0-1.53.123-3.064.368-4.561a4.083 4.083 0 0 1 4.696-3.379 4.09 4.09 0 0 1 3.375 4.696 20.36 20.36 0 0 0-.262 3.244c.005 2.258-1.828 4.16-4.086 4.16zm413.954-15.606a4.075 4.075 0 0 1-3.117-1.44 20.021 20.021 0 0 0-2.385-2.364 4.089 4.089 0 0 1-.52-5.76 4.084 4.084 0 0 1 5.76-.52 28.005 28.005 0 0 1 3.375 3.338 4.092 4.092 0 0 1-.466 5.768 4.071 4.071 0 0 1-2.647.978zM75.22 145.506a4.091 4.091 0 0 1-1.563-7.874 27.929 27.929 0 0 1 4.541-1.432c2.205-.466 4.389.908 4.88 3.109a4.093 4.093 0 0 1-3.109 4.88 19.63 19.63 0 0 0-3.191 1.006 4.036 4.036 0 0 1-1.558.311zm373.202-1.796h-4.062a4.09 4.09 0 1 1 0-8.182h4.062a4.09 4.09 0 1 1 0 8.182zm-28.414 0h-4.058a4.09 4.09 0 1 1 0-8.182h4.058a4.09 4.09 0 1 1 0 8.182zm-28.414 0h-4.062a4.09 4.09 0 1 1 0-8.182h4.062a4.09 4.09 0 1 1 0 8.182zm-28.414 0h-4.058a4.09 4.09 0 1 1 0-8.182h4.058a4.09 4.09 0 1 1 0 8.182zm-28.414 0h-4.058a4.09 4.09 0 1 1 0-8.182h4.058a4.09 4.09 0 1 1 0 8.182zm-28.414 0h-4.058a4.09 4.09 0 1 1 0-8.182h4.058a4.09 4.09 0 1 1 0 8.182zm-28.414 0h-4.058a4.09 4.09 0 1 1 0-8.182h4.058a4.09 4.09 0 1 1 0 8.182zm-28.414 0h-4.058a4.09 4.09 0 1 1 0-8.182h4.058a4.09 4.09 0 1 1 0 8.182zm-28.414 0h-4.058a4.09 4.09 0 1 1 0-8.182h4.058a4.09 4.09 0 1 1 0 8.182zm-28.418 0h-4.058a4.09 4.09 0 1 1 0-8.182h4.058a4.09 4.09 0 0 1 4.091 4.091 4.088 4.088 0 0 1-4.091 4.091zm-28.41 0h-4.058a4.09 4.09 0 1 1 0-8.182h4.058a4.09 4.09 0 0 1 4.091 4.091 4.09 4.09 0 0 1-4.091 4.091zm-28.418 0h-4.058a4.09 4.09 0 1 1 0-8.182h4.058a4.09 4.09 0 0 1 4.091 4.091 4.087 4.087 0 0 1-4.091 4.091zm-28.41 0h-4.058a4.09 4.09 0 1 1 0-8.182h4.058a4.09 4.09 0 0 1 4.091 4.091 4.09 4.09 0 0 1-4.091 4.091z" fill="#936b49"/><path d="M153.287 245.74H15.774C7.065 245.74 0 252.805 0 261.518v95.96c0 8.713 7.065 15.774 15.774 15.774h137.513c35.213 0 63.754-28.545 63.754-63.754s-28.542-63.758-63.754-63.758z" fill="#8d5f39"/><circle cx="153.139" cy="309.502" r="32.574" fill="#654a34"/></svg>