<svg xmlns="http://www.w3.org/2000/svg" viewBox="0 0 495 495"><path fill="#ffda44" d="M104.54 0H227.5v141.256H104.54z"/><path fill="#6e76e5" d="M187.01 369.45l-58.62-42.22L0 465.96V495h247.49V325.88z"/><path fill="#515be0" d="M366.6 327.23l-58.61 42.22-60.5-43.57V495H495v-29.04z"/><path d="M366.6 327.23l-99.117-107.089L366.6 327.23zm-119.11-1.35V220.141H227.5L128.39 327.23l58.62 42.22zm0 0l60.5 43.57 58.61-42.22-58.61 42.22z" fill="#99e9ec"/><path fill="#66dde2" d="M247.49 220.141V325.88l60.5 43.57 58.61-42.22-99.117-107.089z"/><path d="M267.483 220.141C267.5 220.141 267.5 0 267.5 0h-40v220.141h39.983z" fill="#957856"/></svg>