<svg xmlns="http://www.w3.org/2000/svg" width="512" height="512" viewBox="0 0 31.246 31.246"><path d="M22.449 5.811c-1.6-.995-3.113-1.385-4.623-2.38C16.89 2.8 15.592 1.295 14.503 0c-.475 2.05-.845 2.922-1.57 3.524-1.538 1.202-2.506 1.562-3.836 2.286-1.118.573-7.189 4.184-7.189 11.952s6.557 13.484 13.833 13.484c7.281 0 13.597-5.268 13.597-13.244 0-7.979-5.922-11.59-6.889-12.191zm5.79 14.125c0 .935-.301 2.619-1.026 3.672-.724 1.057-1.176 1.447-2.025 1.387-1.088-.092-3.262-3.463-4.65-3.523-1.75-.06-5.558 3.646-8.547 3.646-1.815 0-2.357-.271-2.96-.664-.908-.632-1.361-1.597-1.331-2.921.032-2.35 2.234-4.543 5.016-4.572 3.532-.031 5.98 3.488 7.761 3.46 1.512-.028 4.412-2.981 5.83-2.981 1.509-.002 1.932 1.56 1.932 2.496z" fill="#ab68d2"/></svg>