<svg width="148" height="125" viewBox="0 0 148 125" xmlns="http://www.w3.org/2000/svg"><title>newCloud</title><g fill="none" fill-rule="evenodd"><path d="M139.604 54.324a24.607 24.607 0 0 0-11.817-7.954c-.52-10.62-4.97-20.528-12.64-28.059C107.058 10.372 96.333 6 84.944 6 69.989 6 56.15 13.72 48.367 26.276a19.64 19.64 0 0 0-5.871-.889c-9.256 0-17.216 6.469-19.136 15.286C11.473 43.726 3 54.453 3 66.75c0 13.676 9.281 25.006 22.463 26.718 1.137.148 8.378.224 9.57.224h2.925s2.331-.265 2.331-2.243c0-1.978-1.45-2.243-2.702-2.243h-2.554c-1.162 0-8.37-.087-9.465-.255C14.87 87.314 7.532 77.981 7.532 66.75c0-10.685 7.672-19.947 18.243-22.023a2.252 2.252 0 0 0 1.806-1.909c.976-7.38 7.388-12.944 14.915-12.944 2.07 0 4.079.41 5.969 1.22a2.277 2.277 0 0 0 2.883-.973c6.763-12.111 19.636-19.634 33.597-19.634 20.963 0 38.17 16.881 38.36 37.632a2.248 2.248 0 0 0 1.755 2.165c9.072 2.078 15.408 9.976 15.408 19.204 0 9.85-7.333 18.037-16.88 19.489-.99.15-12.264.229-13.296.229h-1.233a2.254 2.254 0 0 0-2.266 2.243 2.254 2.254 0 0 0 2.266 2.243h1.232c1.09 0 12.422-.07 13.474-.208C135.733 91.922 145 81.756 145 69.488a24.101 24.101 0 0 0-5.396-15.164z" fill="#58C4FB"/><path d="M112.043 49.297a2.263 2.263 0 0 0 2.245-2.28 30.314 30.314 0 0 0-2.094-10.821 2.269 2.269 0 0 0-2.935-1.283 2.257 2.257 0 0 0-1.287 2.926 25.818 25.818 0 0 1 1.784 9.22 2.263 2.263 0 0 0 2.266 2.238h.02zm-6.556-17.807a2.26 2.26 0 0 0 1.746-3.699c-5.9-7.12-14.558-11.205-23.752-11.205a2.262 2.262 0 0 0-2.266 2.26 2.262 2.262 0 0 0 2.266 2.258c7.837 0 15.963 3.726 20.258 9.565.448.54 1.096.82 1.748.82z" fill="#83C6FF"/><path d="M71.823 89.242V65.208S71.728 63.024 73.94 63c2.211-.024 2.243 2.208 2.243 2.208v24.034h22.139s2.27-.046 2.27 2.068-2.27 2.082-2.27 2.082H76.183v22.999s-.15 2.167-2.243 2.167-2.218-2.167-2.218-2.167V93.298H49.08s-2.138-.138-2.163-1.988c-.025-1.85 2.163-2.013 2.163-2.013l1.319-.003 21.423-.052z" fill="#58C4FB"/></g></svg>