<svg width="112" height="50" viewBox="0 0 112 50" xmlns="http://www.w3.org/2000/svg"><title>tarino_logo_white</title><g fill="#FFF" fill-rule="evenodd"><path d="M112.22 11.197h-9.48s-1.32 0-2.216.911c-.897.911-.774 3.392-.774 3.392h-5.728s-.238-3.903 1.943-6.796c2.18-2.893 4.965-3.08 4.965-3.08h11.29v5.573z"/><path d="M112.103 17.388v9.51s-.377 3.773-2.81 6.387c-2.434 2.614-6.723 2.347-6.723 2.347H91.424s-3.03-.235-6.435-1.817c-3.405-1.583-3.405-6.893-3.405-6.893V.016h6.342v25.285s.087 2.751 1.008 3.392c.92.64 4.41.64 4.41.64h8.83s1.944.034 2.827-.909c.883-.943.842-3.01.842-3.01l-.035-8.026h6.295zm-40.203.098h6.406V35.11s.233 5.27-3.772 9.915-9.342 4.724-9.342 4.724h-5.924v-6.28h4.027s3.864-.379 6.353-2.597c2.488-2.219 2.252-5.049 2.252-5.049V17.486zM38.743 43.502H54.58v6.202H38.802zM26.811 5.62h6.384v6.322H26.83z"/><path d="M63.951 29.371v6.279H43.447s-1.843-.033-3.598-.597a10.92 10.92 0 0 1-3.002-1.522s-1.094.86-2.27 1.362c-1.178.503-2.569.704-2.569.704H21.125s.278 7.355-5.862 11.35C9.123 50.943.621 49.852.621 49.852v-6.41h5.751s3.708-.135 6.049-2.76c2.341-2.626 2.067-5.04 2.067-5.04s-4.476.403-9.171-1.489C.62 32.263.102 26.623.102 22.981c0-3.64 1.172-6.563 3.127-8.481 1.956-1.918 5.804-1.95 8.005-1.95 2.201 0 5.059 1.064 6.902 3.043 1.842 1.98 2.653 6.476 2.86 8.116.207 1.641.13 5.6.13 5.6h8.209s2.368.078 3.293-.758c.924-.835.924-2.96.924-2.96v-8.175h6.297v8.108s.05 1.895 1.741 2.869c1.692.973 4.83.91 4.83.91l17.531.068zm-49.272-.02l-3.703-.13s-1.898 0-3.584-1.57c-1.686-1.571-1.354-8.41 1.686-8.768 3.04-.358 3.522.466 4.46 1.469.94 1.002 1.089 3.511 1.089 3.511l.052 5.488z"/></g></svg>