<svg width="100" height="66" viewBox="0 0 100 66" xmlns="http://www.w3.org/2000/svg"><title>iran</title><g fill="none" fill-rule="evenodd"><path d="M99.805 21.85H0V1.776C0 .825.77.055 1.72.055h96.364c.95 0 1.721.77 1.721 1.72v20.076z" fill="#73AF00"/><path d="M98.084 65.444H1.721c-.95 0-1.721-.77-1.721-1.721V43.647h99.805v20.076c0 .95-.77 1.72-1.72 1.72z" fill="#FF4B55"/><g fill="#F5F5F5"><path d="M0 21.85h99.805v21.796H0zm.27-1.153h.016a.27.27 0 0 0 .27-.27v-.587c0-.15.122-.27.271-.27h1.136c.15 0 .27.12.27.27v.587c0 .15.122.27.272.27h2.242a.27.27 0 0 0 .27-.27v-1.158a.27.27 0 0 0-.27-.27H3.618a.27.27 0 0 0-.27.27v.03c0 .15.12.27.27.27h.572c.15 0 .271.122.271.271v.03a.27.27 0 0 1-.27.27H3.06a.27.27 0 0 1-.27-.27v-.6a.27.27 0 0 0-.271-.272H.27a.27.27 0 0 0-.27.271v1.158c0 .149.121.27.27.27zm1.121 0h.016a.27.27 0 0 0 .27-.27v-.016a.27.27 0 0 0-.27-.27H1.39a.27.27 0 0 0-.27.27v.016c0 .149.12.27.27.27zm-1.12-2.27h6.71a.27.27 0 0 0 .27-.27v-.03a.27.27 0 0 0-.27-.27H.27a.27.27 0 0 0-.271.27v.03c0 .15.121.27.27.27zm6.71 2.27H5.852a.27.27 0 0 1-.27-.27v-1.158c0-.15.12-.27.27-.27h1.686a.27.27 0 0 0 .27-.271v-.6c0-.15.122-.272.271-.272h.015a.27.27 0 0 1 .271.271v1.743c0 .15.121.27.27.27h.016a.27.27 0 0 0 .271-.27v-1.743c0-.15.121-.27.27-.27h.016c.15 0 .27.12.27.27v1.743c0 .15.122.27.271.27h.023a.27.27 0 0 0 .27-.27v-1.743c0-.15.122-.27.271-.27h.008c.15 0 .271.12.271.27v2.3a.27.27 0 0 1-.27.27H8.078a.27.27 0 0 1-.27-.27v-.587a.27.27 0 0 0-.271-.27H6.409a.27.27 0 0 0-.27.27v.03c0 .15.12.27.27.27h.572c.15 0 .27.122.27.271v.016a.27.27 0 0 1-.27.27zm4.446 0h.022a.27.27 0 0 0 .27-.27v-.587c0-.15.122-.27.271-.27h1.122c.15 0 .27.12.27.27v.587c0 .15.122.27.272.27h2.242a.27.27 0 0 0 .27-.27v-1.158a.27.27 0 0 0-.27-.27h-1.129a.27.27 0 0 0-.27.27v.03c0 .15.12.27.27.27h.572c.15 0 .27.122.27.271v.03a.27.27 0 0 1-.27.27h-1.128a.27.27 0 0 1-.271-.27v-.6a.27.27 0 0 0-.271-.272h-2.242a.27.27 0 0 0-.271.271v1.158c0 .149.121.27.27.27zm1.113 0h.015a.27.27 0 0 0 .27-.27v-.016a.27.27 0 0 0-.27-.27h-.015a.27.27 0 0 0-.27.27v.016c0 .149.12.27.27.27zm-1.113-2.27h6.703a.27.27 0 0 0 .27-.27v-.03a.27.27 0 0 0-.27-.27h-6.703a.27.27 0 0 0-.271.27v.03c0 .15.121.27.27.27zm6.703 2.27h-1.136a.27.27 0 0 1-.27-.27v-1.158c0-.15.12-.27.27-.27h1.686a.27.27 0 0 0 .27-.271v-.6c0-.15.122-.272.271-.272h.023c.15 0 .27.121.27.271v1.743c0 .15.121.27.271.27h.023a.27.27 0 0 0 .27-.27v-1.743c0-.15.121-.27.271-.27h.008c.15 0 .271.12.271.27v1.743c0 .15.121.27.27.27h.023a.27.27 0 0 0 .271-.27v-1.743c0-.15.121-.27.27-.27h.016c.15 0 .27.12.27.27v2.3a.27.27 0 0 1-.27.27h-2.256a.27.27 0 0 1-.271-.27v-.587a.27.27 0 0 0-.27-.27h-1.123a.27.27 0 0 0-.27.27v.03c0 .15.12.27.27.27h.573c.15 0 .27.122.27.271v.016a.272.272 0 0 1-.271.27zm4.446 0h.015a.27.27 0 0 0 .27-.27v-.587c0-.15.122-.27.271-.27h1.13c.149 0 .27.12.27.27v.587c0 .15.121.27.27.27h2.25a.27.27 0 0 0 .27-.27v-1.158a.27.27 0 0 0-.27-.27h-1.129a.27.27 0 0 0-.27.27v.03c0 .15.12.27.27.27h.573c.149 0 .27.122.27.271v.03a.27.27 0 0 1-.27.27H25.36a.27.27 0 0 1-.271-.27v-.6a.27.27 0 0 0-.27-.272h-2.243a.27.27 0 0 0-.27.271v1.158c-.001.149.12.27.27.27zm1.113 0h.015a.27.27 0 0 0 .271-.27v-.016a.27.27 0 0 0-.27-.27h-.016a.27.27 0 0 0-.27.27v.016c0 .149.12.27.27.27zm-1.113-2.27h6.71a.27.27 0 0 0 .27-.27v-.03a.27.27 0 0 0-.27-.27h-6.71a.27.27 0 0 0-.27.27v.03c-.001.15.12.27.27.27zm6.71 2.27H28.15a.27.27 0 0 1-.27-.27v-1.158c0-.15.12-.27.27-.27h1.686a.27.27 0 0 0 .27-.271v-.6c0-.15.121-.272.271-.272h.016c.15 0 .27.121.27.271v1.743c0 .15.121.27.271.27h.023a.27.27 0 0 0 .27-.27v-1.743c0-.15.121-.27.271-.27h.022c.15 0 .271.12.271.27v1.743c0 .15.121.27.271.27h.008a.27.27 0 0 0 .27-.27v-1.743c0-.15.122-.27.272-.27h.015c.15 0 .27.12.27.27v2.3a.27.27 0 0 1-.27.27h-2.25a.27.27 0 0 1-.27-.27v-.587a.27.27 0 0 0-.271-.27h-1.129a.27.27 0 0 0-.27.27v.03c0 .15.12.27.27.27h.58c.15 0 .27.122.27.271v.016a.27.27 0 0 1-.27.27zm4.439 0h.015a.27.27 0 0 0 .27-.27v-.587c0-.15.121-.27.271-.27h1.129c.15 0 .27.12.27.27v.587c0 .15.122.27.271.27h2.25a.27.27 0 0 0 .27-.27v-1.158a.27.27 0 0 0-.27-.27h-1.136a.27.27 0 0 0-.27.27v.03c0 .15.12.27.27.27h.572c.15 0 .27.122.27.271v.03a.27.27 0 0 1-.27.27h-1.129a.27.27 0 0 1-.27-.27v-.6a.27.27 0 0 0-.271-.272h-2.242a.27.27 0 0 0-.271.271v1.158c0 .149.121.27.27.27zm1.113 0h.015a.27.27 0 0 0 .271-.27v-.016a.27.27 0 0 0-.27-.27h-.016a.27.27 0 0 0-.27.27v.016c0 .149.12.27.27.27zm-1.113-2.27h6.703a.27.27 0 0 0 .27-.27v-.03a.27.27 0 0 0-.27-.27h-6.703a.27.27 0 0 0-.271.27v.03c0 .15.121.27.27.27zm6.703 2.27h-1.136a.27.27 0 0 1-.27-.27v-1.158c0-.15.12-.27.27-.27h1.7a.27.27 0 0 0 .27-.271v-.6c0-.15.122-.272.272-.272h.015c.15 0 .27.121.27.271v1.743c0 .15.121.27.271.27h.008a.27.27 0 0 0 .271-.27v-1.743c0-.15.121-.27.27-.27h.023c.15 0 .27.12.27.27v1.743c0 .15.122.27.272.27h.015a.27.27 0 0 0 .27-.27v-1.743c0-.15.122-.27.272-.27h.015c.15 0 .27.12.27.27v2.3a.27.27 0 0 1-.27.27h-2.243a.27.27 0 0 1-.271-.27v-.587a.27.27 0 0 0-.271-.27h-1.136a.27.27 0 0 0-.27.27v.03c0 .15.12.27.27.27h.572c.15 0 .271.122.271.271v.016a.27.27 0 0 1-.27.27zm4.445 0h.016a.27.27 0 0 0 .27-.27v-.587c0-.15.122-.27.271-.27h1.129c.15 0 .27.12.27.27v.587c0 .15.122.27.271.27h2.25a.27.27 0 0 0 .27-.27v-1.158a.27.27 0 0 0-.27-.27h-1.136a.27.27 0 0 0-.27.27v.03c0 .15.12.27.27.27h.579c.15 0 .27.122.27.271v.03a.27.27 0 0 1-.27.27h-1.129a.27.27 0 0 1-.27-.27v-.6a.27.27 0 0 0-.271-.272h-2.25a.27.27 0 0 0-.27.271v1.158c0 .149.12.27.27.27zm1.121 0h.008a.27.27 0 0 0 .271-.27v-.016a.27.27 0 0 0-.27-.27h-.009a.27.27 0 0 0-.27.27v.016c0 .149.12.27.27.27zm-1.12-2.27h6.71a.27.27 0 0 0 .27-.27v-.03a.27.27 0 0 0-.27-.27h-6.71a.27.27 0 0 0-.271.27v.03c0 .15.12.27.27.27zm6.71 2.27h-1.136a.27.27 0 0 1-.27-.27v-1.158c0-.15.12-.27.27-.27h1.693a.27.27 0 0 0 .27-.271v-.6c0-.15.122-.272.271-.272h.015a.27.27 0 0 1 .271.271v1.743c0 .15.121.27.271.27h.015a.27.27 0 0 0 .271-.27v-1.743c0-.15.121-.27.27-.27h.016c.15 0 .27.12.27.27v1.743c0 .15.122.27.271.27h.015a.27.27 0 0 0 .271-.27v-1.743c0-.15.121-.27.271-.27h.015c.15 0 .271.12.271.27v2.3a.27.27 0 0 1-.27.27h-2.243a.27.27 0 0 1-.27-.27v-.587a.27.27 0 0 0-.271-.27h-1.136a.27.27 0 0 0-.27.27v.03c0 .15.12.27.27.27h.579c.15 0 .27.122.27.271v.016a.27.27 0 0 1-.27.27zm4.438 0h.016a.27.27 0 0 0 .27-.27v-.587c0-.15.122-.27.271-.27h1.129c.15 0 .27.12.27.27v.587c0 .15.122.27.272.27h2.249a.27.27 0 0 0 .27-.27v-1.158a.27.27 0 0 0-.27-.27H59.37a.27.27 0 0 0-.27.27v.03c0 .15.12.27.27.27h.565c.15 0 .27.122.27.271v.03a.27.27 0 0 1-.27.27h-1.122a.27.27 0 0 1-.27-.27v-.6a.27.27 0 0 0-.271-.272h-2.25a.27.27 0 0 0-.27.271v1.158c0 .149.12.27.27.27zm1.121 0h.008a.27.27 0 0 0 .271-.27v-.016a.27.27 0 0 0-.27-.27h-.009a.27.27 0 0 0-.27.27v.016c0 .149.12.27.27.27zm-1.12-2.27h6.71a.27.27 0 0 0 .27-.27v-.03a.27.27 0 0 0-.27-.27h-6.71a.27.27 0 0 0-.271.27v.03c0 .15.12.27.27.27zm6.71 2.27h-1.129a.27.27 0 0 1-.27-.27v-1.158c0-.15.12-.27.27-.27h1.686a.27.27 0 0 0 .27-.271v-.6c0-.15.121-.272.271-.272h.016c.15 0 .27.121.27.271v1.743c0 .15.121.27.271.27h.015a.27.27 0 0 0 .27-.27v-1.743c0-.15.122-.27.272-.27h.015c.15 0 .27.12.27.27v1.743c0 .15.122.27.272.27h.015a.27.27 0 0 0 .27-.27v-1.743c0-.15.121-.27.271-.27h.015c.15 0 .271.12.271.27v2.3a.27.27 0 0 1-.27.27H63.83a.27.27 0 0 1-.271-.27v-.587a.27.27 0 0 0-.27-.27h-1.136a.27.27 0 0 0-.271.27v.03c0 .15.12.27.27.27h.58c.15 0 .27.122.27.271v.016a.27.27 0 0 1-.27.27zm4.438 0h.016a.27.27 0 0 0 .27-.27v-.587c0-.15.122-.27.271-.27h1.136c.15 0 .27.12.27.27v.587c0 .15.122.27.271.27h2.243a.27.27 0 0 0 .27-.27v-1.158a.27.27 0 0 0-.27-.27H70.52a.27.27 0 0 0-.27.27v.03c0 .15.12.27.27.27h.58c.15 0 .27.122.27.271v.03a.27.27 0 0 1-.27.27h-1.144a.27.27 0 0 1-.27-.27v-.6a.27.27 0 0 0-.271-.272h-2.242a.27.27 0 0 0-.271.271v1.158c0 .149.12.27.27.27zm1.114 0h.022a.27.27 0 0 0 .271-.27v-.016a.27.27 0 0 0-.27-.27h-.023a.27.27 0 0 0-.27.27v.016c0 .149.12.27.27.27zm-1.114-2.27h6.71a.27.27 0 0 0 .271-.27v-.03a.27.27 0 0 0-.27-.27h-6.71a.27.27 0 0 0-.271.27v.03c0 .15.12.27.27.27zm6.711 2.27h-1.129a.27.27 0 0 1-.27-.27v-1.158c0-.15.12-.27.27-.27h1.686a.27.27 0 0 0 .27-.271v-.6c0-.15.122-.272.271-.272h.016c.15 0 .27.121.27.271v1.743c0 .15.122.27.271.27h.015a.27.27 0 0 0 .271-.27v-1.743c0-.15.121-.27.27-.27h.016c.15 0 .27.12.27.27v1.743c0 .15.122.27.272.27h.022a.27.27 0 0 0 .27-.27v-1.743c0-.15.122-.27.272-.27h.007c.15 0 .271.12.271.27v2.3a.27.27 0 0 1-.27.27H74.98a.27.27 0 0 1-.27-.27v-.587a.27.27 0 0 0-.271-.27h-1.122a.27.27 0 0 0-.27.27v.03c0 .15.12.27.27.27h.565c.15 0 .271.122.271.271v.016a.27.27 0 0 1-.27.27zm4.445 0h.009a.27.27 0 0 0 .27-.27v-.587c0-.15.121-.27.271-.27h1.13c.149 0 .27.12.27.27v.587c0 .15.121.27.27.27h2.25a.27.27 0 0 0 .27-.27v-1.158a.27.27 0 0 0-.27-.27h-1.121a.27.27 0 0 0-.271.27v.03c0 .15.12.27.27.27h.572c.15 0 .271.122.271.271v.03a.27.27 0 0 1-.27.27h-1.136a.27.27 0 0 1-.271-.27v-.6a.27.27 0 0 0-.27-.272h-2.244a.27.27 0 0 0-.27.271v1.158c0 .149.121.27.27.27zm1.114 0h.015a.27.27 0 0 0 .271-.27v-.016a.27.27 0 0 0-.27-.27h-.016a.27.27 0 0 0-.27.27v.016c0 .149.12.27.27.27zm-1.114-2.27h6.718a.27.27 0 0 0 .271-.27v-.03a.27.27 0 0 0-.27-.27h-6.719a.27.27 0 0 0-.27.27v.03c0 .15.121.27.27.27zm6.718 2.27h-1.143a.27.27 0 0 1-.271-.27v-1.158c0-.15.121-.27.27-.27h1.687a.27.27 0 0 0 .27-.271v-.6c0-.15.121-.272.271-.272h.022a.27.27 0 0 1 .271.271v1.743c0 .15.121.27.271.27h.015a.27.27 0 0 0 .27-.27v-1.743c0-.15.122-.27.272-.27h.008c.15 0 .27.12.27.27v1.743c0 .15.122.27.271.27h.023a.27.27 0 0 0 .27-.27v-1.743c0-.15.121-.27.271-.27h.016c.15 0 .27.12.27.27v2.3a.27.27 0 0 1-.27.27h-2.25a.27.27 0 0 1-.27-.27v-.587a.27.27 0 0 0-.271-.27h-1.13a.27.27 0 0 0-.27.27v.03c0 .15.121.27.27.27h.587c.15 0 .271.122.271.271v.016a.27.27 0 0 1-.271.27zm4.431 0h.016a.27.27 0 0 0 .27-.27v-.587c0-.15.121-.27.271-.27h1.129c.15 0 .27.12.27.27v.587c0 .15.122.27.271.27h2.25a.27.27 0 0 0 .27-.27v-1.158a.27.27 0 0 0-.27-.27H92.83a.27.27 0 0 0-.27.27v.03c0 .15.12.27.27.27h.572c.15 0 .271.122.271.271v.03a.27.27 0 0 1-.27.27H92.26a.27.27 0 0 1-.27-.27v-.6a.27.27 0 0 0-.271-.272h-2.243a.27.27 0 0 0-.27.271v1.158c0 .149.12.27.27.27zm1.114 0h.015a.27.27 0 0 0 .271-.27v-.016a.27.27 0 0 0-.27-.27h-.016a.27.27 0 0 0-.27.27v.016c0 .149.12.27.27.27zm-1.114-2.27h6.704a.27.27 0 0 0 .27-.27v-.03a.27.27 0 0 0-.27-.27h-6.704a.27.27 0 0 0-.27.27v.03c0 .15.12.27.27.27zm6.704 2.27h-1.13a.27.27 0 0 1-.27-.27v-1.158c0-.15.121-.27.27-.27h1.7a.27.27 0 0 0 .272-.271v-.6c0-.15.12-.272.27-.272h.001c.15 0 .27.121.27.271v1.743c0 .15.122.27.272.27h.03a.27.27 0 0 0 .27-.27v-1.743c0-.15.121-.27.27-.27h.002c.15 0 .27.12.27.27v1.743c0 .15.121.27.271.27h.016a.27.27 0 0 0 .27-.27v-1.743c0-.15.121-.27.271-.27h.03c.149 0 .27.12.27.27v2.3a.27.27 0 0 1-.27.27h-2.243a.27.27 0 0 1-.27-.27v-.587a.27.27 0 0 0-.271-.27h-1.143a.27.27 0 0 0-.271.27v.03c0 .15.121.27.27.27h.573c.149 0 .27.122.27.271v.016a.27.27 0 0 1-.27.27z"/><path d="M.27 22.424h4.477a.27.27 0 0 0 .27-.27v-.601a.27.27 0 0 0-.27-.27H.271a.27.27 0 0 0-.271.27v.6c0 .15.121.271.27.271zm5.582 0h4.47a.27.27 0 0 0 .27-.27v-.601a.27.27 0 0 0-.27-.27h-4.47a.27.27 0 0 0-.27.27v.6c0 .15.12.271.27.271zm5.575 0h4.469a.27.27 0 0 0 .27-.27v-.601a.27.27 0 0 0-.27-.27h-4.47a.27.27 0 0 0-.27.27v.6c0 .15.121.271.27.271zm5.567 0h4.483a.27.27 0 0 0 .271-.27v-.601a.27.27 0 0 0-.27-.27h-4.484a.27.27 0 0 0-.27.27v.6c0 .15.12.271.27.271zm5.582 0h4.476a.27.27 0 0 0 .27-.27v-.601a.27.27 0 0 0-.27-.27h-4.476a.27.27 0 0 0-.27.27v.6a.27.27 0 0 0 .27.271zm5.574 0h4.476a.27.27 0 0 0 .271-.27v-.601a.27.27 0 0 0-.27-.27H28.15a.27.27 0 0 0-.27.27v.6c0 .15.12.271.27.271zm5.575 0H38.2a.27.27 0 0 0 .27-.27v-.601a.27.27 0 0 0-.27-.27h-4.476a.27.27 0 0 0-.271.27v.6c0 .15.121.271.27.271zm5.567 0h4.483a.27.27 0 0 0 .271-.27v-.601a.27.27 0 0 0-.27-.27h-4.484a.27.27 0 0 0-.27.27v.6c0 .15.12.271.27.271zm5.581 0h4.477a.27.27 0 0 0 .27-.27v-.601a.27.27 0 0 0-.27-.27h-4.477a.27.27 0 0 0-.27.27v.6c0 .15.12.271.27.271zm5.575 0h4.476a.27.27 0 0 0 .271-.27v-.601a.27.27 0 0 0-.27-.27h-4.477a.27.27 0 0 0-.271.27v.6c0 .15.121.271.27.271zm5.574 0H60.5a.27.27 0 0 0 .27-.27v-.601a.27.27 0 0 0-.27-.27h-4.477a.27.27 0 0 0-.27.27v.6c0 .15.12.271.27.271zm5.582 0h4.47a.27.27 0 0 0 .27-.27v-.601a.27.27 0 0 0-.27-.27h-4.47a.27.27 0 0 0-.27.27v.6c0 .15.12.271.27.271zm5.567 0h4.477a.27.27 0 0 0 .27-.27v-.601a.27.27 0 0 0-.27-.27h-4.477a.27.27 0 0 0-.27.27v.6c0 .15.12.271.27.271zm5.582 0h4.469a.27.27 0 0 0 .27-.27v-.601a.27.27 0 0 0-.27-.27h-4.469a.27.27 0 0 0-.27.27v.6c0 .15.12.271.27.271zm5.574 0h4.47a.27.27 0 0 0 .27-.27v-.601a.27.27 0 0 0-.27-.27h-4.47a.27.27 0 0 0-.27.27v.6c0 .15.121.271.27.271zm5.575 0h4.477a.27.27 0 0 0 .27-.27v-.601a.27.27 0 0 0-.27-.27h-4.477a.27.27 0 0 0-.27.27v.6c0 .15.12.271.27.271zm5.574 0h4.477a.27.27 0 0 0 .27-.27v-.601a.27.27 0 0 0-.27-.27h-4.477a.27.27 0 0 0-.27.27v.6c0 .15.12.271.27.271zm5.575 0h4.484a.27.27 0 0 0 .27-.27v-.601a.27.27 0 0 0-.27-.27H95.05a.27.27 0 0 0-.27.27v.6c0 .15.12.271.27.271zM99.534 44.8h-.015a.27.27 0 0 0-.27.272v.586a.27.27 0 0 1-.271.27h-1.136a.27.27 0 0 1-.27-.27v-.586a.27.27 0 0 0-.272-.271h-2.242a.27.27 0 0 0-.27.27v1.158c0 .15.12.271.27.271h1.129a.27.27 0 0 0 .27-.27v-.03a.27.27 0 0 0-.27-.271h-.572a.27.27 0 0 1-.27-.27v-.03c0-.15.12-.271.27-.271h1.129c.15 0 .27.12.27.27v.601c0 .15.122.271.271.271h2.25a.27.27 0 0 0 .27-.27v-1.158a.27.27 0 0 0-.27-.271zm-1.12 0h-.016a.27.27 0 0 0-.27.272v.015c0 .15.12.27.27.27h.016a.27.27 0 0 0 .27-.27v-.015a.27.27 0 0 0-.27-.271zm1.12 2.27h-6.71a.27.27 0 0 0-.27.272v.03c0 .149.12.27.27.27h6.71a.27.27 0 0 0 .271-.27v-.03a.27.27 0 0 0-.27-.271zm-6.71-2.27h1.129c.15 0 .27.122.27.272v1.157a.27.27 0 0 1-.27.271h-1.686a.27.27 0 0 0-.27.27v.601a.27.27 0 0 1-.271.271h-.015a.27.27 0 0 1-.271-.27v-1.743a.27.27 0 0 0-.27-.271h-.016a.27.27 0 0 0-.271.27v1.743a.27.27 0 0 1-.27.271h-.016a.27.27 0 0 1-.27-.27v-1.743a.27.27 0 0 0-.271-.271h-.023a.27.27 0 0 0-.27.27v1.743a.27.27 0 0 1-.271.271h-.008a.27.27 0 0 1-.271-.27v-2.3c0-.15.12-.271.27-.271h2.243c.15 0 .27.121.27.27v.587c0 .15.122.27.271.27h1.129a.27.27 0 0 0 .27-.27v-.03a.27.27 0 0 0-.27-.27h-.572a.27.27 0 0 1-.27-.27v-.016c0-.15.12-.271.27-.271zm-4.445 0h-.023a.27.27 0 0 0-.27.272v.586a.27.27 0 0 1-.271.27h-1.122a.27.27 0 0 1-.27-.27v-.586a.27.27 0 0 0-.272-.271H83.91a.27.27 0 0 0-.27.27v1.158c0 .15.12.271.27.271h1.129a.27.27 0 0 0 .27-.27v-.03a.27.27 0 0 0-.27-.271h-.572a.27.27 0 0 1-.27-.27v-.03c0-.15.12-.271.27-.271h1.129c.15 0 .27.12.27.27v.601c0 .15.122.271.271.271h2.243a.27.27 0 0 0 .27-.27v-1.158a.27.27 0 0 0-.27-.271zm-1.114 0h-.015a.27.27 0 0 0-.27.272v.015c0 .15.12.27.27.27h.015a.27.27 0 0 0 .27-.27v-.015a.27.27 0 0 0-.27-.271zm1.114 2.27h-6.704a.27.27 0 0 0-.27.272v.03c0 .149.12.27.27.27h6.704a.27.27 0 0 0 .27-.27v-.03a.27.27 0 0 0-.27-.271zm-6.704-2.27h1.136c.15 0 .27.122.27.272v1.157a.27.27 0 0 1-.27.271h-1.686a.27.27 0 0 0-.27.27v.601a.27.27 0 0 1-.271.271h-.023a.27.27 0 0 1-.27-.27v-1.743a.27.27 0 0 0-.271-.271h-.023a.27.27 0 0 0-.27.27v1.743a.27.27 0 0 1-.271.271h-.008a.27.27 0 0 1-.271-.27v-1.743a.27.27 0 0 0-.27-.271h-.023a.27.27 0 0 0-.27.27v1.743a.27.27 0 0 1-.272.271h-.015a.27.27 0 0 1-.27-.27v-2.3c0-.15.12-.271.27-.271h2.257c.15 0 .27.121.27.27v.587c0 .15.121.27.271.27h1.122a.27.27 0 0 0 .27-.27v-.03a.27.27 0 0 0-.27-.27h-.572a.27.27 0 0 1-.271-.27v-.016c0-.15.122-.271.271-.271zm-4.445 0h-.016a.27.27 0 0 0-.27.272v.586a.27.27 0 0 1-.271.27h-1.13a.27.27 0 0 1-.27-.27v-.586a.27.27 0 0 0-.27-.271h-2.25a.27.27 0 0 0-.27.27v1.158c0 .15.12.271.27.271h1.129a.27.27 0 0 0 .27-.27v-.03a.27.27 0 0 0-.27-.271h-.572a.27.27 0 0 1-.271-.27v-.03c0-.15.12-.271.27-.271h1.136c.15 0 .271.12.271.27v.601c0 .15.121.271.27.271h2.243a.27.27 0 0 0 .27-.27v-1.158a.27.27 0 0 0-.27-.271zm-1.114 0H76.1a.27.27 0 0 0-.271.272v.015c0 .15.121.27.27.27h.016a.27.27 0 0 0 .27-.27v-.015a.27.27 0 0 0-.27-.271zm1.113 2.27h-6.71a.27.27 0 0 0-.271.272v.03c0 .149.121.27.27.27h6.711a.27.27 0 0 0 .271-.27v-.03a.27.27 0 0 0-.27-.271zm-6.71-2.27h1.136c.15 0 .27.122.27.272v1.157a.27.27 0 0 1-.27.271h-1.686a.27.27 0 0 0-.27.27v.601a.27.27 0 0 1-.271.271h-.016a.27.27 0 0 1-.27-.27v-1.743a.27.27 0 0 0-.271-.271h-.022a.27.27 0 0 0-.271.27v1.743a.27.27 0 0 1-.271.271h-.022a.27.27 0 0 1-.271-.27v-1.743a.27.27 0 0 0-.27-.271h-.01a.27.27 0 0 0-.27.27v1.743a.27.27 0 0 1-.27.271h-.016a.27.27 0 0 1-.27-.27v-2.3c0-.15.12-.271.27-.271h2.25c.15 0 .27.121.27.27v.587c0 .15.122.27.271.27h1.13a.27.27 0 0 0 .27-.27v-.03a.27.27 0 0 0-.27-.27h-.58a.27.27 0 0 1-.271-.27v-.016a.27.27 0 0 1 .27-.271zm-4.439 0h-.015a.27.27 0 0 0-.27.272v.586a.27.27 0 0 1-.271.27h-1.129a.27.27 0 0 1-.27-.27v-.586a.27.27 0 0 0-.271-.271h-2.25a.27.27 0 0 0-.27.27v1.158c0 .15.12.271.27.271h1.136a.27.27 0 0 0 .27-.27v-.03a.27.27 0 0 0-.27-.271h-.572a.27.27 0 0 1-.27-.27v-.03c0-.15.12-.271.27-.271h1.129c.15 0 .27.12.27.27v.601c0 .15.121.271.271.271h2.242a.27.27 0 0 0 .271-.27v-1.158a.27.27 0 0 0-.27-.271zm-1.113 0h-.015a.27.27 0 0 0-.27.272v.015c0 .15.12.27.27.27h.015a.27.27 0 0 0 .27-.27v-.015a.27.27 0 0 0-.27-.271zm1.114 2.27h-6.704a.27.27 0 0 0-.27.272v.03c0 .149.12.27.27.27h6.704a.27.27 0 0 0 .27-.27v-.03a.27.27 0 0 0-.27-.271zm-6.704-2.27h1.136c.15 0 .27.122.27.272v1.157a.27.27 0 0 1-.27.271h-1.7a.27.27 0 0 0-.27.27v.601a.27.27 0 0 1-.271.271h-.015a.27.27 0 0 1-.271-.27v-1.743a.27.27 0 0 0-.271-.271h-.008a.27.27 0 0 0-.27.27v1.743a.27.27 0 0 1-.272.271h-.022a.27.27 0 0 1-.27-.27v-1.743a.27.27 0 0 0-.272-.271h-.015a.27.27 0 0 0-.27.27v1.743a.27.27 0 0 1-.272.271h-.015a.27.27 0 0 1-.27-.27v-2.3c0-.15.12-.271.27-.271h2.243c.15 0 .27.121.27.27v.587c0 .15.121.27.271.27h1.136a.27.27 0 0 0 .27-.27v-.03a.27.27 0 0 0-.27-.27h-.572a.27.27 0 0 1-.271-.27v-.016c0-.15.122-.271.271-.271zm-4.445 0h-.016a.27.27 0 0 0-.27.272v.586a.27.27 0 0 1-.271.27h-1.129a.27.27 0 0 1-.27-.27v-.586a.27.27 0 0 0-.271-.271h-2.25a.27.27 0 0 0-.27.27v1.158c0 .15.12.271.27.271h1.136a.27.27 0 0 0 .27-.27v-.03a.27.27 0 0 0-.27-.271h-.579a.27.27 0 0 1-.27-.27v-.03c0-.15.12-.271.27-.271h1.129c.15 0 .27.12.27.27v.601c0 .15.122.271.271.271h2.25a.27.27 0 0 0 .27-.27v-1.158a.27.27 0 0 0-.27-.271zm-1.121 0h-.008a.27.27 0 0 0-.271.272v.015c0 .15.121.27.27.27h.009a.27.27 0 0 0 .27-.27v-.015a.27.27 0 0 0-.27-.271zm1.12 2.27h-6.71a.27.27 0 0 0-.27.272v.03c0 .149.12.27.27.27h6.71a.27.27 0 0 0 .272-.27v-.03a.27.27 0 0 0-.271-.271zm-6.71-2.27h1.136c.15 0 .27.122.27.272v1.157a.27.27 0 0 1-.27.271h-1.693a.27.27 0 0 0-.27.27v.601a.27.27 0 0 1-.271.271h-.015a.27.27 0 0 1-.271-.27v-1.743a.27.27 0 0 0-.27-.271h-.016a.27.27 0 0 0-.271.27v1.743a.27.27 0 0 1-.27.271h-.016a.27.27 0 0 1-.27-.27v-1.743a.27.27 0 0 0-.271-.271h-.015a.27.27 0 0 0-.271.27v1.743a.27.27 0 0 1-.27.271h-.016a.27.27 0 0 1-.271-.27v-2.3a.27.27 0 0 1 .27-.271h2.243c.15 0 .27.121.27.27v.587c0 .15.122.27.271.27H48.8a.27.27 0 0 0 .271-.27v-.03a.27.27 0 0 0-.27-.27h-.58a.27.27 0 0 1-.27-.27v-.016a.27.27 0 0 1 .27-.271zm-4.438 0h-.016a.27.27 0 0 0-.27.272v.586a.27.27 0 0 1-.271.27h-1.129a.27.27 0 0 1-.27-.27v-.586a.27.27 0 0 0-.271-.271h-2.25a.27.27 0 0 0-.27.27v1.158c0 .15.12.271.27.271h1.13a.27.27 0 0 0 .27-.27v-.03a.27.27 0 0 0-.27-.271h-.566a.27.27 0 0 1-.27-.27v-.03c0-.15.12-.271.27-.271h1.122c.15 0 .27.12.27.27v.601c0 .15.121.271.271.271h2.25a.27.27 0 0 0 .27-.27v-1.158a.27.27 0 0 0-.27-.271zm-1.121 0h-.008a.27.27 0 0 0-.271.272v.015c0 .15.121.27.27.27h.009a.27.27 0 0 0 .27-.27v-.015a.27.27 0 0 0-.27-.271zm1.12 2.27h-6.71a.27.27 0 0 0-.27.272v.03c0 .149.12.27.27.27h6.71a.27.27 0 0 0 .271-.27v-.03a.27.27 0 0 0-.27-.271zm-6.71-2.27h1.129c.15 0 .27.122.27.272v1.157a.27.27 0 0 1-.27.271h-1.686a.27.27 0 0 0-.27.27v.601a.27.27 0 0 1-.271.271h-.016a.27.27 0 0 1-.27-.27v-1.743a.27.27 0 0 0-.271-.271h-.015a.27.27 0 0 0-.27.27v1.743a.27.27 0 0 1-.272.271h-.015a.27.27 0 0 1-.27-.27v-1.743a.27.27 0 0 0-.271-.271h-.016a.27.27 0 0 0-.27.27v1.743a.27.27 0 0 1-.271.271h-.015a.27.27 0 0 1-.271-.27v-2.3c0-.15.12-.271.27-.271h2.243a.27.27 0 0 1 .271.27v.587c0 .15.121.27.27.27h1.136a.27.27 0 0 0 .271-.27v-.03a.27.27 0 0 0-.27-.27h-.58a.27.27 0 0 1-.27-.27v-.016a.27.27 0 0 1 .27-.271zm-4.438 0h-.016a.27.27 0 0 0-.27.272v.586a.27.27 0 0 1-.271.27H30.94a.27.27 0 0 1-.27-.27v-.586a.27.27 0 0 0-.271-.271h-2.243a.27.27 0 0 0-.27.27v1.158c0 .15.12.271.27.271h1.129a.27.27 0 0 0 .27-.27v-.03a.27.27 0 0 0-.27-.271h-.58a.27.27 0 0 1-.27-.27v-.03c0-.15.12-.271.27-.271h1.144c.15 0 .27.12.27.27v.601c0 .15.122.271.271.271h2.242a.27.27 0 0 0 .271-.27v-1.158a.27.27 0 0 0-.27-.271zm-1.114 0h-.022a.27.27 0 0 0-.271.272v.015c0 .15.121.27.27.27h.023a.27.27 0 0 0 .27-.27v-.015a.27.27 0 0 0-.27-.271zm1.114 2.27h-6.71a.27.27 0 0 0-.271.272v.03c0 .149.12.27.27.27h6.71a.27.27 0 0 0 .271-.27v-.03a.27.27 0 0 0-.27-.271zm-6.711-2.27h1.129c.15 0 .27.122.27.272v1.157a.27.27 0 0 1-.27.271h-1.686a.27.27 0 0 0-.27.27v.601a.27.27 0 0 1-.271.271h-.016a.27.27 0 0 1-.27-.27v-1.743a.27.27 0 0 0-.271-.271h-.015a.27.27 0 0 0-.27.27v1.743a.27.27 0 0 1-.272.271h-.015a.27.27 0 0 1-.27-.27v-1.743a.27.27 0 0 0-.272-.271h-.022a.27.27 0 0 0-.27.27v1.743a.27.27 0 0 1-.272.271h-.008a.27.27 0 0 1-.27-.27v-2.3c0-.15.12-.271.27-.271h2.243c.15 0 .27.121.27.27v.587c0 .15.121.27.271.27h1.122a.27.27 0 0 0 .27-.27v-.03a.27.27 0 0 0-.27-.27h-.565a.27.27 0 0 1-.271-.27v-.016a.27.27 0 0 1 .271-.271zm-4.445 0h-.009a.27.27 0 0 0-.27.272v.586a.27.27 0 0 1-.271.27h-1.13a.27.27 0 0 1-.27-.27v-.586a.27.27 0 0 0-.27-.271h-2.25a.27.27 0 0 0-.27.27v1.158c0 .15.12.271.27.271h1.122a.27.27 0 0 0 .27-.27v-.03a.27.27 0 0 0-.27-.271h-.572a.27.27 0 0 1-.27-.27v-.03c0-.15.12-.271.27-.271h1.136c.15 0 .27.12.27.27v.601c0 .15.122.271.271.271h2.243a.27.27 0 0 0 .27-.27v-1.158a.27.27 0 0 0-.27-.271zm-1.114 0h-.015a.27.27 0 0 0-.271.272v.015c0 .15.121.27.27.27h.016a.27.27 0 0 0 .27-.27v-.015a.27.27 0 0 0-.27-.271zm1.114 2.27H14.76a.27.27 0 0 0-.27.272v.03c0 .149.12.27.27.27h6.718a.27.27 0 0 0 .27-.27v-.03a.27.27 0 0 0-.27-.271zM14.76 44.8h1.143c.15 0 .271.122.271.272v1.157a.27.27 0 0 1-.27.271h-1.686a.27.27 0 0 0-.271.27v.601a.27.27 0 0 1-.271.271h-.022a.27.27 0 0 1-.271-.27v-1.743a.27.27 0 0 0-.27-.271h-.016a.27.27 0 0 0-.27.27v1.743a.27.27 0 0 1-.271.271h-.009a.27.27 0 0 1-.27-.27v-1.743a.27.27 0 0 0-.271-.271h-.023a.27.27 0 0 0-.27.27v1.743a.27.27 0 0 1-.271.271h-.015a.27.27 0 0 1-.271-.27v-2.3c0-.15.12-.271.27-.271h2.25c.15 0 .27.121.27.27v.587c0 .15.122.27.272.27h1.128a.27.27 0 0 0 .271-.27v-.03a.27.27 0 0 0-.27-.27h-.587a.27.27 0 0 1-.27-.27v-.016c0-.15.12-.271.27-.271zm-4.431 0h-.016a.27.27 0 0 0-.27.272v.586a.27.27 0 0 1-.271.27H8.643a.27.27 0 0 1-.27-.27v-.586a.27.27 0 0 0-.271-.271h-2.25a.27.27 0 0 0-.27.27v1.158c0 .15.12.271.27.271h1.122a.27.27 0 0 0 .27-.27v-.03a.27.27 0 0 0-.27-.271h-.572a.27.27 0 0 1-.271-.27v-.03a.27.27 0 0 1 .27-.271h1.144c.15 0 .27.12.27.27v.601c0 .15.122.271.272.271h2.242a.27.27 0 0 0 .27-.27v-1.158a.27.27 0 0 0-.27-.271zm-1.114 0H9.2a.27.27 0 0 0-.271.272v.015c0 .15.121.27.27.27h.016a.27.27 0 0 0 .271-.27v-.015a.27.27 0 0 0-.27-.271zm1.114 2.27H3.626a.27.27 0 0 0-.271.272v.03c0 .149.12.27.27.27h6.704a.27.27 0 0 0 .27-.27v-.03a.27.27 0 0 0-.27-.271zM3.626 44.8h1.128c.15 0 .271.122.271.272v1.157a.27.27 0 0 1-.27.271h-1.7a.27.27 0 0 0-.271.27v.601a.27.27 0 0 1-.27.271h-.002a.27.27 0 0 1-.27-.27v-1.743a.27.27 0 0 0-.271-.271h-.03a.27.27 0 0 0-.271.27v1.743a.27.27 0 0 1-.27.271h-.001a.27.27 0 0 1-.271-.27v-1.743a.27.27 0 0 0-.27-.271H.841a.27.27 0 0 0-.271.27v1.743a.27.27 0 0 1-.271.271H.27a.27.27 0 0 1-.27-.27v-2.3a.27.27 0 0 1 .27-.271h2.243c.15 0 .27.121.27.27v.587c0 .15.122.27.271.27h1.143a.27.27 0 0 0 .271-.27v-.03a.27.27 0 0 0-.27-.27h-.572a.27.27 0 0 1-.271-.27v-.016a.27.27 0 0 1 .27-.271zm95.908-1.726h-4.476a.27.27 0 0 0-.27.27v.601c0 .15.12.27.27.27h4.476a.27.27 0 0 0 .271-.27v-.6a.27.27 0 0 0-.27-.271zm-5.581 0h-4.47a.27.27 0 0 0-.27.27v.601c0 .15.12.27.27.27h4.47a.27.27 0 0 0 .27-.27v-.6a.27.27 0 0 0-.27-.271zm-5.574 0h-4.47a.27.27 0 0 0-.27.27v.601c0 .15.12.27.27.27h4.47a.27.27 0 0 0 .27-.27v-.6a.27.27 0 0 0-.27-.271zm-5.568 0h-4.483a.27.27 0 0 0-.271.27v.601c0 .15.121.27.27.27h4.484a.27.27 0 0 0 .27-.27v-.6a.27.27 0 0 0-.27-.271zm-5.581 0h-4.477a.27.27 0 0 0-.27.27v.601c0 .15.12.27.27.27h4.476a.27.27 0 0 0 .271-.27v-.6a.27.27 0 0 0-.27-.271zm-5.575 0h-4.476a.27.27 0 0 0-.271.27v.601c0 .15.121.27.27.27h4.477a.27.27 0 0 0 .27-.27v-.6a.27.27 0 0 0-.27-.271zm-5.575 0h-4.476a.27.27 0 0 0-.27.27v.601c0 .15.12.27.27.27h4.477a.27.27 0 0 0 .27-.27v-.6a.27.27 0 0 0-.27-.271zm-5.567 0H56.03a.27.27 0 0 0-.271.27v.601c0 .15.12.27.27.27h4.484a.27.27 0 0 0 .27-.27v-.6a.27.27 0 0 0-.27-.271zm-5.581 0h-4.477a.27.27 0 0 0-.27.27v.601c0 .15.12.27.27.27h4.477a.27.27 0 0 0 .27-.27v-.6a.27.27 0 0 0-.27-.271zm-5.575 0h-4.476a.27.27 0 0 0-.271.27v.601c0 .15.121.27.27.27h4.477a.27.27 0 0 0 .271-.27v-.6a.27.27 0 0 0-.27-.271zm-5.574 0h-4.477a.27.27 0 0 0-.27.27v.601c0 .15.12.27.27.27h4.477a.27.27 0 0 0 .27-.27v-.6a.27.27 0 0 0-.27-.271zm-5.582 0h-4.47a.27.27 0 0 0-.27.27v.601c0 .15.12.27.27.27h4.47a.27.27 0 0 0 .27-.27v-.6a.27.27 0 0 0-.27-.271zm-5.567 0h-4.477a.27.27 0 0 0-.27.27v.601c0 .15.12.27.27.27h4.477a.27.27 0 0 0 .27-.27v-.6a.27.27 0 0 0-.27-.271zm-5.582 0h-4.469a.27.27 0 0 0-.27.27v.601c0 .15.12.27.27.27h4.469a.27.27 0 0 0 .27-.27v-.6a.27.27 0 0 0-.27-.271zm-5.574 0h-4.47a.27.27 0 0 0-.27.27v.601c0 .15.12.27.27.27h4.47a.27.27 0 0 0 .27-.27v-.6a.27.27 0 0 0-.27-.271zm-5.575 0h-4.476a.27.27 0 0 0-.271.27v.601c0 .15.12.27.27.27h4.477a.27.27 0 0 0 .27-.27v-.6a.27.27 0 0 0-.27-.271zm-5.574 0H5.852a.27.27 0 0 0-.27.27v.601c0 .15.12.27.27.27h4.477a.27.27 0 0 0 .27-.27v-.6a.27.27 0 0 0-.27-.271zm-5.575 0H.271a.27.27 0 0 0-.271.27v.601c0 .15.121.27.27.27h4.484a.27.27 0 0 0 .271-.27v-.6a.27.27 0 0 0-.271-.271z"/></g><g fill="#FF4B55"><path d="M48.48 24.615a1.472 1.472 0 0 0 1.429-.395c.565.572 1.49.586 2.076.028.381-.368.538-.926.402-1.43a1.698 1.698 0 0 1-2.349.558c-.04-.027-.095-.054-.129-.082a1.727 1.727 0 0 1-2.396-.34c-.02-.04-.061-.095-.088-.136-.205.79.271 1.607 1.054 1.797zm3.17 15.903c1.83-1.005 3.357-2.587 4.194-4.672a9.35 9.35 0 0 0-2.2-10.222c-.093-.09-.236.03-.168.141 2.69 4.387 1.63 10.151-2.532 13.31l.2-12.742a.564.564 0 0 0-.21-.447l-.676-.547a.563.563 0 0 0-.71.002l-.667.545a.562.562 0 0 0-.207.444l.193 12.751c-4.163-3.157-5.225-8.926-2.539-13.316.068-.11-.074-.23-.168-.14a9.36 9.36 0 0 0-2.2 10.221c.837 2.084 2.364 3.667 4.194 4.672-1.165.399-2.389.61-3.627.575-.13-.004-.157.18-.031.218a9.23 9.23 0 0 0 4.71.17l.598 1.158a.11.11 0 0 0 .197 0l.601-1.158c1.521.34 3.14.307 4.713-.17.125-.038.1-.222-.032-.218a10.307 10.307 0 0 1-3.633-.575z"/><path d="M59.098 28.672a7.898 7.898 0 0 0-4.343-3.725c-.116-.041-.207.112-.112.19 4.087 3.367 4.906 9.363 1.746 13.705-.164.217-.34.449-.51.64 3.88-2.084 5.315-6.93 3.219-10.81zm-15.676 10.17c-3.16-4.342-2.348-10.338 1.738-13.704.095-.079.005-.232-.111-.191a7.912 7.912 0 0 0-4.336 3.725 7.949 7.949 0 0 0 3.226 10.809 5.89 5.89 0 0 1-.517-.64z"/></g></g></svg>