<svg xmlns="http://www.w3.org/2000/svg" viewBox="0 0 447.232 447.232"><g fill="#1587ea"><path d="M207.527 251.676L92.903 177.758a10.272 10.272 0 0 0-12.007.63L3.833 240.403c-5.458 4.392-5.015 12.839.873 16.636l114.624 73.918a10.272 10.272 0 0 0 12.007-.63l77.063-62.014c5.458-4.393 5.015-12.84-.873-16.637zm31.306 16.636l77.063 62.014a10.272 10.272 0 0 0 12.007.63l114.624-73.918c5.888-3.797 6.331-12.244.873-16.636l-77.063-62.014a10.272 10.272 0 0 0-12.007-.63l-114.624 73.918c-5.887 3.797-6.331 12.244-.873 16.636zM208.4 74.196l-77.063-62.014a10.272 10.272 0 0 0-12.007-.63L4.706 85.47c-5.888 3.797-6.331 12.244-.873 16.636l77.063 62.014a10.272 10.272 0 0 0 12.007.63l114.624-73.918c5.888-3.797 6.331-12.244.873-16.636zM442.527 85.47L327.903 11.552a10.272 10.272 0 0 0-12.007.63l-77.063 62.014c-5.458 4.392-5.015 12.839.873 16.636l114.625 73.918a10.272 10.272 0 0 0 12.007-.63l77.063-62.014c5.457-4.393 5.014-12.84-.874-16.636z"/><path d="M218 279.2l-86.3 68.841a9.319 9.319 0 0 1-10.861.547L99.568 334.87c-6.201-3.999-14.368.453-14.368 7.831v7.416a9.32 9.32 0 0 0 4.488 7.969l128.481 77.884a9.317 9.317 0 0 0 9.661 0l128.481-77.884a9.319 9.319 0 0 0 4.488-7.969v-6.619c0-7.378-8.168-11.83-14.368-7.831l-20.024 12.913a9.318 9.318 0 0 1-10.876-.559l-85.893-68.809A9.32 9.32 0 0 0 218 279.2z"/></g></svg>