<svg width="2800" height="2834" viewBox="0 0 2800 2834" xmlns="http://www.w3.org/2000/svg"><title>Mellat</title><defs><radialGradient cx="16%" cy="15%" fx="16%" fy="15%" r="17%" id="a"><stop stop-color="#FFF" offset="0%"/><stop stop-color="#E8909A" offset="41.176%"/><stop stop-color="#D12236" offset="100%"/></radialGradient><linearGradient x1="99.17%" y1="100.883%" x2=".834%" y2="-.878%" id="b"><stop stop-color="#FFD88B" offset="0%"/><stop stop-color="#FFD88B" offset="7.843%"/><stop stop-color="#FFD55D" offset="49.02%"/><stop stop-color="#FFD22E" offset="100%"/></linearGradient></defs><g fill="none" fill-rule="evenodd"><path d="M1300 34L680 400c-161 66-128 242-128 242l-3 1334 333-190c-173-654 418-765 418-765V498c10-163 128-62 128-62l822 471-5-255c5-212-121-245-121-245L1493 34c-33-25-66-33-95-33-57 0-98 33-98 33z" fill="url(#a)"/><path d="M549 1976l3-1334s-33-176 128-242l620-366s92-75 193 0l631 373s126 33 121 245l5 255-822-471s-118-101-128 62v523s-591 111-418 765l-333 190z" stroke="#AA1F00" stroke-width="83.335"/><path d="M1470 651l1167 675s170 61 148 232l13 719s20 117-96 166l-639 354s-91 92-274-19l-226-125 820-469s147-50 8-141l-457-264s196-565-463-746l-1-382z" fill="#D12236"/><path d="M1470 651l1167 675s170 61 148 232l13 719s20 117-96 166l-639 354s-91 92-274-19l-226-125 820-469s147-50 8-141l-457-264s196-565-463-746l-1-382z" stroke="#AA1F00" stroke-width="83.335"/><path d="M2171 2116L998 2779s-139 116-275 11L97 2436s-111-41-95-166l19-731s-33-125 156-227l222-131-11 945s-32 152 117 79l459-261s388 455 878-20l329 192z" fill="#D12236"/><path d="M2171 2116L998 2779s-139 116-275 11L97 2436s-111-41-95-166l19-731s-33-125 156-227l222-131-11 945s-32 152 117 79l459-261s388 455 878-20l329 192z" stroke="#AA1F00" stroke-width="83.335"/><path d="M998 1584c0 219 178 397 398 397 219 0 397-178 397-397 0-220-178-398-397-398-220 0-398 178-398 398z" fill="url(#b)"/><path d="M1793 1584c0-220-178-398-397-398-220 0-398 178-398 398 0 219 178 397 398 397 219 0 397-178 397-397z" stroke="#FF9F00" stroke-width="97.221"/></g></svg>