<svg width="3862" height="4351" viewBox="0 0 3862 4351" xmlns="http://www.w3.org/2000/svg"><title>Parsian</title><g stroke-width="6.945" fill="none" fill-rule="evenodd"><path d="M1930 303c-108 326-179 658-369 970 91 150 169 256 197 520 126-80 207-77 338-2 19-246 92-360 204-516-209-327-275-632-370-972z" stroke="#050007" fill="#050007"/><path d="M401 721l51 142c-116 66-255 205-280 342v2939l1518-1V3005c-519-132-704-632-615-1096 200 52 301 193 390 327 25-171 95-264 166-364 173 142 242 536 232 818v1660L0 4349V1162c9-165 158-451 401-441z" stroke="#98110F" fill="#98110F"/><path d="M942 2082C809 1286 679 829 144 385c804 125 1239 777 1461 1378-138-42-295-76-379 101-113-94-243-179-284 218zm86-1387C882 558 598 456 586 335s44-169 229-153c68-68 240-88 239 67-2 154-3 248-26 446z" stroke="#050007" fill="#050007"/><path d="M1221 243c-15 169-38 307-117 541 137 156 183 211 363 424 84-178 121-268 202-428-174-135-288-317-448-537z" stroke="#98110F" fill="#98110F"/><path d="M2911 2081c133-795 263-1253 798-1696-804 125-1239 777-1461 1378 138-43 295-77 379 101 113-95 243-179 284 217z" stroke="#050007" fill="#050007"/><path d="M2635 242c15 169 38 308 117 541-137 156-183 211-363 424-84-178-121-267-202-428 174-135 288-317 448-537z" stroke="#98110F" fill="#98110F"/><path d="M1684 654c-150-186-334-374-342-452-9-78-22-161 208-132 30-99 231-98 243 45 12 144-6 336-109 539zm493 3c150-186 333-374 342-452 8-78 22-160-208-132-30-99-232-98-243 46-12 143 6 335 109 538zm653 37c146-137 430-239 442-360s-44-169-230-154c-67-67-239-88-238 67s3 248 26 447z" stroke="#050007" fill="#050007"/><path d="M3461 722l-51 141c116 66 255 206 280 343v2939l-1518-1V3006c519-132 704-632 615-1096-200 52-301 192-390 327-25-171-95-264-166-364-173 142-242 536-232 818v1660l1863-1V1163c-9-165-158-452-401-441z" stroke="#98110F" fill="#98110F"/></g></svg>