<svg xmlns="http://www.w3.org/2000/svg" viewBox="0 0 58 58"><path fill="#b5c3c6" d="M29 3.083h8v52h-8z"/><path d="M29 6.083H.944A.944.944 0 0 0 0 7.027V51.14c0 .521.422.944.944.944H29V6.083zm16.889 0l7.111 4v38l-7.111 4h11.168a.944.944 0 0 0 .944-.944V7.027a.944.944 0 0 0-.944-.944H45.889z" fill="#b6c8cc"/><path d="M37 1.201v55.598c0 .09.097.146.175.102L53 48V10L37.175 1.098a.118.118 0 0 0-.175.103z" fill="#e3e9ec"/><path d="M29 10.083H5.345c-.743 0-1.345.603-1.345 1.346v35.309c0 .743.602 1.345 1.345 1.345H29v-38z" fill="#556080"/><path d="M52 16.083h3a1 1 0 1 0 0-2h-3a1 1 0 1 0 0 2zm3 1h-3a1 1 0 1 0 0 2h3a1 1 0 1 0 0-2zm0 22h-3a1 1 0 1 0 0 2h3a1 1 0 1 0 0-2zm0 3h-3a1 1 0 1 0 0 2h3a1 1 0 1 0 0-2z" fill="#a3b8be"/><path fill="#556080" d="M2 52.083h8v4H2zm46 0h8v4h-8z"/><g fill="#556080"><circle cx="33" cy="6" r="1"/><circle cx="33" cy="12" r="1"/><circle cx="33" cy="46" r="1"/><circle cx="33" cy="40" r="1"/><circle cx="33" cy="18" r="1"/><circle cx="33" cy="52" r="1"/></g><path d="M40 19v4a3.015 3.015 0 0 1 3.011 3.011v5.979A3.015 3.015 0 0 1 40 35v4a7.019 7.019 0 0 0 7.011-7.011V26.01c0-3.866-3.145-7.01-7.011-7.01z" fill="#b5c3c6"/><path d="M41.063 20.583h-.838v-.028H40v1.028h1.063c1.62 0 3.937 1.888 3.937 3.507v7.818c0 1.62-2.318 3.656-3.937 3.656H40v.987h1.195C43.304 37.48 46 35.035 46 32.909v-7.818c0-2.171-2.766-4.508-4.937-4.508z" fill="#cfe1e5"/><path fill="#71c285" d="M8 36.083h18v12H8z"/><path fill="#4c8056" d="M8 44.083h6v2H8zm0-3h6v2H8zm0-3h6v2H8zm12 6h6v2h-6zm0-3h6v2h-6zm0-3h6v2h-6z"/><path fill="#d1d4d1" d="M14 36.083h6v12h-6z"/><path fill="#71c285" d="M8 17.083h18v12H8z"/><path fill="#4c8056" d="M8 25.083h6v2H8zm0-3h6v2H8zm0-3h6v2H8zm12 6h6v2h-6zm0-3h6v2h-6zm0-3h6v2h-6z"/><path fill="#d1d4d1" d="M14 17.083h6v12h-6z"/><path fill="#b5c3c6" d="M4 29.083h25v2H4z"/></svg>