<svg width="100" height="44" viewBox="0 0 100 44" xmlns="http://www.w3.org/2000/svg"><title>tarino_logo_black</title><g fill-rule="evenodd"><path d="M99.991 9.946h-8.447s-1.176 0-1.975.809c-.799.81-.689 3.013-.689 3.013h-5.104s-.212-3.467 1.731-6.036c1.943-2.57 4.425-2.737 4.425-2.737h10.06v4.95z"/><path d="M99.887 15.445v8.447s-.336 3.351-2.504 5.673c-2.169 2.322-5.99 2.085-5.99 2.085H81.46s-2.7-.209-5.734-1.614c-3.034-1.406-3.034-6.123-3.034-6.123V.014h5.652v22.46s.077 2.443.897 3.012c.82.569 3.93.569 3.93.569h7.868s1.732.03 2.519-.808c.786-.837.75-2.673.75-2.673l-.031-7.13h5.61zm-35.822.087h5.708v15.653s.207 4.68-3.361 8.807c-3.568 4.126-8.324 4.196-8.324 4.196h-5.279v-5.579h3.589s3.443-.335 5.66-2.306c2.217-1.97 2.007-4.485 2.007-4.485V15.532zM34.521 38.64h14.11v5.51H34.575zM23.89 4.992h5.688v5.616h-5.673z"/><path d="M56.982 26.088v5.578h-18.27s-1.642-.03-3.205-.53a9.742 9.742 0 0 1-2.676-1.353s-.974.764-2.023 1.21c-1.048.447-2.288.626-2.288.626h-9.697S19.071 38.15 13.6 41.7.554 44.28.554 44.28v-5.695h5.124s3.303-.119 5.39-2.451c2.085-2.333 1.841-4.476 1.841-4.476s-3.988.357-8.172-1.323C.554 28.656.09 23.646.09 20.413c0-3.234 1.045-5.83 2.787-7.534 1.743-1.704 5.171-1.73 7.133-1.73 1.961 0 4.508.943 6.15 2.701 1.641 1.759 2.363 5.752 2.548 7.21.184 1.457.115 4.974.115 4.974h7.315s2.11.069 2.934-.674c.824-.742.824-2.63.824-2.63v-7.26h5.61v7.201s.045 1.684 1.552 2.549c1.508.864 4.303.808 4.303.808l15.621.06zm-43.903-.017l-3.3-.115s-1.69 0-3.193-1.396c-1.502-1.395-1.206-7.469 1.503-7.787 2.709-.318 3.138.413 3.974 1.304.837.89.97 3.12.97 3.12l.046 4.874z"/></g></svg>