<svg xmlns="http://www.w3.org/2000/svg" width="512" height="512" viewBox="0 0 533.333 533.333"><path d="M138.544 144.103c17.1-17.106 44.792-17.106 61.877-.016l4.076 4.097 52.659-52.685-4.101-4.104c-30.013-30.052-72.143-40.562-110.636-31.522C136.901 25.924 107.478.017 72.016 0 32.615 0 .686 32.001.677 71.437c0 34.029 23.745 62.5 55.553 69.703-12.051 40.338-2.209 85.851 29.607 117.7l118.66 118.698 52.602-52.714-118.651-118.693c-17.022-17.043-17.053-44.857.096-62.028zm394.12-72.666C532.671 31.978 500.726 0 461.317 0c-36.06 0-65.874 26.794-70.667 61.583-40.144-11.804-85.306-1.821-117.001 29.9L154.983 210.18l52.657 52.694 118.628-118.675c17.157-17.17 44.785-17.139 61.813-.096 17.084 17.099 17.084 44.851-.016 61.956l-4.058 4.082 52.608 52.733 4.093-4.129c31.488-31.545 41.499-76.435 30.006-116.478 34.975-4.601 61.95-34.565 61.95-70.83zM472.013 391.18c9.428-38.781-1.029-81.419-31.306-111.719L322.223 160.715l-52.657 52.667 118.5 118.756c17.156 17.186 17.116 44.841.096 61.9-17.083 17.09-44.794 17.09-61.894-.017l-4.045-4.058-52.602 52.732 4.027 4.023c32.04 32.082 77.926 41.896 118.421 29.421 6.579 32.649 35.382 57.191 69.926 57.191 39.378 0 71.338-31.952 71.338-71.419 0-36.039-26.656-65.86-61.32-70.731zM318.929 275.356L200.421 394.102c-17.037 17.068-44.809 17.099-61.95-.064-17.093-17.136-17.1-44.843-.023-61.962l4.066-4.05-52.649-52.668-4.028 4.017C55.233 310 44.921 353.246 54.875 392.385 23.417 399.811 0 428.131 0 461.914c-.008 39.45 31.944 71.419 71.345 71.419 33.906-.016 62.285-23.655 69.552-55.407 38.907 9.663 81.77-.678 112.159-31.123L371.54 328.075l-52.611-52.719z" fill="#ff9f38"/></svg>