<svg xmlns="http://www.w3.org/2000/svg" viewBox="0 0 290.626 290.626"><path d="M84.376 98.438c-36.244 0-65.625 29.381-65.625 65.625 0 20.836 9.741 39.366 24.877 51.384l24.628-43.097a7.145 7.145 0 0 1 6.206-3.6c4.88 0 8.32 4.777 6.778 9.408l-16.209 48.623a65.601 65.601 0 0 0 19.345 2.906c36.244 0 65.625-29.381 65.625-65.625S120.62 98.438 84.376 98.438z" fill="#f9ba48"/><path d="M89.064 257.227c0-9.572-6.853-17.587-16.298-19.059-1.964-.305-4.027-.764-6.159-1.303l14.962-44.878c.952.113 1.889.202 2.808.202 15.511 0 28.125-12.614 28.125-28.125s-12.614-28.125-28.125-28.125-28.126 12.613-28.126 28.124c0 4.777 1.28 9.389 3.6 13.556l-24.525 42.909c-2.934-2.527-5.705-5.152-8.077-7.936l-1.397-1.655H14.064v65.625h55.664c10.659.001 19.336-8.676 19.336-19.335zm-12.268-80.555L54.91 242.325a8.926 8.926 0 0 1-8.48 6.113c-4.927 0-8.93-4.003-8.93-8.93v-1.514c0-1.552.408-3.084 1.177-4.43l33.656-58.889a2.445 2.445 0 0 1 2.128-1.238c1.092 0 1.72.642 1.997 1.022.277.38.681 1.177.338 2.213zm7.58-31.359c10.341 0 18.75 8.409 18.75 18.75 0 10.252-8.273 18.581-18.487 18.722l1.05-3.145a11.84 11.84 0 0 0-1.627-10.664 11.867 11.867 0 0 0-9.6-4.912 11.85 11.85 0 0 0-8.447 3.567c-.23-1.172-.389-2.358-.389-3.567 0-10.342 8.409-18.751 18.75-18.751zm-60.937 77.02c2.194 2.273 4.617 4.42 7.139 6.506l-.042.07a18.386 18.386 0 0 0-2.409 9.08v1.514c0 10.097 8.212 18.309 18.305 18.309 7.725 0 14.545-4.838 17.175-12.061 2.667.698 5.25 1.298 7.72 1.678 4.847.755 8.362 4.875 8.362 9.797 0 5.494-4.467 9.961-9.961 9.961H23.439v-44.854zM206.251 46.875c31.341 0 84.375-4.936 84.375-23.438S237.592 0 206.251 0s-84.375 4.936-84.375 23.438 53.034 23.437 84.375 23.437zm0-37.5c46.833 0 74.114 9.305 75 14.039-.886 4.781-28.167 14.086-75 14.086-46.758 0-74.025-9.277-74.995-14.063.97-4.785 28.237-14.062 74.995-14.062z" fill="#333"/><path d="M281.25 74.977c-.886 4.781-28.167 14.086-75 14.086-13.144 0-25.964-.82-37.5-2.311v-7.064h-30.469c-5.344-2.297-6.923-4.214-7.031-4.688V46.875h-9.375V75c0 1.753.539 3.291 1.322 4.688H.001v210.938h150c10.341 0 18.75-8.409 18.75-18.75v-72.553c11.606 1.444 24.398 2.241 37.5 2.241 31.341 0 84.375-4.936 84.375-23.438V150h-9.375v28.102c-.886 4.781-28.167 14.086-75 14.086-13.162 0-25.983-.825-37.5-2.311v-42.113c11.62 1.439 24.412 2.236 37.5 2.236 31.341 0 84.375-4.936 84.375-23.438V98.438h-9.375v28.102c-.886 4.781-28.167 14.086-75 14.086-13.144 0-25.964-.82-37.5-2.311V96.197c11.62 1.444 24.412 2.241 37.5 2.241 31.341 0 84.375-4.936 84.375-23.438V46.875h-9.375v28.102zM159.376 271.875c0 5.17-4.205 9.375-9.375 9.375H9.376V89.063h150v182.812z" fill="#333"/><path d="M225.001 243.75c0 7.753-6.309 14.063-14.063 14.063H191.09l9.802-16.336-8.039-4.823-15.505 25.846 15.511 25.852 8.039-4.823-9.806-16.341h19.847c12.923 0 23.437-10.514 23.437-23.438v-32.813h-9.375v32.813zM65.626 46.875c0-7.753 6.309-14.063 14.062-14.063h19.847l-9.802 16.336 8.039 4.823 15.506-25.847-15.51-25.851-8.039 4.823 9.806 16.341H79.689c-12.923 0-23.437 10.514-23.437 23.438v23.438h9.375V46.875h-.001z" fill="#333"/></svg>