<?xml version="1.0" encoding="UTF-8"?>
<svg width="100px" height="100px" viewBox="0 0 100 100" version="1.1" xmlns="http://www.w3.org/2000/svg" xmlns:xlink="http://www.w3.org/1999/xlink">
    <!-- Generator: Sketch 39.1 (31720) - http://www.bohemiancoding.com/sketch -->
    <title>Artboard</title>
    <desc>Created with Sketch.</desc>
    <defs>
        <filter x="-50%" y="-50%" width="200%" height="200%" filterUnits="objectBoundingBox" id="filter-1">
            <feOffset dx="0" dy="3" in="SourceAlpha" result="shadowOffsetOuter1"></feOffset>
            <feGaussianBlur stdDeviation="2" in="shadowOffsetOuter1" result="shadowBlurOuter1"></feGaussianBlur>
            <feColorMatrix values="0 0 0 0 0   0 0 0 0 0   0 0 0 0 0  0 0 0 0.102836277 0" type="matrix" in="shadowBlurOuter1" result="shadowMatrixOuter1"></feColorMatrix>
            <feMerge>
                <feMergeNode in="shadowMatrixOuter1"></feMergeNode>
                <feMergeNode in="SourceGraphic"></feMergeNode>
            </feMerge>
        </filter>
    </defs>
    <g id="Page-1" stroke="none" stroke-width="1" fill="none" fill-rule="evenodd">
        <g id="Artboard">
            <g id="credit-card-(1)" transform="translate(44.350692, 66.041409) rotate(-18.000000) translate(-44.350692, -66.041409) translate(9.850692, 41.541409)">
                <g id="Capa_1" transform="translate(0.755283, 0.545085)">
                    <g id="XMLID_10_" transform="translate(0.000000, 0.000000)">
                        <path d="M64.1855032,47.5371438 L3.7691394,47.5371438 C1.68714975,47.5371438 2.22044605e-16,45.9072988 2.22044605e-16,43.8960249 L2.22044605e-16,3.64111884 C2.22044605e-16,1.62984493 1.68714975,0 3.7691394,0 L64.1855032,0 C66.2674928,0 67.9546426,1.62984493 67.9546426,3.64111884 L67.9546426,43.8960249 C67.9546426,45.9072988 66.2674928,47.5371438 64.1855032,47.5371438" id="XMLID_121_" fill="#D1D4D2"></path>
                        <rect id="XMLID_120_" fill="#A5A5A4" x="6.09118381e-15" y="5.65918378" width="67.9546426" height="9.05469405"></rect>
                        <path d="M17.5744765,22.6367351 L8.20142238,22.6367351 C7.55468165,22.6367351 7.02979061,22.1296723 7.02979061,21.5048984 C7.02979061,20.8801245 7.55468165,20.3730616 8.20142238,20.3730616 L17.5744765,20.3730616 C18.2212173,20.3730616 18.7461083,20.8801245 18.7461083,21.5048984 C18.7461083,22.1296723 18.2212173,22.6367351 17.5744765,22.6367351" id="XMLID_119_" fill="#FFFFFF"></path>
                        <path d="M31.6340578,22.6367351 L22.2610036,22.6367351 C21.6142629,22.6367351 21.0893718,22.1296723 21.0893718,21.5048984 C21.0893718,20.8801245 21.6142629,20.3730616 22.2610036,20.3730616 L31.6340578,20.3730616 C32.2807985,20.3730616 32.8056895,20.8801245 32.8056895,21.5048984 C32.8056895,22.1296723 32.2807985,22.6367351 31.6340578,22.6367351" id="XMLID_118_" fill="#FFFFFF"></path>
                        <path d="M9.37305415,28.2959189 L8.20142238,28.2959189 C7.55468165,28.2959189 7.02979061,27.788856 7.02979061,27.1640821 C7.02979061,26.5393083 7.55468165,26.0322454 8.20142238,26.0322454 L9.37305415,26.0322454 C10.0197949,26.0322454 10.5446859,26.5393083 10.5446859,27.1640821 C10.5446859,27.788856 10.0197949,28.2959189 9.37305415,28.2959189" id="XMLID_117_" fill="#FFFFFF"></path>
                        <path d="M16.4028448,28.2959189 L14.0595812,28.2959189 C13.4128405,28.2959189 12.8879495,27.788856 12.8879495,27.1640821 C12.8879495,26.5393083 13.4128405,26.0322454 14.0595812,26.0322454 L16.4028448,26.0322454 C17.0495855,26.0322454 17.5744765,26.5393083 17.5744765,27.1640821 C17.5744765,27.788856 17.0495855,28.2959189 16.4028448,28.2959189" id="XMLID_116_" fill="#FFFFFF"></path>
                        <path d="M22.2610036,28.2959189 L21.0893718,28.2959189 C20.4426311,28.2959189 19.9177401,27.788856 19.9177401,27.1640821 C19.9177401,26.5393083 20.4426311,26.0322454 21.0893718,26.0322454 L22.2610036,26.0322454 C22.9077443,26.0322454 23.4326354,26.5393083 23.4326354,27.1640821 C23.4326354,27.788856 22.9077443,28.2959189 22.2610036,28.2959189" id="XMLID_115_" fill="#FFFFFF"></path>
                        <path d="M29.2907942,28.2959189 L26.9475307,28.2959189 C26.3007899,28.2959189 25.7758989,27.788856 25.7758989,27.1640821 C25.7758989,26.5393083 26.3007899,26.0322454 26.9475307,26.0322454 L29.2907942,26.0322454 C29.937535,26.0322454 30.462426,26.5393083 30.462426,27.1640821 C30.462426,27.788856 29.937535,28.2959189 29.2907942,28.2959189" id="XMLID_114_" fill="#FFFFFF"></path>
                        <path d="M33.9773213,28.2959189 C33.672697,28.2959189 33.3680728,28.1714169 33.1454627,27.9676862 C32.934569,27.7526373 32.8056895,27.4696781 32.8056895,27.1640821 C32.8056895,26.8698046 32.934569,26.575527 33.1454627,26.360478 C33.5789665,25.9416984 34.3756761,25.9416984 34.8091799,26.360478 C35.0200736,26.575527 35.1489531,26.8698046 35.1489531,27.1640821 C35.1489531,27.4583597 35.0200736,27.7526373 34.8091799,27.9676862 C34.5865698,28.1714169 34.2819456,28.2959189 33.9773213,28.2959189" id="XMLID_113_" fill="#FFFFFF"></path>
                        <path d="M55.0666931,28.2959189 L53.8950614,28.2959189 C53.2483206,28.2959189 52.7234296,27.788856 52.7234296,27.1640821 C52.7234296,26.5393083 53.2483206,26.0322454 53.8950614,26.0322454 L55.0666931,26.0322454 C55.7134339,26.0322454 56.2383249,26.5393083 56.2383249,27.1640821 C56.2383249,27.788856 55.7134339,28.2959189 55.0666931,28.2959189" id="XMLID_112_" fill="#FFFFFF"></path>
                        <path d="M59.7532202,28.2959189 C59.448596,28.2959189 59.1439717,28.1714169 58.9213617,27.9676862 C58.7104679,27.7526373 58.5815884,27.4583597 58.5815884,27.1640821 C58.5815884,26.8698046 58.7104679,26.575527 58.9213617,26.360478 C59.3548654,25.9416984 60.151575,25.9416984 60.5850788,26.360478 C60.7959725,26.575527 60.924852,26.8698046 60.924852,27.1640821 C60.924852,27.4583597 60.7959725,27.7526373 60.5850788,27.9676862 C60.3624687,28.1714169 60.0578445,28.2959189 59.7532202,28.2959189" id="XMLID_111_" fill="#FFFFFF"></path>
                        <path d="M45.693639,22.6367351 L36.3205848,22.6367351 C35.6738441,22.6367351 35.1489531,22.1296723 35.1489531,21.5048984 C35.1489531,20.8801245 35.6738441,20.3730616 36.3205848,20.3730616 L45.693639,20.3730616 C46.3403797,20.3730616 46.8652708,20.8801245 46.8652708,21.5048984 C46.8652708,22.1296723 46.3403797,22.6367351 45.693639,22.6367351" id="XMLID_110_" fill="#FFFFFF"></path>
                        <path d="M59.7532202,22.6367351 L50.3801661,22.6367351 C49.7334253,22.6367351 49.2085343,22.1296723 49.2085343,21.5048984 C49.2085343,20.8801245 49.7334253,20.3730616 50.3801661,20.3730616 L59.7532202,20.3730616 C60.3999609,20.3730616 60.924852,20.8801245 60.924852,21.5048984 C60.924852,22.1296723 60.3999609,22.6367351 59.7532202,22.6367351" id="XMLID_109_" fill="#FFFFFF"></path>
                        <path d="M44.5220072,28.2959189 L38.6638484,28.2959189 C38.0171076,28.2959189 37.4922166,27.788856 37.4922166,27.1640821 C37.4922166,26.5393083 38.0171076,26.0322454 38.6638484,26.0322454 L44.5220072,26.0322454 C45.168748,26.0322454 45.693639,26.5393083 45.693639,27.1640821 C45.693639,27.788856 45.168748,28.2959189 44.5220072,28.2959189" id="XMLID_108_" fill="#FFFFFF"></path>
                        <path d="M49.2085343,28.2959189 C48.90391,28.2959189 48.5992858,28.1714169 48.3766757,27.9676862 C48.165782,27.7526373 48.0369025,27.4583597 48.0369025,27.1640821 C48.0369025,26.8698046 48.165782,26.575527 48.3766757,26.360478 C48.8101795,25.9416984 49.6068891,25.9416984 50.0403928,26.360478 C50.2512866,26.575527 50.3801661,26.8698046 50.3801661,27.1640821 C50.3801661,27.4583597 50.2512866,27.7526373 50.0403928,27.9676862 C49.8177828,28.1714169 49.5131586,28.2959189 49.2085343,28.2959189" id="XMLID_107_" fill="#FFFFFF"></path>
                        <path d="M43.0000575,32.1441639 C39.6691084,33.8181504 39.2016274,37.4785105 39.0879791,40.7461232 L41.0879545,39.9459146 C39.9924788,39.0585546 38.8970031,38.1711946 37.8003558,37.2849664 C36.6533283,36.3557284 34.9860963,37.9482228 36.1436684,38.8853836 C37.2391441,39.7727436 38.3357915,40.6589718 39.4312672,41.5463318 C40.2022009,42.1699739 41.3960937,41.7760947 41.4312426,40.7461232 C41.5167717,38.2945648 41.6362782,35.3789533 44.182234,34.0988459 C45.5214091,33.4265349 44.3368894,31.4718528 43.0000575,32.1441639" id="XMLID_106_" fill="#4482C4"></path>
                        <path d="M44.1716893,37.4411599 C46.6368026,40.0296706 49.8962821,38.8231326 52.5840054,37.2295064 C52.0497413,37.093686 51.5154772,36.9589974 50.9812132,36.823177 C51.6150659,37.9153995 52.5160508,38.7076852 53.8212486,38.9623485 C54.7503526,39.1434424 58.5370664,37.6720546 58.742102,37.9425636 C59.6219975,39.1072236 61.6571218,37.9787823 60.7655101,36.8005403 C60.1609481,36.0003317 59.6020797,35.5736292 58.5300366,35.5079827 C56.8217975,35.4038537 54.3203637,37.9470909 53.0034496,35.6811537 C52.6988253,35.1559815 51.9337498,34.9590419 51.4006573,35.2748243 C49.7416267,36.2583905 47.574108,37.6731864 45.8283766,35.8407427 C44.8055421,34.7666296 43.151198,36.3704423 44.1716893,37.4411599" id="XMLID_105_" fill="#4482C4"></path>
                    </g>
                </g>
            </g>
            <g id="credit-card-(2)" filter="url(#filter-1)" transform="translate(55.144917, 37.232048) rotate(12.000000) translate(-55.144917, -37.232048) translate(16.739763, 10.398503)">
                <g id="Capa_1" transform="translate(-0.000000, 0.000000)">
                    <g id="XMLID_9_" transform="translate(0.000000, 0.000000)">
                        <path d="M71.8846669,53.447628 L4.22125429,53.447628 C1.88952632,53.447628 0,51.6151379 0,49.3537942 L0,4.09383379 C0,1.8324901 1.88952632,3.10862447e-15 4.22125429,3.10862447e-15 L71.8846669,3.10862447e-15 C74.2163949,3.10862447e-15 76.1059212,1.8324901 76.1059212,4.09383379 L76.1059212,49.3537942 C76.1059212,51.6151379 74.2163949,53.447628 71.8846669,53.447628" id="XMLID_114_" fill="#8798CC"></path>
                        <rect id="XMLID_113_" fill="#556180" x="-7.79671527e-15" y="6.36281286" width="76.1059212" height="10.1805006"></rect>
                        <path d="M19.6825658,22.9061263 L7.87302633,22.9061263 C7.14739574,22.9061263 6.56085528,23.4762343 6.56085528,24.1786889 C6.56085528,24.8811434 7.14739574,25.4512514 7.87302633,25.4512514 L19.6825658,25.4512514 C20.4081964,25.4512514 20.9947369,24.8811434 20.9947369,24.1786889 C20.9947369,23.4762343 20.4081964,22.9061263 19.6825658,22.9061263" id="XMLID_112_" fill="#B0D3F0"></path>
                        <path d="M38.0529606,24.1786889 C38.0529606,23.4762343 37.4664201,22.9061263 36.7407895,22.9061263 L24.9312501,22.9061263 C24.2056195,22.9061263 23.619079,23.4762343 23.619079,24.1786889 C23.619079,24.8811434 24.2056195,25.4512514 24.9312501,25.4512514 L36.7407895,25.4512514 C37.4664201,25.4512514 38.0529606,24.8811434 38.0529606,24.1786889" id="XMLID_111_" fill="#B0D3F0"></path>
                        <path d="M9.18519739,29.2689391 L7.87302633,29.2689391 C7.14739574,29.2689391 6.56085528,29.8390472 6.56085528,30.5415017 C6.56085528,31.2439563 7.14739574,31.8140643 7.87302633,31.8140643 L9.18519739,31.8140643 C9.91082798,31.8140643 10.4973684,31.2439563 10.4973684,30.5415017 C10.4973684,29.8390472 9.91082798,29.2689391 9.18519739,29.2689391" id="XMLID_110_" fill="#B0D3F0"></path>
                        <path d="M17.0582237,29.2689391 L14.4338816,29.2689391 C13.708251,29.2689391 13.1217106,29.8390472 13.1217106,30.5415017 C13.1217106,31.2439563 13.708251,31.8140643 14.4338816,31.8140643 L17.0582237,31.8140643 C17.7838543,31.8140643 18.3703948,31.2439563 18.3703948,30.5415017 C18.3703948,29.8390472 17.7838543,29.2689391 17.0582237,29.2689391" id="XMLID_109_" fill="#B0D3F0"></path>
                        <path d="M23.619079,29.2689391 L22.3069079,29.2689391 C21.5812773,29.2689391 20.9947369,29.8390472 20.9947369,30.5415017 C20.9947369,31.2439563 21.5812773,31.8140643 22.3069079,31.8140643 L23.619079,31.8140643 C24.3447096,31.8140643 24.9312501,31.2439563 24.9312501,30.5415017 C24.9312501,29.8390472 24.3447096,29.2689391 23.619079,29.2689391" id="XMLID_108_" fill="#B0D3F0"></path>
                        <path d="M31.4921053,29.2689391 L28.8677632,29.2689391 C28.1421326,29.2689391 27.5555922,29.8390472 27.5555922,30.5415017 C27.5555922,31.2439563 28.1421326,31.8140643 28.8677632,31.8140643 L31.4921053,31.8140643 C32.2177359,31.8140643 32.8042764,31.2439563 32.8042764,30.5415017 C32.8042764,29.8390472 32.2177359,29.2689391 31.4921053,29.2689391" id="XMLID_107_" fill="#B0D3F0"></path>
                        <path d="M35.8091481,29.6379823 C35.5716451,29.8797692 35.4286185,30.2106354 35.4286185,30.5415017 C35.4286185,30.872368 35.5716451,31.2032342 35.8091481,31.4450211 C36.0558363,31.6740824 36.383879,31.8140643 36.7407895,31.8140643 C37.081954,31.8140643 37.4218063,31.6740824 37.672431,31.4450211 C37.9086218,31.2032342 38.0529606,30.872368 38.0529606,30.5415017 C38.0529606,30.2106354 37.9086218,29.8797692 37.672431,29.6379823 C37.1869277,29.1671341 36.2946514,29.1671341 35.8091481,29.6379823" id="XMLID_106_" fill="#B0D3F0"></path>
                        <rect id="XMLID_105_" fill="#91BAE1" x="47.238158" y="33.0866269" width="20.9947369" height="12.7256257"></rect>
                    </g>
                </g>
            </g>
        </g>
    </g>
</svg>