<svg xmlns="http://www.w3.org/2000/svg" viewBox="0 0 66.381 66.381"><path d="M66.381 35.351c0 16.616-13.472 30.085-30.09 30.085S6.202 51.967 6.202 35.351 19.673 5.265 36.291 5.265s30.09 13.47 30.09 30.086z" fill="#edc951"/><path d="M54.298 28.253a6.18 6.18 0 0 1-6.18 6.178 6.18 6.18 0 1 1 0-12.358 6.18 6.18 0 0 1 6.18 6.18zm-23.371 0a6.18 6.18 0 0 1-6.18 6.178 6.18 6.18 0 1 1 0-12.358 6.18 6.18 0 0 1 6.18 6.18z" fill="#fff"/><path d="M44.357 33.111c-4.235 0-7.68-3.445-7.68-7.679s3.445-7.679 7.68-7.679c4.234 0 7.68 3.445 7.68 7.679s-3.446 7.679-7.68 7.679zm0-12.359a4.685 4.685 0 0 0-4.68 4.68 4.685 4.685 0 0 0 4.68 4.679 4.685 4.685 0 0 0 4.68-4.679 4.685 4.685 0 0 0-4.68-4.68zM20.986 33.111c-4.235 0-7.681-3.445-7.681-7.679s3.446-7.679 7.681-7.679c4.234 0 7.68 3.445 7.68 7.679s-3.446 7.679-7.68 7.679zm0-12.359a4.686 4.686 0 0 0-4.681 4.68c0 2.58 2.1 4.679 4.681 4.679 2.58 0 4.68-2.099 4.68-4.679 0-2.581-2.1-4.68-4.68-4.68zm3.787 30.527a1.5 1.5 0 0 1-1.408-2.018c1.642-4.455 4.298-7.458 7.897-8.928 6.281-2.564 13.049.579 13.335.714a1.5 1.5 0 0 1-1.282 2.712c-.097-.045-5.91-2.706-10.935-.642-2.779 1.14-4.864 3.557-6.2 7.181a1.5 1.5 0 0 1-1.407.981z"/><path d="M47.112 25.06a3.128 3.128 0 1 1-6.255-.001 3.128 3.128 0 0 1 6.255.001zm-23.372 0a3.128 3.128 0 1 1-6.255-.001 3.128 3.128 0 0 1 6.255.001z"/><path d="M31.59 64.117C14.172 64.117 0 49.947 0 32.53 0 15.114 14.172.944 31.59.944s31.589 14.17 31.589 31.586c0 17.417-14.171 31.587-31.589 31.587zm0-60.173C15.825 3.944 3 16.768 3 32.53c0 15.763 12.825 28.586 28.59 28.586 15.764 0 28.589-12.823 28.589-28.586 0-15.762-12.825-28.586-28.589-28.586z"/></svg>