<svg width="64" height="64" viewBox="0 0 64 64" xmlns="http://www.w3.org/2000/svg"><title>Artboard Copy</title><defs><linearGradient x1="50%" y1="0%" x2="50%" y2="100%" id="a"><stop stop-color="#7ECFFF" offset="0%"/><stop stop-color="#7A93FF" offset="100%"/></linearGradient><filter x="-50%" y="-50%" width="200%" height="200%" filterUnits="objectBoundingBox" id="b"><feOffset dy="2" in="SourceAlpha" result="shadowOffsetOuter1"/><feGaussianBlur stdDeviation="3.5" in="shadowOffsetOuter1" result="shadowBlurOuter1"/><feColorMatrix values="0 0 0 0 0 0 0 0 0 0 0 0 0 0 0 0 0 0 0.110592165 0" in="shadowBlurOuter1" result="shadowMatrixOuter1"/><feMerge><feMergeNode in="shadowMatrixOuter1"/><feMergeNode in="SourceGraphic"/></feMerge></filter></defs><g fill="none" fill-rule="evenodd"><path fill="url(#a)" d="M0 0h64v64H0z"/><path d="M19.008 19.606c4.684 0 8.482-4.37 8.482-9.761 0-7.476-3.798-9.762-8.482-9.762-4.685 0-8.482 2.286-8.482 9.762 0 5.391 3.797 9.761 8.482 9.761zm18.73 14.368l-4.28-9.478a2.127 2.127 0 0 0-.967-1.013l-6.641-3.399a.434.434 0 0 0-.456.038c-1.878 1.397-4.087 2.135-6.386 2.135-2.3 0-4.509-.738-6.387-2.135a.435.435 0 0 0-.456-.038l-6.64 3.4a2.117 2.117 0 0 0-.968 1.012l-4.28 9.478a2.066 2.066 0 0 0 .162 2 2.14 2.14 0 0 0 1.794.958h33.55c.726 0 1.397-.358 1.793-.957.396-.6.457-1.348.162-2z" filter="url(#b)" transform="translate(13 12)" fill="#FFF"/></g></svg>