<?xml version="1.0" encoding="UTF-8"?>
<svg width="64px" height="64px" viewBox="0 0 64 64" version="1.1" xmlns="http://www.w3.org/2000/svg" xmlns:xlink="http://www.w3.org/1999/xlink">
    <!-- Generator: Sketch 41 (35326) - http://www.bohemiancoding.com/sketch -->
    <title>Artboard Copy</title>
    <desc>Created with Sketch.</desc>
    <defs>
        <linearGradient x1="50%" y1="0%" x2="50%" y2="100%" id="linearGradient-1">
            <stop stop-color="#7ECFFF" offset="0%"></stop>
            <stop stop-color="#7A93FF" offset="100%"></stop>
        </linearGradient>
        <filter x="-50%" y="-50%" width="200%" height="200%" filterUnits="objectBoundingBox" id="filter-2">
            <feOffset dx="0" dy="2" in="SourceAlpha" result="shadowOffsetOuter1"></feOffset>
            <feGaussianBlur stdDeviation="3.5" in="shadowOffsetOuter1" result="shadowBlurOuter1"></feGaussianBlur>
            <feColorMatrix values="0 0 0 0 0   0 0 0 0 0   0 0 0 0 0  0 0 0 0.110592165 0" type="matrix" in="shadowBlurOuter1" result="shadowMatrixOuter1"></feColorMatrix>
            <feMerge>
                <feMergeNode in="shadowMatrixOuter1"></feMergeNode>
                <feMergeNode in="SourceGraphic"></feMergeNode>
            </feMerge>
        </filter>
    </defs>
    <g id="Page-1" stroke="none" stroke-width="1" fill="none" fill-rule="evenodd">
        <g id="Artboard-Copy">
            <rect id="Rectangle" fill="url(#linearGradient-1)" x="0" y="0" width="64" height="64"></rect>
            <g id="user-silhouette" filter="url(#filter-2)" transform="translate(13.000000, 12.000000)" fill="#FFFFFF">
                <g id="Capa_1">
                    <g id="Group">
                        <path d="M19.007674,19.6064545 C23.6919367,19.6064545 27.4897178,15.236 27.4897178,9.84481818 C27.4897178,2.36872727 23.6921217,0.0832727273 19.007674,0.0832727273 C14.3230414,0.0832727273 10.5256302,2.36872727 10.5256302,9.84481818 C10.5257226,15.236 14.3231338,19.6064545 19.007674,19.6064545 Z" id="Shape"></path>
                        <path d="M37.7377908,33.9742727 L33.4584915,24.4958182 C33.2627591,24.0620909 32.91891,23.7023636 32.4909246,23.4832727 L25.849708,20.084 C25.7032555,20.0091818 25.5259221,20.0237273 25.3942628,20.1217273 C23.5158978,21.5186364 21.3073674,22.257 19.007674,22.257 C16.7076107,22.257 14.4992652,21.5186364 12.6209002,20.1217273 C12.488871,20.0237273 12.3115377,20.0091818 12.1650852,20.084 L5.5243309,23.4832727 C5.09616058,23.7023636 4.75268127,24.0619091 4.55676399,24.4958182 L0.27746472,33.9742727 C-0.01756691,34.6277273 0.0429002433,35.3753636 0.439265207,35.9747273 C0.835445255,36.574 1.50594647,36.9316364 2.23293917,36.9316364 L35.7821314,36.9316364 C36.5091241,36.9316364 37.1798102,36.5738182 37.5759903,35.9746364 C37.9721703,35.3753636 38.0328224,34.6274545 37.7377908,33.9742727 Z" id="Shape"></path>
                    </g>
                </g>
            </g>
        </g>
    </g>
</svg>