<?xml version="1.0" encoding="UTF-8" standalone="no"?>
<svg width="100px" height="66px" viewBox="0 0 100 66" version="1.1" xmlns="http://www.w3.org/2000/svg" xmlns:xlink="http://www.w3.org/1999/xlink">
    <!-- Generator: Sketch 39.1 (31720) - http://www.bohemiancoding.com/sketch -->
    <title>iran</title>
    <desc>Created with Sketch.</desc>
    <defs></defs>
    <g id="Page-1" stroke="none" stroke-width="1" fill="none" fill-rule="evenodd">
        <g id="iran">
            <path d="M99.8050682,21.8506823 L0,21.8506823 L0,1.77504873 C0,0.824756335 0.770565302,0.0541910331 1.7208577,0.0541910331 L98.0844055,0.0541910331 C99.0346979,0.0541910331 99.8052632,0.824756335 99.8052632,1.77504873 L99.8052632,21.8506823 L99.8050682,21.8506823 Z" id="Shape" fill="#73AF00"></path>
            <path d="M98.0842105,65.4438596 L1.7208577,65.4438596 C0.770565302,65.4438596 0,64.6732943 0,63.7230019 L0,43.6473684 L99.8050682,43.6473684 L99.8050682,63.7230019 C99.8050682,64.6732943 99.0345029,65.4438596 98.0842105,65.4438596 L98.0842105,65.4438596 Z" id="Shape" fill="#FF4B55"></path>
            <g id="Group" transform="translate(0.000000, 17.738791)" fill="#F5F5F5">
                <rect id="Rectangle-path" x="0" y="4.11130604" width="99.8050682" height="21.7957115"></rect>
                <path d="M0.270760234,2.95867446 L0.285769981,2.95867446 C0.435282651,2.95867446 0.556530214,2.83762183 0.556530214,2.68791423 L0.556530214,2.10155945 C0.556530214,1.95204678 0.677582846,1.83079922 0.827290448,1.83079922 L1.96315789,1.83079922 C2.11267057,1.83079922 2.23391813,1.95185185 2.23391813,2.10155945 L2.23391813,2.68791423 C2.23391813,2.8374269 2.35497076,2.95867446 2.50467836,2.95867446 L4.74678363,2.95867446 C4.8962963,2.95867446 5.01754386,2.83762183 5.01754386,2.68791423 L5.01754386,1.53040936 C5.01754386,1.38089669 4.89649123,1.25964912 4.74678363,1.25964912 L3.61812865,1.25964912 C3.46861598,1.25964912 3.34736842,1.38070175 3.34736842,1.53040936 L3.34736842,1.56003899 C3.34736842,1.70955166 3.46842105,1.83079922 3.61812865,1.83079922 L4.19025341,1.83079922 C4.33976608,1.83079922 4.46101365,1.95185185 4.46101365,2.10155945 L4.46101365,2.13099415 C4.46101365,2.28050682 4.33996101,2.40175439 4.19025341,2.40175439 L3.06120858,2.40175439 C2.91169591,2.40175439 2.79044834,2.28070175 2.79044834,2.13099415 L2.79044834,1.53040936 C2.79044834,1.38089669 2.66939571,1.25964912 2.51968811,1.25964912 L0.270760234,1.25964912 C0.121247563,1.25964912 0,1.38070175 0,1.53040936 L0,2.68791423 C0,2.83723197 0.121052632,2.95867446 0.270760234,2.95867446 L0.270760234,2.95867446 Z M1.39122807,2.95867446 L1.40662768,2.95867446 C1.55614035,2.95867446 1.67738791,2.83762183 1.67738791,2.68791423 L1.67738791,2.67251462 C1.67738791,2.52300195 1.55633528,2.40175439 1.40662768,2.40175439 L1.39122807,2.40175439 C1.2417154,2.40175439 1.12046784,2.52280702 1.12046784,2.67251462 L1.12046784,2.68791423 C1.12046784,2.83723197 1.2417154,2.95867446 1.39122807,2.95867446 L1.39122807,2.95867446 Z M0.270760234,0.688693957 L6.98089669,0.688693957 C7.13040936,0.688693957 7.25165692,0.567641326 7.25165692,0.417933723 L7.25165692,0.388304094 C7.25165692,0.238791423 7.13060429,0.11754386 6.98089669,0.11754386 L0.270760234,0.11754386 C0.121247563,0.11754386 0,0.238596491 0,0.388304094 L0,0.417933723 C0,0.567641326 0.121052632,0.688693957 0.270760234,0.688693957 L0.270760234,0.688693957 Z M6.98070175,2.95867446 L5.85204678,2.95867446 C5.70253411,2.95867446 5.58128655,2.83762183 5.58128655,2.68791423 L5.58128655,1.53040936 C5.58128655,1.38089669 5.70233918,1.25964912 5.85204678,1.25964912 L7.53781676,1.25964912 C7.68732943,1.25964912 7.808577,1.13859649 7.808577,0.988888889 L7.808577,0.388304094 C7.808577,0.238791423 7.92962963,0.11754386 8.07933723,0.11754386 L8.09434698,0.11754386 C8.24385965,0.11754386 8.36510721,0.238596491 8.36510721,0.388304094 L8.36510721,2.13099415 C8.36510721,2.28050682 8.48615984,2.40175439 8.63586745,2.40175439 L8.65126706,2.40175439 C8.80077973,2.40175439 8.92202729,2.28070175 8.92202729,2.13099415 L8.92202729,0.388304094 C8.92202729,0.238791423 9.04307992,0.11754386 9.19278752,0.11754386 L9.20779727,0.11754386 C9.35730994,0.11754386 9.4785575,0.238596491 9.4785575,0.388304094 L9.4785575,2.13099415 C9.4785575,2.28050682 9.59961014,2.40175439 9.74931774,2.40175439 L9.77173489,2.40175439 C9.92124756,2.40175439 10.0424951,2.28070175 10.0424951,2.13099415 L10.0424951,0.388304094 C10.0424951,0.238791423 10.1635478,0.11754386 10.3132554,0.11754386 L10.3214425,0.11754386 C10.4709552,0.11754386 10.5922027,0.238596491 10.5922027,0.388304094 L10.5922027,2.68791423 C10.5922027,2.8374269 10.4711501,2.95867446 10.3214425,2.95867446 L8.07933723,2.95867446 C7.92982456,2.95867446 7.808577,2.83762183 7.808577,2.68791423 L7.808577,2.10155945 C7.808577,1.95204678 7.68752437,1.83079922 7.53781676,1.83079922 L6.40916179,1.83079922 C6.25964912,1.83079922 6.13840156,1.95185185 6.13840156,2.10155945 L6.13840156,2.13099415 C6.13840156,2.28050682 6.25945419,2.40175439 6.40916179,2.40175439 L6.98089669,2.40175439 C7.13040936,2.40175439 7.25165692,2.52280702 7.25165692,2.67251462 L7.25165692,2.68791423 C7.25165692,2.83723197 7.13021442,2.95867446 6.98070175,2.95867446 L6.98070175,2.95867446 Z" id="Shape"></path>
                <path d="M11.4265107,2.95867446 L11.4489279,2.95867446 C11.5984405,2.95867446 11.7196881,2.83762183 11.7196881,2.68791423 L11.7196881,2.10155945 C11.7196881,1.95204678 11.8407407,1.83079922 11.9904483,1.83079922 L13.1120858,1.83079922 C13.2615984,1.83079922 13.382846,1.95185185 13.382846,2.10155945 L13.382846,2.68791423 C13.382846,2.8374269 13.5038986,2.95867446 13.6536062,2.95867446 L15.8957115,2.95867446 C16.0452242,2.95867446 16.1664717,2.83762183 16.1664717,2.68791423 L16.1664717,1.53040936 C16.1664717,1.38089669 16.0454191,1.25964912 15.8957115,1.25964912 L14.7670565,1.25964912 C14.6175439,1.25964912 14.4962963,1.38070175 14.4962963,1.53040936 L14.4962963,1.56003899 C14.4962963,1.70955166 14.6173489,1.83079922 14.7670565,1.83079922 L15.3391813,1.83079922 C15.488694,1.83079922 15.6099415,1.95185185 15.6099415,2.10155945 L15.6099415,2.13099415 C15.6099415,2.28050682 15.4888889,2.40175439 15.3391813,2.40175439 L14.2105263,2.40175439 C14.0610136,2.40175439 13.9397661,2.28070175 13.9397661,2.13099415 L13.9397661,1.53040936 C13.9397661,1.38089669 13.8187135,1.25964912 13.6690058,1.25964912 L11.4265107,1.25964912 C11.2769981,1.25964912 11.1557505,1.38070175 11.1557505,1.53040936 L11.1557505,2.68791423 C11.1559454,2.83723197 11.277193,2.95867446 11.4265107,2.95867446 L11.4265107,2.95867446 Z M12.5401559,2.95867446 L12.5551657,2.95867446 C12.7046784,2.95867446 12.8259259,2.83762183 12.8259259,2.68791423 L12.8259259,2.67251462 C12.8259259,2.52300195 12.7048733,2.40175439 12.5551657,2.40175439 L12.5401559,2.40175439 C12.3906433,2.40175439 12.2693957,2.52280702 12.2693957,2.67251462 L12.2693957,2.68791423 C12.2695906,2.83723197 12.3906433,2.95867446 12.5401559,2.95867446 L12.5401559,2.95867446 Z M11.4265107,0.688693957 L18.1298246,0.688693957 C18.2793372,0.688693957 18.4005848,0.567641326 18.4005848,0.417933723 L18.4005848,0.388304094 C18.4005848,0.238791423 18.2795322,0.11754386 18.1298246,0.11754386 L11.4265107,0.11754386 C11.2769981,0.11754386 11.1557505,0.238596491 11.1557505,0.388304094 L11.1557505,0.417933723 C11.1559454,0.567641326 11.277193,0.688693957 11.4265107,0.688693957 L11.4265107,0.688693957 Z M18.1298246,2.95867446 L16.9939571,2.95867446 C16.8444444,2.95867446 16.7231969,2.83762183 16.7231969,2.68791423 L16.7231969,1.53040936 C16.7231969,1.38089669 16.8442495,1.25964912 16.9939571,1.25964912 L18.6797271,1.25964912 C18.8292398,1.25964912 18.9504873,1.13859649 18.9504873,0.988888889 L18.9504873,0.388304094 C18.9504873,0.238791423 19.07154,0.11754386 19.2212476,0.11754386 L19.2436647,0.11754386 C19.3931774,0.11754386 19.514425,0.238596491 19.514425,0.388304094 L19.514425,2.13099415 C19.514425,2.28050682 19.6354776,2.40175439 19.7851852,2.40175439 L19.8076023,2.40175439 C19.957115,2.40175439 20.0783626,2.28070175 20.0783626,2.13099415 L20.0783626,0.388304094 C20.0783626,0.238791423 20.1994152,0.11754386 20.3491228,0.11754386 L20.3573099,0.11754386 C20.5068226,0.11754386 20.6280702,0.238596491 20.6280702,0.388304094 L20.6280702,2.13099415 C20.6280702,2.28050682 20.7491228,2.40175439 20.8988304,2.40175439 L20.9212476,2.40175439 C21.0707602,2.40175439 21.1920078,2.28070175 21.1920078,2.13099415 L21.1920078,0.388304094 C21.1920078,0.238791423 21.3130604,0.11754386 21.462768,0.11754386 L21.4777778,0.11754386 C21.6272904,0.11754386 21.748538,0.238596491 21.748538,0.388304094 L21.748538,2.68791423 C21.748538,2.8374269 21.6274854,2.95867446 21.4777778,2.95867446 L19.2216374,2.95867446 C19.0721248,2.95867446 18.9508772,2.83762183 18.9508772,2.68791423 L18.9508772,2.10155945 C18.9508772,1.95204678 18.8298246,1.83079922 18.680117,1.83079922 L17.5584795,1.83079922 C17.4089669,1.83079922 17.2877193,1.95185185 17.2877193,2.10155945 L17.2877193,2.13099415 C17.2877193,2.28050682 17.4087719,2.40175439 17.5584795,2.40175439 L18.1306043,2.40175439 C18.280117,2.40175439 18.4013645,2.52280702 18.4013645,2.67251462 L18.4013645,2.68791423 C18.4003899,2.83723197 18.2793372,2.95867446 18.1298246,2.95867446 L18.1298246,2.95867446 Z" id="Shape"></path>
                <path d="M22.5758285,2.95867446 L22.5908382,2.95867446 C22.7403509,2.95867446 22.8615984,2.83762183 22.8615984,2.68791423 L22.8615984,2.10155945 C22.8615984,1.95204678 22.9826511,1.83079922 23.1323587,1.83079922 L24.2614035,1.83079922 C24.4109162,1.83079922 24.5321637,1.95185185 24.5321637,2.10155945 L24.5321637,2.68791423 C24.5321637,2.8374269 24.6532164,2.95867446 24.802924,2.95867446 L27.0520468,2.95867446 C27.2015595,2.95867446 27.322807,2.83762183 27.322807,2.68791423 L27.322807,1.53040936 C27.322807,1.38089669 27.2017544,1.25964912 27.0520468,1.25964912 L25.9233918,1.25964912 C25.7738791,1.25964912 25.6526316,1.38070175 25.6526316,1.53040936 L25.6526316,1.56003899 C25.6526316,1.70955166 25.7736842,1.83079922 25.9233918,1.83079922 L26.4955166,1.83079922 C26.6450292,1.83079922 26.7662768,1.95185185 26.7662768,2.10155945 L26.7662768,2.13099415 C26.7662768,2.28050682 26.6452242,2.40175439 26.4955166,2.40175439 L25.3596491,2.40175439 C25.2101365,2.40175439 25.0888889,2.28070175 25.0888889,2.13099415 L25.0888889,1.53040936 C25.0888889,1.38089669 24.9678363,1.25964912 24.8181287,1.25964912 L22.5760234,1.25964912 C22.4265107,1.25964912 22.3052632,1.38070175 22.3052632,1.53040936 L22.3052632,2.68791423 C22.3048733,2.83723197 22.4263158,2.95867446 22.5758285,2.95867446 L22.5758285,2.95867446 Z M23.6892788,2.95867446 L23.7042885,2.95867446 C23.8538012,2.95867446 23.9750487,2.83762183 23.9750487,2.68791423 L23.9750487,2.67251462 C23.9750487,2.52300195 23.8539961,2.40175439 23.7042885,2.40175439 L23.6892788,2.40175439 C23.5397661,2.40175439 23.4185185,2.52280702 23.4185185,2.67251462 L23.4185185,2.68791423 C23.4185185,2.83723197 23.5397661,2.95867446 23.6892788,2.95867446 L23.6892788,2.95867446 Z M22.5758285,0.688693957 L29.2861598,0.688693957 C29.4356725,0.688693957 29.5569201,0.567641326 29.5569201,0.417933723 L29.5569201,0.388304094 C29.5569201,0.238791423 29.4358674,0.11754386 29.2861598,0.11754386 L22.5758285,0.11754386 C22.4263158,0.11754386 22.3050682,0.238596491 22.3050682,0.388304094 L22.3050682,0.417933723 C22.3048733,0.567641326 22.4263158,0.688693957 22.5758285,0.688693957 L22.5758285,0.688693957 Z M29.2861598,2.95867446 L28.1502924,2.95867446 C28.0007797,2.95867446 27.8795322,2.83762183 27.8795322,2.68791423 L27.8795322,1.53040936 C27.8795322,1.38089669 28.0005848,1.25964912 28.1502924,1.25964912 L29.8356725,1.25964912 C29.9851852,1.25964912 30.1064327,1.13859649 30.1064327,0.988888889 L30.1064327,0.388304094 C30.1064327,0.238791423 30.2274854,0.11754386 30.377193,0.11754386 L30.3925926,0.11754386 C30.5421053,0.11754386 30.6633528,0.238596491 30.6633528,0.388304094 L30.6633528,2.13099415 C30.6633528,2.28050682 30.7844055,2.40175439 30.9341131,2.40175439 L30.9565302,2.40175439 C31.1060429,2.40175439 31.2272904,2.28070175 31.2272904,2.13099415 L31.2272904,0.388304094 C31.2272904,0.238791423 31.3483431,0.11754386 31.4980507,0.11754386 L31.5204678,0.11754386 C31.6699805,0.11754386 31.7912281,0.238596491 31.7912281,0.388304094 L31.7912281,2.13099415 C31.7912281,2.28050682 31.9122807,2.40175439 32.0619883,2.40175439 L32.0701754,2.40175439 C32.2196881,2.40175439 32.3409357,2.28070175 32.3409357,2.13099415 L32.3409357,0.388304094 C32.3409357,0.238791423 32.4619883,0.11754386 32.6116959,0.11754386 L32.6267057,0.11754386 C32.7762183,0.11754386 32.8974659,0.238596491 32.8974659,0.388304094 L32.8974659,2.68791423 C32.8974659,2.8374269 32.7764133,2.95867446 32.6267057,2.95867446 L30.377193,2.95867446 C30.2276803,2.95867446 30.1064327,2.83762183 30.1064327,2.68791423 L30.1064327,2.10155945 C30.1064327,1.95204678 29.9853801,1.83079922 29.8356725,1.83079922 L28.7070175,1.83079922 C28.5575049,1.83079922 28.4362573,1.95185185 28.4362573,2.10155945 L28.4362573,2.13099415 C28.4362573,2.28050682 28.5573099,2.40175439 28.7070175,2.40175439 L29.2865497,2.40175439 C29.4360624,2.40175439 29.5573099,2.52280702 29.5573099,2.67251462 L29.5573099,2.68791423 C29.5569201,2.83723197 29.4356725,2.95867446 29.2861598,2.95867446 L29.2861598,2.95867446 Z" id="Shape"></path>
                <path d="M33.7245614,2.95867446 L33.7395712,2.95867446 C33.8890838,2.95867446 34.0103314,2.83762183 34.0103314,2.68791423 L34.0103314,2.10155945 C34.0103314,1.95204678 34.131384,1.83079922 34.2810916,1.83079922 L35.4097466,1.83079922 C35.5592593,1.83079922 35.6805068,1.95185185 35.6805068,2.10155945 L35.6805068,2.68791423 C35.6805068,2.8374269 35.8015595,2.95867446 35.9512671,2.95867446 L38.2007797,2.95867446 C38.3502924,2.95867446 38.47154,2.83762183 38.47154,2.68791423 L38.47154,1.53040936 C38.47154,1.38089669 38.3504873,1.25964912 38.2007797,1.25964912 L37.0649123,1.25964912 C36.9153996,1.25964912 36.794152,1.38070175 36.794152,1.53040936 L36.794152,1.56003899 C36.794152,1.70955166 36.9152047,1.83079922 37.0649123,1.83079922 L37.637037,1.83079922 C37.7865497,1.83079922 37.9077973,1.95185185 37.9077973,2.10155945 L37.9077973,2.13099415 C37.9077973,2.28050682 37.7867446,2.40175439 37.637037,2.40175439 L36.5083821,2.40175439 C36.3588694,2.40175439 36.2376218,2.28070175 36.2376218,2.13099415 L36.2376218,1.53040936 C36.2376218,1.38089669 36.1165692,1.25964912 35.9668616,1.25964912 L33.7247563,1.25964912 C33.5752437,1.25964912 33.4539961,1.38070175 33.4539961,1.53040936 L33.4539961,2.68791423 C33.4539961,2.83723197 33.5752437,2.95867446 33.7245614,2.95867446 L33.7245614,2.95867446 Z M34.8382066,2.95867446 L34.8532164,2.95867446 C35.002729,2.95867446 35.1239766,2.83762183 35.1239766,2.68791423 L35.1239766,2.67251462 C35.1239766,2.52300195 35.002924,2.40175439 34.8532164,2.40175439 L34.8382066,2.40175439 C34.688694,2.40175439 34.5674464,2.52280702 34.5674464,2.67251462 L34.5674464,2.68791423 C34.5676413,2.83723197 34.688694,2.95867446 34.8382066,2.95867446 L34.8382066,2.95867446 Z M33.7245614,0.688693957 L40.4278752,0.688693957 C40.5773879,0.688693957 40.6986355,0.567641326 40.6986355,0.417933723 L40.6986355,0.388304094 C40.6986355,0.238791423 40.5775828,0.11754386 40.4278752,0.11754386 L33.7245614,0.11754386 C33.5750487,0.11754386 33.4538012,0.238596491 33.4538012,0.388304094 L33.4538012,0.417933723 C33.4539961,0.567641326 33.5752437,0.688693957 33.7245614,0.688693957 L33.7245614,0.688693957 Z M40.4278752,2.95867446 L39.2920078,2.95867446 C39.1424951,2.95867446 39.0212476,2.83762183 39.0212476,2.68791423 L39.0212476,1.53040936 C39.0212476,1.38089669 39.1423002,1.25964912 39.2920078,1.25964912 L40.9920078,1.25964912 C41.1415205,1.25964912 41.262768,1.13859649 41.262768,0.988888889 L41.262768,0.388304094 C41.262768,0.238791423 41.3838207,0.11754386 41.5335283,0.11754386 L41.548538,0.11754386 C41.6980507,0.11754386 41.8192982,0.238596491 41.8192982,0.388304094 L41.8192982,2.13099415 C41.8192982,2.28050682 41.9403509,2.40175439 42.0900585,2.40175439 L42.0982456,2.40175439 C42.2477583,2.40175439 42.3690058,2.28070175 42.3690058,2.13099415 L42.3690058,0.388304094 C42.3690058,0.238791423 42.4900585,0.11754386 42.6397661,0.11754386 L42.6621832,0.11754386 C42.8116959,0.11754386 42.9329435,0.238596491 42.9329435,0.388304094 L42.9329435,2.13099415 C42.9329435,2.28050682 43.0539961,2.40175439 43.2037037,2.40175439 L43.2191033,2.40175439 C43.368616,2.40175439 43.4898635,2.28070175 43.4898635,2.13099415 L43.4898635,0.388304094 C43.4898635,0.238791423 43.6109162,0.11754386 43.7606238,0.11754386 L43.7756335,0.11754386 C43.9251462,0.11754386 44.0463938,0.238596491 44.0463938,0.388304094 L44.0463938,2.68791423 C44.0463938,2.8374269 43.9253411,2.95867446 43.7756335,2.95867446 L41.5325536,2.95867446 C41.3830409,2.95867446 41.2617934,2.83762183 41.2617934,2.68791423 L41.2617934,2.10155945 C41.2617934,1.95204678 41.1407407,1.83079922 40.9910331,1.83079922 L39.8551657,1.83079922 C39.705653,1.83079922 39.5844055,1.95185185 39.5844055,2.10155945 L39.5844055,2.13099415 C39.5844055,2.28050682 39.7054581,2.40175439 39.8551657,2.40175439 L40.4272904,2.40175439 C40.5768031,2.40175439 40.6980507,2.52280702 40.6980507,2.67251462 L40.6980507,2.68791423 C40.6984405,2.83723197 40.5773879,2.95867446 40.4278752,2.95867446 L40.4278752,2.95867446 Z" id="Shape"></path>
                <path d="M44.8732943,2.95867446 L44.888694,2.95867446 C45.0382066,2.95867446 45.1594542,2.83762183 45.1594542,2.68791423 L45.1594542,2.10155945 C45.1594542,1.95204678 45.2805068,1.83079922 45.4302144,1.83079922 L46.5588694,1.83079922 C46.7083821,1.83079922 46.8296296,1.95185185 46.8296296,2.10155945 L46.8296296,2.68791423 C46.8296296,2.8374269 46.9506823,2.95867446 47.1003899,2.95867446 L49.3499025,2.95867446 C49.4994152,2.95867446 49.6206628,2.83762183 49.6206628,2.68791423 L49.6206628,1.53040936 C49.6206628,1.38089669 49.4996101,1.25964912 49.3499025,1.25964912 L48.2140351,1.25964912 C48.0645224,1.25964912 47.9432749,1.38070175 47.9432749,1.53040936 L47.9432749,1.56003899 C47.9432749,1.70955166 48.0643275,1.83079922 48.2140351,1.83079922 L48.7929825,1.83079922 C48.9424951,1.83079922 49.0637427,1.95185185 49.0637427,2.10155945 L49.0637427,2.13099415 C49.0637427,2.28050682 48.9426901,2.40175439 48.7929825,2.40175439 L47.6643275,2.40175439 C47.5148148,2.40175439 47.3935673,2.28070175 47.3935673,2.13099415 L47.3935673,1.53040936 C47.3935673,1.38089669 47.2725146,1.25964912 47.122807,1.25964912 L44.8732943,1.25964912 C44.7237817,1.25964912 44.6025341,1.38070175 44.6025341,1.53040936 L44.6025341,2.68791423 C44.602729,2.83723197 44.7237817,2.95867446 44.8732943,2.95867446 L44.8732943,2.95867446 Z M45.994152,2.95867446 L46.0023392,2.95867446 C46.1518519,2.95867446 46.2730994,2.83762183 46.2730994,2.68791423 L46.2730994,2.67251462 C46.2730994,2.52300195 46.1520468,2.40175439 46.0023392,2.40175439 L45.994152,2.40175439 C45.8446394,2.40175439 45.7233918,2.52280702 45.7233918,2.67251462 L45.7233918,2.68791423 C45.7233918,2.83723197 45.8446394,2.95867446 45.994152,2.95867446 L45.994152,2.95867446 Z M44.8732943,0.688693957 L51.5838207,0.688693957 C51.7333333,0.688693957 51.8545809,0.567641326 51.8545809,0.417933723 L51.8545809,0.388304094 C51.8545809,0.238791423 51.7335283,0.11754386 51.5838207,0.11754386 L44.8732943,0.11754386 C44.7237817,0.11754386 44.6025341,0.238596491 44.6025341,0.388304094 L44.6025341,0.417933723 C44.602729,0.567641326 44.7237817,0.688693957 44.8732943,0.688693957 L44.8732943,0.688693957 Z M51.5840156,2.95867446 L50.4481481,2.95867446 C50.2986355,2.95867446 50.1773879,2.83762183 50.1773879,2.68791423 L50.1773879,1.53040936 C50.1773879,1.38089669 50.2984405,1.25964912 50.4481481,1.25964912 L52.1409357,1.25964912 C52.2904483,1.25964912 52.4116959,1.13859649 52.4116959,0.988888889 L52.4116959,0.388304094 C52.4116959,0.238791423 52.5327485,0.11754386 52.6824561,0.11754386 L52.6974659,0.11754386 C52.8469786,0.11754386 52.9682261,0.238596491 52.9682261,0.388304094 L52.9682261,2.13099415 C52.9682261,2.28050682 53.0892788,2.40175439 53.2389864,2.40175439 L53.254386,2.40175439 C53.4038986,2.40175439 53.5251462,2.28070175 53.5251462,2.13099415 L53.5251462,0.388304094 C53.5251462,0.238791423 53.6461988,0.11754386 53.7959064,0.11754386 L53.8109162,0.11754386 C53.9604288,0.11754386 54.0816764,0.238596491 54.0816764,0.388304094 L54.0816764,2.13099415 C54.0816764,2.28050682 54.202729,2.40175439 54.3524366,2.40175439 L54.3674464,2.40175439 C54.5169591,2.40175439 54.6382066,2.28070175 54.6382066,2.13099415 L54.6382066,0.388304094 C54.6382066,0.238791423 54.7592593,0.11754386 54.9089669,0.11754386 L54.9243665,0.11754386 C55.0738791,0.11754386 55.1951267,0.238596491 55.1951267,0.388304094 L55.1951267,2.68791423 C55.1951267,2.8374269 55.0740741,2.95867446 54.9243665,2.95867446 L52.6822612,2.95867446 C52.5327485,2.95867446 52.411501,2.83762183 52.411501,2.68791423 L52.411501,2.10155945 C52.411501,1.95204678 52.2904483,1.83079922 52.1407407,1.83079922 L51.0048733,1.83079922 C50.8553606,1.83079922 50.7341131,1.95185185 50.7341131,2.10155945 L50.7341131,2.13099415 C50.7341131,2.28050682 50.8551657,2.40175439 51.0048733,2.40175439 L51.5838207,2.40175439 C51.7333333,2.40175439 51.8545809,2.52280702 51.8545809,2.67251462 L51.8545809,2.68791423 C51.8545809,2.83723197 51.7335283,2.95867446 51.5840156,2.95867446 L51.5840156,2.95867446 Z" id="Shape"></path>
                <path d="M56.0224172,2.95867446 L56.0378168,2.95867446 C56.1873294,2.95867446 56.308577,2.83762183 56.308577,2.68791423 L56.308577,2.10155945 C56.308577,1.95204678 56.4296296,1.83079922 56.5793372,1.83079922 L57.7079922,1.83079922 C57.8575049,1.83079922 57.9787524,1.95185185 57.9787524,2.10155945 L57.9787524,2.68791423 C57.9787524,2.8374269 58.0998051,2.95867446 58.2495127,2.95867446 L60.4990253,2.95867446 C60.648538,2.95867446 60.7697856,2.83762183 60.7697856,2.68791423 L60.7697856,1.53040936 C60.7697856,1.38089669 60.6487329,1.25964912 60.4990253,1.25964912 L59.3699805,1.25964912 C59.2204678,1.25964912 59.0992203,1.38070175 59.0992203,1.53040936 L59.0992203,1.56003899 C59.0992203,1.70955166 59.2202729,1.83079922 59.3699805,1.83079922 L59.9350877,1.83079922 C60.0846004,1.83079922 60.205848,1.95185185 60.205848,2.10155945 L60.205848,2.13099415 C60.205848,2.28050682 60.0847953,2.40175439 59.9350877,2.40175439 L58.8134503,2.40175439 C58.6639376,2.40175439 58.5426901,2.28070175 58.5426901,2.13099415 L58.5426901,1.53040936 C58.5426901,1.38089669 58.4216374,1.25964912 58.2719298,1.25964912 L56.0224172,1.25964912 C55.8729045,1.25964912 55.7516569,1.38070175 55.7516569,1.53040936 L55.7516569,2.68791423 C55.7516569,2.83723197 55.8729045,2.95867446 56.0224172,2.95867446 L56.0224172,2.95867446 Z M57.1430799,2.95867446 L57.1512671,2.95867446 C57.3007797,2.95867446 57.4220273,2.83762183 57.4220273,2.68791423 L57.4220273,2.67251462 C57.4220273,2.52300195 57.3009747,2.40175439 57.1512671,2.40175439 L57.1430799,2.40175439 C56.9935673,2.40175439 56.8723197,2.52280702 56.8723197,2.67251462 L56.8723197,2.68791423 C56.8725146,2.83723197 56.9935673,2.95867446 57.1430799,2.95867446 L57.1430799,2.95867446 Z M56.0224172,0.688693957 L62.7327485,0.688693957 C62.8822612,0.688693957 63.0035088,0.567641326 63.0035088,0.417933723 L63.0035088,0.388304094 C63.0035088,0.238791423 62.8824561,0.11754386 62.7327485,0.11754386 L56.0224172,0.11754386 C55.8729045,0.11754386 55.7516569,0.238596491 55.7516569,0.388304094 L55.7516569,0.417933723 C55.7516569,0.567641326 55.8729045,0.688693957 56.0224172,0.688693957 L56.0224172,0.688693957 Z M62.7329435,2.95867446 L61.6042885,2.95867446 C61.4547758,2.95867446 61.3335283,2.83762183 61.3335283,2.68791423 L61.3335283,1.53040936 C61.3335283,1.38089669 61.4545809,1.25964912 61.6042885,1.25964912 L63.2896686,1.25964912 C63.4391813,1.25964912 63.5604288,1.13859649 63.5604288,0.988888889 L63.5604288,0.388304094 C63.5604288,0.238791423 63.6814815,0.11754386 63.8311891,0.11754386 L63.8465887,0.11754386 C63.9961014,0.11754386 64.1173489,0.238596491 64.1173489,0.388304094 L64.1173489,2.13099415 C64.1173489,2.28050682 64.2384016,2.40175439 64.3881092,2.40175439 L64.4031189,2.40175439 C64.5526316,2.40175439 64.6738791,2.28070175 64.6738791,2.13099415 L64.6738791,0.388304094 C64.6738791,0.238791423 64.7949318,0.11754386 64.9446394,0.11754386 L64.960039,0.11754386 C65.1095517,0.11754386 65.2307992,0.238596491 65.2307992,0.388304094 L65.2307992,2.13099415 C65.2307992,2.28050682 65.3518519,2.40175439 65.5015595,2.40175439 L65.5165692,2.40175439 C65.6660819,2.40175439 65.7873294,2.28070175 65.7873294,2.13099415 L65.7873294,0.388304094 C65.7873294,0.238791423 65.9083821,0.11754386 66.0580897,0.11754386 L66.0734893,0.11754386 C66.2230019,0.11754386 66.3442495,0.238596491 66.3442495,0.388304094 L66.3442495,2.68791423 C66.3442495,2.8374269 66.2231969,2.95867446 66.0734893,2.95867446 L63.8307992,2.95867446 C63.6812865,2.95867446 63.560039,2.83762183 63.560039,2.68791423 L63.560039,2.10155945 C63.560039,1.95204678 63.4389864,1.83079922 63.2892788,1.83079922 L62.1536062,1.83079922 C62.0040936,1.83079922 61.882846,1.95185185 61.882846,2.10155945 L61.882846,2.13099415 C61.882846,2.28050682 62.0038986,2.40175439 62.1536062,2.40175439 L62.7325536,2.40175439 C62.8820663,2.40175439 63.0033138,2.52280702 63.0033138,2.67251462 L63.0033138,2.68791423 C63.0037037,2.83723197 62.8822612,2.95867446 62.7329435,2.95867446 L62.7329435,2.95867446 Z" id="Shape"></path>
                <path d="M67.171345,2.95867446 L67.1867446,2.95867446 C67.3362573,2.95867446 67.4575049,2.83762183 67.4575049,2.68791423 L67.4575049,2.10155945 C67.4575049,1.95204678 67.5785575,1.83079922 67.7282651,1.83079922 L68.8639376,1.83079922 C69.0134503,1.83079922 69.1346979,1.95185185 69.1346979,2.10155945 L69.1346979,2.68791423 C69.1346979,2.8374269 69.2557505,2.95867446 69.4054581,2.95867446 L71.6481481,2.95867446 C71.7976608,2.95867446 71.9189084,2.83762183 71.9189084,2.68791423 L71.9189084,1.53040936 C71.9189084,1.38089669 71.7978558,1.25964912 71.6481481,1.25964912 L70.5191033,1.25964912 C70.3695906,1.25964912 70.2483431,1.38070175 70.2483431,1.53040936 L70.2483431,1.56003899 C70.2483431,1.70955166 70.3693957,1.83079922 70.5191033,1.83079922 L71.0986355,1.83079922 C71.2481481,1.83079922 71.3693957,1.95185185 71.3693957,2.10155945 L71.3693957,2.13099415 C71.3693957,2.28050682 71.2483431,2.40175439 71.0986355,2.40175439 L69.9553606,2.40175439 C69.805848,2.40175439 69.6846004,2.28070175 69.6846004,2.13099415 L69.6846004,1.53040936 C69.6846004,1.38089669 69.5635478,1.25964912 69.4138402,1.25964912 L67.1717349,1.25964912 C67.0222222,1.25964912 66.9009747,1.38070175 66.9009747,1.53040936 L66.9009747,2.68791423 C66.9007797,2.83723197 67.0218324,2.95867446 67.171345,2.95867446 L67.171345,2.95867446 Z M68.2849903,2.95867446 L68.3074074,2.95867446 C68.4569201,2.95867446 68.5781676,2.83762183 68.5781676,2.68791423 L68.5781676,2.67251462 C68.5781676,2.52300195 68.457115,2.40175439 68.3074074,2.40175439 L68.2849903,2.40175439 C68.1354776,2.40175439 68.01423,2.52280702 68.01423,2.67251462 L68.01423,2.68791423 C68.01423,2.83723197 68.1354776,2.95867446 68.2849903,2.95867446 L68.2849903,2.95867446 Z M67.171345,0.688693957 L73.8816764,0.688693957 C74.0311891,0.688693957 74.1524366,0.567641326 74.1524366,0.417933723 L74.1524366,0.388304094 C74.1524366,0.238791423 74.031384,0.11754386 73.8816764,0.11754386 L67.171345,0.11754386 C67.0218324,0.11754386 66.9005848,0.238596491 66.9005848,0.388304094 L66.9005848,0.417933723 C66.9007797,0.567641326 67.0218324,0.688693957 67.171345,0.688693957 L67.171345,0.688693957 Z M73.8820663,2.95867446 L72.7534113,2.95867446 C72.6038986,2.95867446 72.4826511,2.83762183 72.4826511,2.68791423 L72.4826511,1.53040936 C72.4826511,1.38089669 72.6037037,1.25964912 72.7534113,1.25964912 L74.4387914,1.25964912 C74.5883041,1.25964912 74.7095517,1.13859649 74.7095517,0.988888889 L74.7095517,0.388304094 C74.7095517,0.238791423 74.8306043,0.11754386 74.9803119,0.11754386 L74.9957115,0.11754386 C75.1452242,0.11754386 75.2664717,0.238596491 75.2664717,0.388304094 L75.2664717,2.13099415 C75.2664717,2.28050682 75.3875244,2.40175439 75.537232,2.40175439 L75.5522417,2.40175439 C75.7017544,2.40175439 75.8230019,2.28070175 75.8230019,2.13099415 L75.8230019,0.388304094 C75.8230019,0.238791423 75.9440546,0.11754386 76.0937622,0.11754386 L76.1091618,0.11754386 C76.2586745,0.11754386 76.379922,0.238596491 76.379922,0.388304094 L76.379922,2.13099415 C76.379922,2.28050682 76.5009747,2.40175439 76.6506823,2.40175439 L76.6730994,2.40175439 C76.8226121,2.40175439 76.9438596,2.28070175 76.9438596,2.13099415 L76.9438596,0.388304094 C76.9438596,0.238791423 77.0649123,0.11754386 77.2146199,0.11754386 L77.2224172,0.11754386 C77.3719298,0.11754386 77.4931774,0.238596491 77.4931774,0.388304094 L77.4931774,2.68791423 C77.4931774,2.8374269 77.3721248,2.95867446 77.2224172,2.95867446 L74.9803119,2.95867446 C74.8307992,2.95867446 74.7095517,2.83762183 74.7095517,2.68791423 L74.7095517,2.10155945 C74.7095517,1.95204678 74.588499,1.83079922 74.4387914,1.83079922 L73.317154,1.83079922 C73.1676413,1.83079922 73.0463938,1.95185185 73.0463938,2.10155945 L73.0463938,2.13099415 C73.0463938,2.28050682 73.1674464,2.40175439 73.317154,2.40175439 L73.8822612,2.40175439 C74.0317739,2.40175439 74.1530214,2.52280702 74.1530214,2.67251462 L74.1530214,2.68791423 C74.1526316,2.83723197 74.0315789,2.95867446 73.8820663,2.95867446 L73.8820663,2.95867446 Z" id="Shape"></path>
                <path d="M78.3274854,2.95867446 L78.3356725,2.95867446 C78.4851852,2.95867446 78.6064327,2.83762183 78.6064327,2.68791423 L78.6064327,2.10155945 C78.6064327,1.95204678 78.7274854,1.83079922 78.877193,1.83079922 L80.0062378,1.83079922 C80.1557505,1.83079922 80.2769981,1.95185185 80.2769981,2.10155945 L80.2769981,2.68791423 C80.2769981,2.8374269 80.3980507,2.95867446 80.5477583,2.95867446 L82.7968811,2.95867446 C82.9463938,2.95867446 83.0676413,2.83762183 83.0676413,2.68791423 L83.0676413,1.53040936 C83.0676413,1.38089669 82.9465887,1.25964912 82.7968811,1.25964912 L81.6756335,1.25964912 C81.5261209,1.25964912 81.4048733,1.38070175 81.4048733,1.53040936 L81.4048733,1.56003899 C81.4048733,1.70955166 81.5259259,1.83079922 81.6756335,1.83079922 L82.2473684,1.83079922 C82.3968811,1.83079922 82.5181287,1.95185185 82.5181287,2.10155945 L82.5181287,2.13099415 C82.5181287,2.28050682 82.397076,2.40175439 82.2473684,2.40175439 L81.1116959,2.40175439 C80.9621832,2.40175439 80.8409357,2.28070175 80.8409357,2.13099415 L80.8409357,1.53040936 C80.8409357,1.38089669 80.719883,1.25964912 80.5701754,1.25964912 L78.3274854,1.25964912 C78.1779727,1.25964912 78.0567251,1.38070175 78.0567251,1.53040936 L78.0567251,2.68791423 C78.0565302,2.83723197 78.1779727,2.95867446 78.3274854,2.95867446 L78.3274854,2.95867446 Z M79.4409357,2.95867446 L79.4563353,2.95867446 C79.605848,2.95867446 79.7270955,2.83762183 79.7270955,2.68791423 L79.7270955,2.67251462 C79.7270955,2.52300195 79.6060429,2.40175439 79.4563353,2.40175439 L79.4409357,2.40175439 C79.291423,2.40175439 79.1701754,2.52280702 79.1701754,2.67251462 L79.1701754,2.68791423 C79.1701754,2.83723197 79.291423,2.95867446 79.4409357,2.95867446 L79.4409357,2.95867446 Z M78.3274854,0.688693957 L85.0452242,0.688693957 C85.1947368,0.688693957 85.3159844,0.567641326 85.3159844,0.417933723 L85.3159844,0.388304094 C85.3159844,0.238791423 85.1949318,0.11754386 85.0452242,0.11754386 L78.3274854,0.11754386 C78.1779727,0.11754386 78.0567251,0.238596491 78.0567251,0.388304094 L78.0567251,0.417933723 C78.0565302,0.567641326 78.1779727,0.688693957 78.3274854,0.688693957 L78.3274854,0.688693957 Z M85.0450292,2.95867446 L83.9017544,2.95867446 C83.7522417,2.95867446 83.6309942,2.83762183 83.6309942,2.68791423 L83.6309942,1.53040936 C83.6309942,1.38089669 83.7520468,1.25964912 83.9017544,1.25964912 L85.5875244,1.25964912 C85.737037,1.25964912 85.8582846,1.13859649 85.8582846,0.988888889 L85.8582846,0.388304094 C85.8582846,0.238791423 85.9793372,0.11754386 86.1290448,0.11754386 L86.151462,0.11754386 C86.3009747,0.11754386 86.4222222,0.238596491 86.4222222,0.388304094 L86.4222222,2.13099415 C86.4222222,2.28050682 86.5432749,2.40175439 86.6929825,2.40175439 L86.7079922,2.40175439 C86.8575049,2.40175439 86.9787524,2.28070175 86.9787524,2.13099415 L86.9787524,0.388304094 C86.9787524,0.238791423 87.0998051,0.11754386 87.2495127,0.11754386 L87.2576998,0.11754386 C87.4072125,0.11754386 87.52846,0.238596491 87.52846,0.388304094 L87.52846,2.13099415 C87.52846,2.28050682 87.6495127,2.40175439 87.7992203,2.40175439 L87.8216374,2.40175439 C87.9711501,2.40175439 88.0923977,2.28070175 88.0923977,2.13099415 L88.0923977,0.388304094 C88.0923977,0.238791423 88.2134503,0.11754386 88.3631579,0.11754386 L88.3785575,0.11754386 C88.5280702,0.11754386 88.6493177,0.238596491 88.6493177,0.388304094 L88.6493177,2.68791423 C88.6493177,2.8374269 88.5282651,2.95867446 88.3785575,2.95867446 L86.1290448,2.95867446 C85.9795322,2.95867446 85.8582846,2.83762183 85.8582846,2.68791423 L85.8582846,2.10155945 C85.8582846,1.95204678 85.737232,1.83079922 85.5875244,1.83079922 L84.4588694,1.83079922 C84.3093567,1.83079922 84.1881092,1.95185185 84.1881092,2.10155945 L84.1881092,2.13099415 C84.1881092,2.28050682 84.3091618,2.40175439 84.4588694,2.40175439 L85.0452242,2.40175439 C85.1947368,2.40175439 85.3159844,2.52280702 85.3159844,2.67251462 L85.3159844,2.68791423 C85.3159844,2.83723197 85.1945419,2.95867446 85.0450292,2.95867446 L85.0450292,2.95867446 Z" id="Shape"></path>
                <path d="M89.4762183,2.95867446 L89.4916179,2.95867446 C89.6411306,2.95867446 89.7623782,2.83762183 89.7623782,2.68791423 L89.7623782,2.10155945 C89.7623782,1.95204678 89.8834308,1.83079922 90.0331384,1.83079922 L91.1617934,1.83079922 C91.311306,1.83079922 91.4325536,1.95185185 91.4325536,2.10155945 L91.4325536,2.68791423 C91.4325536,2.8374269 91.5536062,2.95867446 91.7033138,2.95867446 L93.9528265,2.95867446 C94.1023392,2.95867446 94.2235867,2.83762183 94.2235867,2.68791423 L94.2235867,1.53040936 C94.2235867,1.38089669 94.1025341,1.25964912 93.9528265,1.25964912 L92.8311891,1.25964912 C92.6816764,1.25964912 92.5604288,1.38070175 92.5604288,1.53040936 L92.5604288,1.56003899 C92.5604288,1.70955166 92.6814815,1.83079922 92.8311891,1.83079922 L93.4033138,1.83079922 C93.5528265,1.83079922 93.6740741,1.95185185 93.6740741,2.10155945 L93.6740741,2.13099415 C93.6740741,2.28050682 93.5530214,2.40175439 93.4033138,2.40175439 L92.260039,2.40175439 C92.1105263,2.40175439 91.9892788,2.28070175 91.9892788,2.13099415 L91.9892788,1.53040936 C91.9892788,1.38089669 91.8682261,1.25964912 91.7185185,1.25964912 L89.4764133,1.25964912 C89.3269006,1.25964912 89.205653,1.38070175 89.205653,1.53040936 L89.205653,2.68791423 C89.205653,2.83723197 89.3269006,2.95867446 89.4762183,2.95867446 L89.4762183,2.95867446 Z M90.5898635,2.95867446 L90.6052632,2.95867446 C90.7547758,2.95867446 90.8760234,2.83762183 90.8760234,2.68791423 L90.8760234,2.67251462 C90.8760234,2.52300195 90.7549708,2.40175439 90.6052632,2.40175439 L90.5898635,2.40175439 C90.4403509,2.40175439 90.3191033,2.52280702 90.3191033,2.67251462 L90.3191033,2.68791423 C90.3192982,2.83723197 90.4403509,2.95867446 90.5898635,2.95867446 L90.5898635,2.95867446 Z M89.4762183,0.688693957 L96.1795322,0.688693957 C96.3290448,0.688693957 96.4502924,0.567641326 96.4502924,0.417933723 L96.4502924,0.388304094 C96.4502924,0.238791423 96.3292398,0.11754386 96.1795322,0.11754386 L89.4762183,0.11754386 C89.3267057,0.11754386 89.2054581,0.238596491 89.2054581,0.388304094 L89.2054581,0.417933723 C89.205653,0.567641326 89.3269006,0.688693957 89.4762183,0.688693957 L89.4762183,0.688693957 Z M96.1795322,2.95867446 L95.0508772,2.95867446 C94.9013645,2.95867446 94.780117,2.83762183 94.780117,2.68791423 L94.780117,1.53040936 C94.780117,1.38089669 94.9011696,1.25964912 95.0508772,1.25964912 L96.7508772,1.25964912 C96.9003899,1.25964912 97.0216374,1.13859649 97.0216374,0.988888889 L97.0216374,0.388304094 C97.0216374,0.238791423 97.1426901,0.11754386 97.2923977,0.11754386 L97.2931774,0.11754386 C97.4426901,0.11754386 97.5639376,0.238596491 97.5639376,0.388304094 L97.5639376,2.13099415 C97.5639376,2.28050682 97.6849903,2.40175439 97.8346979,2.40175439 L97.8643275,2.40175439 C98.0138402,2.40175439 98.1350877,2.28070175 98.1350877,2.13099415 L98.1350877,0.388304094 C98.1350877,0.238791423 98.2561404,0.11754386 98.405848,0.11754386 L98.4066277,0.11754386 C98.5561404,0.11754386 98.6773879,0.238596491 98.6773879,0.388304094 L98.6773879,2.13099415 C98.6773879,2.28050682 98.7984405,2.40175439 98.9481481,2.40175439 L98.9635478,2.40175439 C99.1130604,2.40175439 99.234308,2.28070175 99.234308,2.13099415 L99.234308,0.388304094 C99.234308,0.238791423 99.3553606,0.11754386 99.5050682,0.11754386 L99.5345029,0.11754386 C99.6840156,0.11754386 99.8052632,0.238596491 99.8052632,0.388304094 L99.8052632,2.68791423 C99.8052632,2.8374269 99.6842105,2.95867446 99.5345029,2.95867446 L97.2923977,2.95867446 C97.142885,2.95867446 97.0216374,2.83762183 97.0216374,2.68791423 L97.0216374,2.10155945 C97.0216374,1.95204678 96.9005848,1.83079922 96.7508772,1.83079922 L95.6077973,1.83079922 C95.4582846,1.83079922 95.337037,1.95185185 95.337037,2.10155945 L95.337037,2.13099415 C95.337037,2.28050682 95.4580897,2.40175439 95.6077973,2.40175439 L96.1795322,2.40175439 C96.3290448,2.40175439 96.4502924,2.52280702 96.4502924,2.67251462 L96.4502924,2.68791423 C96.4502924,2.83723197 96.3290448,2.95867446 96.1795322,2.95867446 L96.1795322,2.95867446 Z" id="Shape"></path>
                <path d="M0.270760234,4.68557505 L4.74697856,4.68557505 C4.89649123,4.68557505 5.01773879,4.56452242 5.01773879,4.41481481 L5.01773879,3.81423002 C5.01773879,3.66471735 4.89668616,3.54346979 4.74697856,3.54346979 L0.270760234,3.54346979 C0.121247563,3.54346979 0,3.66452242 0,3.81423002 L0,4.41481481 C0,4.56452242 0.121052632,4.68557505 0.270760234,4.68557505 L0.270760234,4.68557505 Z M5.85224172,4.68557505 L10.3214425,4.68557505 C10.4709552,4.68557505 10.5922027,4.56452242 10.5922027,4.41481481 L10.5922027,3.81423002 C10.5922027,3.66471735 10.4711501,3.54346979 10.3214425,3.54346979 L5.85224172,3.54346979 C5.70272904,3.54346979 5.58148148,3.66452242 5.58148148,3.81423002 L5.58148148,4.41481481 C5.58148148,4.56452242 5.70272904,4.68557505 5.85224172,4.68557505 L5.85224172,4.68557505 Z" id="Shape"></path>
                <path d="M11.4265107,4.68557505 L15.8957115,4.68557505 C16.0452242,4.68557505 16.1664717,4.56452242 16.1664717,4.41481481 L16.1664717,3.81423002 C16.1664717,3.66471735 16.0454191,3.54346979 15.8957115,3.54346979 L11.4265107,3.54346979 C11.2769981,3.54346979 11.1557505,3.66452242 11.1557505,3.81423002 L11.1557505,4.41481481 C11.1559454,4.56452242 11.277193,4.68557505 11.4265107,4.68557505 L11.4265107,4.68557505 Z M16.9939571,4.68557505 L21.4773879,4.68557505 C21.6269006,4.68557505 21.7481481,4.56452242 21.7481481,4.41481481 L21.7481481,3.81423002 C21.7481481,3.66471735 21.6270955,3.54346979 21.4773879,3.54346979 L16.9939571,3.54346979 C16.8444444,3.54346979 16.7231969,3.66452242 16.7231969,3.81423002 L16.7231969,4.41481481 C16.7231969,4.56452242 16.8444444,4.68557505 16.9939571,4.68557505 L16.9939571,4.68557505 Z" id="Shape"></path>
                <path d="M22.5758285,4.68557505 L27.0520468,4.68557505 C27.2015595,4.68557505 27.322807,4.56452242 27.322807,4.41481481 L27.322807,3.81423002 C27.322807,3.66471735 27.2017544,3.54346979 27.0520468,3.54346979 L22.5758285,3.54346979 C22.4263158,3.54346979 22.3050682,3.66452242 22.3050682,3.81423002 L22.3050682,4.41481481 C22.3048733,4.56452242 22.4263158,4.68557505 22.5758285,4.68557505 L22.5758285,4.68557505 Z M28.1500975,4.68557505 L32.6263158,4.68557505 C32.7758285,4.68557505 32.897076,4.56452242 32.897076,4.41481481 L32.897076,3.81423002 C32.897076,3.66471735 32.7760234,3.54346979 32.6263158,3.54346979 L28.1500975,3.54346979 C28.0005848,3.54346979 27.8793372,3.66452242 27.8793372,3.81423002 L27.8793372,4.41481481 C27.8795322,4.56452242 28.0007797,4.68557505 28.1500975,4.68557505 L28.1500975,4.68557505 Z" id="Shape"></path>
                <path d="M33.7245614,4.68557505 L38.2007797,4.68557505 C38.3502924,4.68557505 38.47154,4.56452242 38.47154,4.41481481 L38.47154,3.81423002 C38.47154,3.66471735 38.3504873,3.54346979 38.2007797,3.54346979 L33.7245614,3.54346979 C33.5750487,3.54346979 33.4538012,3.66452242 33.4538012,3.81423002 L33.4538012,4.41481481 C33.4539961,4.56452242 33.5752437,4.68557505 33.7245614,4.68557505 L33.7245614,4.68557505 Z M39.2920078,4.68557505 L43.7754386,4.68557505 C43.9249513,4.68557505 44.0461988,4.56452242 44.0461988,4.41481481 L44.0461988,3.81423002 C44.0461988,3.66471735 43.9251462,3.54346979 43.7754386,3.54346979 L39.2920078,3.54346979 C39.1424951,3.54346979 39.0212476,3.66452242 39.0212476,3.81423002 L39.0212476,4.41481481 C39.0212476,4.56452242 39.1423002,4.68557505 39.2920078,4.68557505 L39.2920078,4.68557505 Z" id="Shape"></path>
                <path d="M44.8732943,4.68557505 L49.3499025,4.68557505 C49.4994152,4.68557505 49.6206628,4.56452242 49.6206628,4.41481481 L49.6206628,3.81423002 C49.6206628,3.66471735 49.4996101,3.54346979 49.3499025,3.54346979 L44.8732943,3.54346979 C44.7237817,3.54346979 44.6025341,3.66452242 44.6025341,3.81423002 L44.6025341,4.41481481 C44.602729,4.56452242 44.7237817,4.68557505 44.8732943,4.68557505 L44.8732943,4.68557505 Z M50.4477583,4.68557505 L54.9243665,4.68557505 C55.0738791,4.68557505 55.1951267,4.56452242 55.1951267,4.41481481 L55.1951267,3.81423002 C55.1951267,3.66471735 55.0740741,3.54346979 54.9243665,3.54346979 L50.4477583,3.54346979 C50.2982456,3.54346979 50.1769981,3.66452242 50.1769981,3.81423002 L50.1769981,4.41481481 C50.177193,4.56452242 50.2982456,4.68557505 50.4477583,4.68557505 L50.4477583,4.68557505 Z" id="Shape"></path>
                <path d="M56.0224172,4.68557505 L60.4990253,4.68557505 C60.648538,4.68557505 60.7697856,4.56452242 60.7697856,4.41481481 L60.7697856,3.81423002 C60.7697856,3.66471735 60.6487329,3.54346979 60.4990253,3.54346979 L56.0224172,3.54346979 C55.8729045,3.54346979 55.7516569,3.66452242 55.7516569,3.81423002 L55.7516569,4.41481481 C55.7516569,4.56452242 55.8729045,4.68557505 56.0224172,4.68557505 L56.0224172,4.68557505 Z M61.6042885,4.68557505 L66.0734893,4.68557505 C66.2230019,4.68557505 66.3442495,4.56452242 66.3442495,4.41481481 L66.3442495,3.81423002 C66.3442495,3.66471735 66.2231969,3.54346979 66.0734893,3.54346979 L61.6042885,3.54346979 C61.4547758,3.54346979 61.3335283,3.66452242 61.3335283,3.81423002 L61.3335283,4.41481481 C61.3335283,4.56452242 61.4547758,4.68557505 61.6042885,4.68557505 L61.6042885,4.68557505 Z" id="Shape"></path>
                <path d="M67.171345,4.68557505 L71.6479532,4.68557505 C71.7974659,4.68557505 71.9187135,4.56452242 71.9187135,4.41481481 L71.9187135,3.81423002 C71.9187135,3.66471735 71.7976608,3.54346979 71.6479532,3.54346979 L67.171345,3.54346979 C67.0218324,3.54346979 66.9005848,3.66452242 66.9005848,3.81423002 L66.9005848,4.41481481 C66.9007797,4.56452242 67.0218324,4.68557505 67.171345,4.68557505 L67.171345,4.68557505 Z M72.7532164,4.68557505 L77.2220273,4.68557505 C77.37154,4.68557505 77.4927875,4.56452242 77.4927875,4.41481481 L77.4927875,3.81423002 C77.4927875,3.66471735 77.3717349,3.54346979 77.2220273,3.54346979 L72.7532164,3.54346979 C72.6037037,3.54346979 72.4824561,3.66452242 72.4824561,3.81423002 L72.4824561,4.41481481 C72.4826511,4.56452242 72.6037037,4.68557505 72.7532164,4.68557505 L72.7532164,4.68557505 Z" id="Shape"></path>
                <path d="M78.3274854,4.68557505 L82.7966862,4.68557505 C82.9461988,4.68557505 83.0674464,4.56452242 83.0674464,4.41481481 L83.0674464,3.81423002 C83.0674464,3.66471735 82.9463938,3.54346979 82.7966862,3.54346979 L78.3274854,3.54346979 C78.1779727,3.54346979 78.0567251,3.66452242 78.0567251,3.81423002 L78.0567251,4.41481481 C78.0565302,4.56452242 78.1779727,4.68557505 78.3274854,4.68557505 L78.3274854,4.68557505 Z M83.9019493,4.68557505 L88.3785575,4.68557505 C88.5280702,4.68557505 88.6493177,4.56452242 88.6493177,4.41481481 L88.6493177,3.81423002 C88.6493177,3.66471735 88.5282651,3.54346979 88.3785575,3.54346979 L83.9019493,3.54346979 C83.7524366,3.54346979 83.6311891,3.66452242 83.6311891,3.81423002 L83.6311891,4.41481481 C83.6311891,4.56452242 83.7524366,4.68557505 83.9019493,4.68557505 L83.9019493,4.68557505 Z" id="Shape"></path>
                <path d="M89.4762183,4.68557505 L93.9528265,4.68557505 C94.1023392,4.68557505 94.2235867,4.56452242 94.2235867,4.41481481 L94.2235867,3.81423002 C94.2235867,3.66471735 94.1025341,3.54346979 93.9528265,3.54346979 L89.4762183,3.54346979 C89.3267057,3.54346979 89.2054581,3.66452242 89.2054581,3.81423002 L89.2054581,4.41481481 C89.205653,4.56452242 89.3269006,4.68557505 89.4762183,4.68557505 L89.4762183,4.68557505 Z M95.0510721,4.68557505 L99.5345029,4.68557505 C99.6840156,4.68557505 99.8052632,4.56452242 99.8052632,4.41481481 L99.8052632,3.81423002 C99.8052632,3.66471735 99.6842105,3.54346979 99.5345029,3.54346979 L95.0510721,3.54346979 C94.9015595,3.54346979 94.7803119,3.66452242 94.7803119,3.81423002 L94.7803119,4.41481481 C94.780117,4.56452242 94.9013645,4.68557505 95.0510721,4.68557505 L95.0510721,4.68557505 Z" id="Shape"></path>
                <path d="M99.534308,27.0619883 L99.5192982,27.0619883 C99.3697856,27.0619883 99.248538,27.1830409 99.248538,27.3327485 L99.248538,27.9191033 C99.248538,28.068616 99.1274854,28.1898635 98.9777778,28.1898635 L97.8419103,28.1898635 C97.6923977,28.1898635 97.5711501,28.0688109 97.5711501,27.9191033 L97.5711501,27.3327485 C97.5711501,27.1832359 97.4500975,27.0619883 97.3003899,27.0619883 L95.0582846,27.0619883 C94.9087719,27.0619883 94.7875244,27.1830409 94.7875244,27.3327485 L94.7875244,28.4904483 C94.7875244,28.639961 94.908577,28.7612086 95.0582846,28.7612086 L96.1869396,28.7612086 C96.3364522,28.7612086 96.4576998,28.6401559 96.4576998,28.4904483 L96.4576998,28.4608187 C96.4576998,28.311306 96.3366472,28.1900585 96.1869396,28.1900585 L95.6148148,28.1900585 C95.4653021,28.1900585 95.3440546,28.0690058 95.3440546,27.9192982 L95.3440546,27.8898635 C95.3440546,27.7403509 95.4651072,27.6191033 95.6148148,27.6191033 L96.7438596,27.6191033 C96.8933723,27.6191033 97.0146199,27.7401559 97.0146199,27.8898635 L97.0146199,28.4904483 C97.0146199,28.639961 97.1356725,28.7612086 97.2853801,28.7612086 L99.5345029,28.7612086 C99.6840156,28.7612086 99.8052632,28.6401559 99.8052632,28.4904483 L99.8052632,27.3327485 C99.8050682,27.1832359 99.6840156,27.0619883 99.534308,27.0619883 L99.534308,27.0619883 Z M98.4138402,27.0619883 L98.3984405,27.0619883 C98.2489279,27.0619883 98.1276803,27.1830409 98.1276803,27.3327485 L98.1276803,27.3481481 C98.1276803,27.4976608 98.2487329,27.6189084 98.3984405,27.6189084 L98.4138402,27.6189084 C98.5633528,27.6189084 98.6846004,27.4978558 98.6846004,27.3481481 L98.6846004,27.3327485 C98.6846004,27.1832359 98.5633528,27.0619883 98.4138402,27.0619883 L98.4138402,27.0619883 Z M99.534308,29.3319688 L92.8241715,29.3319688 C92.6746589,29.3319688 92.5534113,29.4530214 92.5534113,29.602729 L92.5534113,29.6323587 C92.5534113,29.7818713 92.6744639,29.9031189 92.8241715,29.9031189 L99.534308,29.9031189 C99.6838207,29.9031189 99.8050682,29.7820663 99.8050682,29.6323587 L99.8050682,29.602729 C99.8050682,29.4530214 99.6840156,29.3319688 99.534308,29.3319688 L99.534308,29.3319688 Z M92.8243665,27.0619883 L93.9530214,27.0619883 C94.1025341,27.0619883 94.2237817,27.1830409 94.2237817,27.3327485 L94.2237817,28.4904483 C94.2237817,28.639961 94.102729,28.7612086 93.9530214,28.7612086 L92.2672515,28.7612086 C92.1177388,28.7612086 91.9964912,28.8822612 91.9964912,29.0319688 L91.9964912,29.6325536 C91.9964912,29.7820663 91.8754386,29.9033138 91.725731,29.9033138 L91.7107212,29.9033138 C91.5612086,29.9033138 91.439961,29.7822612 91.439961,29.6325536 L91.439961,27.8898635 C91.439961,27.7403509 91.3189084,27.6191033 91.1692008,27.6191033 L91.1538012,27.6191033 C91.0042885,27.6191033 90.8830409,27.7401559 90.8830409,27.8898635 L90.8830409,29.6325536 C90.8830409,29.7820663 90.7619883,29.9033138 90.6122807,29.9033138 L90.597271,29.9033138 C90.4477583,29.9033138 90.3265107,29.7822612 90.3265107,29.6325536 L90.3265107,27.8898635 C90.3265107,27.7403509 90.2054581,27.6191033 90.0557505,27.6191033 L90.0333333,27.6191033 C89.8838207,27.6191033 89.7625731,27.7401559 89.7625731,27.8898635 L89.7625731,29.6325536 C89.7625731,29.7820663 89.6415205,29.9033138 89.4918129,29.9033138 L89.4836257,29.9033138 C89.3341131,29.9033138 89.2128655,29.7822612 89.2128655,29.6325536 L89.2128655,27.3329435 C89.2128655,27.1834308 89.3339181,27.0621832 89.4836257,27.0621832 L91.725731,27.0621832 C91.8752437,27.0621832 91.9964912,27.1832359 91.9964912,27.3329435 L91.9964912,27.9192982 C91.9964912,28.0688109 92.1175439,28.1900585 92.2672515,28.1900585 L93.3959064,28.1900585 C93.5454191,28.1900585 93.6666667,28.0690058 93.6666667,27.9192982 L93.6666667,27.8898635 C93.6666667,27.7403509 93.545614,27.6191033 93.3959064,27.6191033 L92.8241715,27.6191033 C92.6746589,27.6191033 92.5534113,27.4980507 92.5534113,27.3483431 L92.5534113,27.3329435 C92.5534113,27.1832359 92.6748538,27.0619883 92.8243665,27.0619883 L92.8243665,27.0619883 Z" id="Shape"></path>
                <path d="M88.3785575,27.0619883 L88.3561404,27.0619883 C88.2066277,27.0619883 88.0853801,27.1830409 88.0853801,27.3327485 L88.0853801,27.9191033 C88.0853801,28.068616 87.9643275,28.1898635 87.8146199,28.1898635 L86.6929825,28.1898635 C86.5434698,28.1898635 86.4222222,28.0688109 86.4222222,27.9191033 L86.4222222,27.3327485 C86.4222222,27.1832359 86.3011696,27.0619883 86.151462,27.0619883 L83.9093567,27.0619883 C83.7598441,27.0619883 83.6385965,27.1830409 83.6385965,27.3327485 L83.6385965,28.4904483 C83.6385965,28.639961 83.7596491,28.7612086 83.9093567,28.7612086 L85.0380117,28.7612086 C85.1875244,28.7612086 85.3087719,28.6401559 85.3087719,28.4904483 L85.3087719,28.4608187 C85.3087719,28.311306 85.1877193,28.1900585 85.0380117,28.1900585 L84.4658869,28.1900585 C84.3163743,28.1900585 84.1951267,28.0690058 84.1951267,27.9192982 L84.1951267,27.8898635 C84.1951267,27.7403509 84.3161793,27.6191033 84.4658869,27.6191033 L85.5949318,27.6191033 C85.7444444,27.6191033 85.865692,27.7401559 85.865692,27.8898635 L85.865692,28.4904483 C85.865692,28.639961 85.9867446,28.7612086 86.1364522,28.7612086 L88.3785575,28.7612086 C88.5280702,28.7612086 88.6493177,28.6401559 88.6493177,28.4904483 L88.6493177,27.3327485 C88.6491228,27.1832359 88.5278752,27.0619883 88.3785575,27.0619883 L88.3785575,27.0619883 Z M87.2649123,27.0619883 L87.2499025,27.0619883 C87.1003899,27.0619883 86.9791423,27.1830409 86.9791423,27.3327485 L86.9791423,27.3481481 C86.9791423,27.4976608 87.1001949,27.6189084 87.2499025,27.6189084 L87.2649123,27.6189084 C87.414425,27.6189084 87.5356725,27.4978558 87.5356725,27.3481481 L87.5356725,27.3327485 C87.5354776,27.1832359 87.414425,27.0619883 87.2649123,27.0619883 L87.2649123,27.0619883 Z M88.3785575,29.3319688 L81.6752437,29.3319688 C81.525731,29.3319688 81.4044834,29.4530214 81.4044834,29.602729 L81.4044834,29.6323587 C81.4044834,29.7818713 81.5255361,29.9031189 81.6752437,29.9031189 L88.3785575,29.9031189 C88.5280702,29.9031189 88.6493177,29.7820663 88.6493177,29.6323587 L88.6493177,29.602729 C88.6491228,29.4530214 88.5278752,29.3319688 88.3785575,29.3319688 L88.3785575,29.3319688 Z M81.6752437,27.0619883 L82.8111111,27.0619883 C82.9606238,27.0619883 83.0818713,27.1830409 83.0818713,27.3327485 L83.0818713,28.4904483 C83.0818713,28.639961 82.9608187,28.7612086 82.8111111,28.7612086 L81.1253411,28.7612086 C80.9758285,28.7612086 80.8545809,28.8822612 80.8545809,29.0319688 L80.8545809,29.6325536 C80.8545809,29.7820663 80.7335283,29.9033138 80.5838207,29.9033138 L80.5614035,29.9033138 C80.4118908,29.9033138 80.2906433,29.7822612 80.2906433,29.6325536 L80.2906433,27.8898635 C80.2906433,27.7403509 80.1695906,27.6191033 80.019883,27.6191033 L79.9974659,27.6191033 C79.8479532,27.6191033 79.7267057,27.7401559 79.7267057,27.8898635 L79.7267057,29.6325536 C79.7267057,29.7820663 79.605653,29.9033138 79.4559454,29.9033138 L79.4477583,29.9033138 C79.2982456,29.9033138 79.1769981,29.7822612 79.1769981,29.6325536 L79.1769981,27.8898635 C79.1769981,27.7403509 79.0559454,27.6191033 78.9062378,27.6191033 L78.8838207,27.6191033 C78.734308,27.6191033 78.6130604,27.7401559 78.6130604,27.8898635 L78.6130604,29.6325536 C78.6130604,29.7820663 78.4920078,29.9033138 78.3423002,29.9033138 L78.3272904,29.9033138 C78.1777778,29.9033138 78.0565302,29.7822612 78.0565302,29.6325536 L78.0565302,27.3329435 C78.0565302,27.1834308 78.1775828,27.0621832 78.3272904,27.0621832 L80.5836257,27.0621832 C80.7331384,27.0621832 80.854386,27.1832359 80.854386,27.3329435 L80.854386,27.9192982 C80.854386,28.0688109 80.9754386,28.1900585 81.1251462,28.1900585 L82.2467836,28.1900585 C82.3962963,28.1900585 82.5175439,28.0690058 82.5175439,27.9192982 L82.5175439,27.8898635 C82.5175439,27.7403509 82.3964912,27.6191033 82.2467836,27.6191033 L81.6746589,27.6191033 C81.5251462,27.6191033 81.4038986,27.4980507 81.4038986,27.3483431 L81.4038986,27.3329435 C81.4044834,27.1832359 81.525731,27.0619883 81.6752437,27.0619883 L81.6752437,27.0619883 Z" id="Shape"></path>
                <path d="M77.2292398,27.0619883 L77.21423,27.0619883 C77.0647173,27.0619883 76.9434698,27.1830409 76.9434698,27.3327485 L76.9434698,27.9191033 C76.9434698,28.068616 76.8224172,28.1898635 76.6727096,28.1898635 L75.5436647,28.1898635 C75.394152,28.1898635 75.2729045,28.0688109 75.2729045,27.9191033 L75.2729045,27.3327485 C75.2729045,27.1832359 75.1518519,27.0619883 75.0021442,27.0619883 L72.7530214,27.0619883 C72.6035088,27.0619883 72.4822612,27.1830409 72.4822612,27.3327485 L72.4822612,28.4904483 C72.4822612,28.639961 72.6033138,28.7612086 72.7530214,28.7612086 L73.8816764,28.7612086 C74.0311891,28.7612086 74.1524366,28.6401559 74.1524366,28.4904483 L74.1524366,28.4608187 C74.1524366,28.311306 74.031384,28.1900585 73.8816764,28.1900585 L73.3095517,28.1900585 C73.160039,28.1900585 73.0387914,28.0690058 73.0387914,27.9192982 L73.0387914,27.8898635 C73.0387914,27.7403509 73.1598441,27.6191033 73.3095517,27.6191033 L74.4454191,27.6191033 C74.5949318,27.6191033 74.7161793,27.7401559 74.7161793,27.8898635 L74.7161793,28.4904483 C74.7161793,28.639961 74.837232,28.7612086 74.9869396,28.7612086 L77.2290448,28.7612086 C77.3785575,28.7612086 77.4998051,28.6401559 77.4998051,28.4904483 L77.4998051,27.3327485 C77.5001949,27.1832359 77.3787524,27.0619883 77.2292398,27.0619883 L77.2292398,27.0619883 Z M76.1157895,27.0619883 L76.1007797,27.0619883 C75.9512671,27.0619883 75.8300195,27.1830409 75.8300195,27.3327485 L75.8300195,27.3481481 C75.8300195,27.4976608 75.9510721,27.6189084 76.1007797,27.6189084 L76.1157895,27.6189084 C76.2653021,27.6189084 76.3865497,27.4978558 76.3865497,27.3481481 L76.3865497,27.3327485 C76.3865497,27.1832359 76.2653021,27.0619883 76.1157895,27.0619883 L76.1157895,27.0619883 Z M77.2292398,29.3319688 L70.5187135,29.3319688 C70.3692008,29.3319688 70.2479532,29.4530214 70.2479532,29.602729 L70.2479532,29.6323587 C70.2479532,29.7818713 70.3690058,29.9031189 70.5187135,29.9031189 L77.2292398,29.9031189 C77.3787524,29.9031189 77.5,29.7820663 77.5,29.6323587 L77.5,29.602729 C77.5001949,29.4530214 77.3787524,29.3319688 77.2292398,29.3319688 L77.2292398,29.3319688 Z M70.5189084,27.0619883 L71.6547758,27.0619883 C71.8042885,27.0619883 71.9255361,27.1830409 71.9255361,27.3327485 L71.9255361,28.4904483 C71.9255361,28.639961 71.8044834,28.7612086 71.6547758,28.7612086 L69.9693957,28.7612086 C69.819883,28.7612086 69.6986355,28.8822612 69.6986355,29.0319688 L69.6986355,29.6325536 C69.6986355,29.7820663 69.5775828,29.9033138 69.4278752,29.9033138 L69.4124756,29.9033138 C69.262963,29.9033138 69.1417154,29.7822612 69.1417154,29.6325536 L69.1417154,27.8898635 C69.1417154,27.7403509 69.0206628,27.6191033 68.8709552,27.6191033 L68.848538,27.6191033 C68.6990253,27.6191033 68.5777778,27.7401559 68.5777778,27.8898635 L68.5777778,29.6325536 C68.5777778,29.7820663 68.4567251,29.9033138 68.3070175,29.9033138 L68.2846004,29.9033138 C68.1350877,29.9033138 68.0138402,29.7822612 68.0138402,29.6325536 L68.0138402,27.8898635 C68.0138402,27.7403509 67.8927875,27.6191033 67.7430799,27.6191033 L67.7348928,27.6191033 C67.5853801,27.6191033 67.4641326,27.7401559 67.4641326,27.8898635 L67.4641326,29.6325536 C67.4641326,29.7820663 67.3430799,29.9033138 67.1933723,29.9033138 L67.1783626,29.9033138 C67.0288499,29.9033138 66.9076023,29.7822612 66.9076023,29.6325536 L66.9076023,27.3329435 C66.9076023,27.1834308 67.028655,27.0621832 67.1783626,27.0621832 L69.4278752,27.0621832 C69.5773879,27.0621832 69.6986355,27.1832359 69.6986355,27.3329435 L69.6986355,27.9192982 C69.6986355,28.0688109 69.8196881,28.1900585 69.9693957,28.1900585 L71.0980507,28.1900585 C71.2475634,28.1900585 71.3688109,28.0690058 71.3688109,27.9192982 L71.3688109,27.8898635 C71.3688109,27.7403509 71.2477583,27.6191033 71.0980507,27.6191033 L70.5185185,27.6191033 C70.3690058,27.6191033 70.2477583,27.4980507 70.2477583,27.3483431 L70.2477583,27.3329435 C70.2481481,27.1832359 70.3693957,27.0619883 70.5189084,27.0619883 L70.5189084,27.0619883 Z" id="Shape"></path>
                <path d="M66.0805068,27.0619883 L66.0654971,27.0619883 C65.9159844,27.0619883 65.7947368,27.1830409 65.7947368,27.3327485 L65.7947368,27.9191033 C65.7947368,28.068616 65.6736842,28.1898635 65.5239766,28.1898635 L64.3953216,28.1898635 C64.245809,28.1898635 64.1245614,28.0688109 64.1245614,27.9191033 L64.1245614,27.3327485 C64.1245614,27.1832359 64.0035088,27.0619883 63.8538012,27.0619883 L61.6042885,27.0619883 C61.4547758,27.0619883 61.3335283,27.1830409 61.3335283,27.3327485 L61.3335283,28.4904483 C61.3335283,28.639961 61.4545809,28.7612086 61.6042885,28.7612086 L62.7401559,28.7612086 C62.8896686,28.7612086 63.0109162,28.6401559 63.0109162,28.4904483 L63.0109162,28.4608187 C63.0109162,28.311306 62.8898635,28.1900585 62.7401559,28.1900585 L62.1680312,28.1900585 C62.0185185,28.1900585 61.897271,28.0690058 61.897271,27.9192982 L61.897271,27.8898635 C61.897271,27.7403509 62.0183236,27.6191033 62.1680312,27.6191033 L63.2966862,27.6191033 C63.4461988,27.6191033 63.5674464,27.7401559 63.5674464,27.8898635 L63.5674464,28.4904483 C63.5674464,28.639961 63.688499,28.7612086 63.8382066,28.7612086 L66.0803119,28.7612086 C66.2298246,28.7612086 66.3510721,28.6401559 66.3510721,28.4904483 L66.3510721,27.3327485 C66.3510721,27.1832359 66.2298246,27.0619883 66.0805068,27.0619883 L66.0805068,27.0619883 Z M64.9668616,27.0619883 L64.9518519,27.0619883 C64.8023392,27.0619883 64.6810916,27.1830409 64.6810916,27.3327485 L64.6810916,27.3481481 C64.6810916,27.4976608 64.8021442,27.6189084 64.9518519,27.6189084 L64.9668616,27.6189084 C65.1163743,27.6189084 65.2376218,27.4978558 65.2376218,27.3481481 L65.2376218,27.3327485 C65.2374269,27.1832359 65.1163743,27.0619883 64.9668616,27.0619883 L64.9668616,27.0619883 Z M66.0805068,29.3319688 L59.377193,29.3319688 C59.2276803,29.3319688 59.1064327,29.4530214 59.1064327,29.602729 L59.1064327,29.6323587 C59.1064327,29.7818713 59.2274854,29.9031189 59.377193,29.9031189 L66.0805068,29.9031189 C66.2300195,29.9031189 66.3512671,29.7820663 66.3512671,29.6323587 L66.3512671,29.602729 C66.3510721,29.4530214 66.2298246,29.3319688 66.0805068,29.3319688 L66.0805068,29.3319688 Z M59.377193,27.0619883 L60.5130604,27.0619883 C60.6625731,27.0619883 60.7838207,27.1830409 60.7838207,27.3327485 L60.7838207,28.4904483 C60.7838207,28.639961 60.662768,28.7612086 60.5130604,28.7612086 L58.8130604,28.7612086 C58.6635478,28.7612086 58.5423002,28.8822612 58.5423002,29.0319688 L58.5423002,29.6325536 C58.5423002,29.7820663 58.4212476,29.9033138 58.27154,29.9033138 L58.2565302,29.9033138 C58.1070175,29.9033138 57.98577,29.7822612 57.98577,29.6325536 L57.98577,27.8898635 C57.98577,27.7403509 57.8647173,27.6191033 57.7150097,27.6191033 L57.7068226,27.6191033 C57.5573099,27.6191033 57.4360624,27.7401559 57.4360624,27.8898635 L57.4360624,29.6325536 C57.4360624,29.7820663 57.3150097,29.9033138 57.1653021,29.9033138 L57.142885,29.9033138 C56.9933723,29.9033138 56.8721248,29.7822612 56.8721248,29.6325536 L56.8721248,27.8898635 C56.8721248,27.7403509 56.7510721,27.6191033 56.6013645,27.6191033 L56.5859649,27.6191033 C56.4364522,27.6191033 56.3152047,27.7401559 56.3152047,27.8898635 L56.3152047,29.6325536 C56.3152047,29.7820663 56.194152,29.9033138 56.0444444,29.9033138 L56.0294347,29.9033138 C55.879922,29.9033138 55.7586745,29.7822612 55.7586745,29.6325536 L55.7586745,27.3329435 C55.7586745,27.1834308 55.8797271,27.0621832 56.0294347,27.0621832 L58.27154,27.0621832 C58.4210526,27.0621832 58.5423002,27.1832359 58.5423002,27.3329435 L58.5423002,27.9192982 C58.5423002,28.0688109 58.6633528,28.1900585 58.8130604,28.1900585 L59.9489279,28.1900585 C60.0984405,28.1900585 60.2196881,28.0690058 60.2196881,27.9192982 L60.2196881,27.8898635 C60.2196881,27.7403509 60.0986355,27.6191033 59.9489279,27.6191033 L59.3768031,27.6191033 C59.2272904,27.6191033 59.1060429,27.4980507 59.1060429,27.3483431 L59.1060429,27.3329435 C59.1066277,27.1832359 59.2276803,27.0619883 59.377193,27.0619883 L59.377193,27.0619883 Z" id="Shape"></path>
                <path d="M54.9317739,27.0619883 L54.9163743,27.0619883 C54.7668616,27.0619883 54.645614,27.1830409 54.645614,27.3327485 L54.645614,27.9191033 C54.645614,28.068616 54.5245614,28.1898635 54.3748538,28.1898635 L53.2461988,28.1898635 C53.0966862,28.1898635 52.9754386,28.0688109 52.9754386,27.9191033 L52.9754386,27.3327485 C52.9754386,27.1832359 52.854386,27.0619883 52.7046784,27.0619883 L50.4551657,27.0619883 C50.305653,27.0619883 50.1844055,27.1830409 50.1844055,27.3327485 L50.1844055,28.4904483 C50.1844055,28.639961 50.3054581,28.7612086 50.4551657,28.7612086 L51.5910331,28.7612086 C51.7405458,28.7612086 51.8617934,28.6401559 51.8617934,28.4904483 L51.8617934,28.4608187 C51.8617934,28.311306 51.7407407,28.1900585 51.5910331,28.1900585 L51.0120858,28.1900585 C50.8625731,28.1900585 50.7413255,28.0690058 50.7413255,27.9192982 L50.7413255,27.8898635 C50.7413255,27.7403509 50.8623782,27.6191033 51.0120858,27.6191033 L52.1407407,27.6191033 C52.2902534,27.6191033 52.411501,27.7401559 52.411501,27.8898635 L52.411501,28.4904483 C52.411501,28.639961 52.5325536,28.7612086 52.6822612,28.7612086 L54.9317739,28.7612086 C55.0812865,28.7612086 55.2025341,28.6401559 55.2025341,28.4904483 L55.2025341,27.3327485 C55.2023392,27.1832359 55.0812865,27.0619883 54.9317739,27.0619883 L54.9317739,27.0619883 Z M53.8109162,27.0619883 L53.802729,27.0619883 C53.6532164,27.0619883 53.5319688,27.1830409 53.5319688,27.3327485 L53.5319688,27.3481481 C53.5319688,27.4976608 53.6530214,27.6189084 53.802729,27.6189084 L53.8109162,27.6189084 C53.9604288,27.6189084 54.0816764,27.4978558 54.0816764,27.3481481 L54.0816764,27.3327485 C54.0816764,27.1832359 53.9604288,27.0619883 53.8109162,27.0619883 L53.8109162,27.0619883 Z M54.9317739,29.3319688 L48.2212476,29.3319688 C48.0717349,29.3319688 47.9504873,29.4530214 47.9504873,29.602729 L47.9504873,29.6323587 C47.9504873,29.7818713 48.07154,29.9031189 48.2212476,29.9031189 L54.9317739,29.9031189 C55.0812865,29.9031189 55.2025341,29.7820663 55.2025341,29.6323587 L55.2025341,29.602729 C55.2023392,29.4530214 55.0812865,29.3319688 54.9317739,29.3319688 L54.9317739,29.3319688 Z M48.2210526,27.0619883 L49.3569201,27.0619883 C49.5064327,27.0619883 49.6276803,27.1830409 49.6276803,27.3327485 L49.6276803,28.4904483 C49.6276803,28.639961 49.5066277,28.7612086 49.3569201,28.7612086 L47.6641326,28.7612086 C47.5146199,28.7612086 47.3933723,28.8822612 47.3933723,29.0319688 L47.3933723,29.6325536 C47.3933723,29.7820663 47.2723197,29.9033138 47.1226121,29.9033138 L47.1076023,29.9033138 C46.9580897,29.9033138 46.8368421,29.7822612 46.8368421,29.6325536 L46.8368421,27.8898635 C46.8368421,27.7403509 46.7157895,27.6191033 46.5660819,27.6191033 L46.5506823,27.6191033 C46.4011696,27.6191033 46.279922,27.7401559 46.279922,27.8898635 L46.279922,29.6325536 C46.279922,29.7820663 46.1588694,29.9033138 46.0091618,29.9033138 L45.994152,29.9033138 C45.8446394,29.9033138 45.7233918,29.7822612 45.7233918,29.6325536 L45.7233918,27.8898635 C45.7233918,27.7403509 45.6023392,27.6191033 45.4526316,27.6191033 L45.4376218,27.6191033 C45.2881092,27.6191033 45.1668616,27.7401559 45.1668616,27.8898635 L45.1668616,29.6325536 C45.1668616,29.7820663 45.045809,29.9033138 44.8961014,29.9033138 L44.8807018,29.9033138 C44.7311891,29.9033138 44.6099415,29.7822612 44.6099415,29.6325536 L44.6099415,27.3329435 C44.6099415,27.1834308 44.7309942,27.0621832 44.8807018,27.0621832 L47.122807,27.0621832 C47.2723197,27.0621832 47.3935673,27.1832359 47.3935673,27.3329435 L47.3935673,27.9192982 C47.3935673,28.0688109 47.5146199,28.1900585 47.6643275,28.1900585 L48.8001949,28.1900585 C48.9497076,28.1900585 49.0709552,28.0690058 49.0709552,27.9192982 L49.0709552,27.8898635 C49.0709552,27.7403509 48.9499025,27.6191033 48.8001949,27.6191033 L48.2212476,27.6191033 C48.0717349,27.6191033 47.9504873,27.4980507 47.9504873,27.3483431 L47.9504873,27.3329435 C47.9504873,27.1832359 48.07154,27.0619883 48.2210526,27.0619883 L48.2210526,27.0619883 Z" id="Shape"></path>
                <path d="M43.7826511,27.0619883 L43.7672515,27.0619883 C43.6177388,27.0619883 43.4964912,27.1830409 43.4964912,27.3327485 L43.4964912,27.9191033 C43.4964912,28.068616 43.3754386,28.1898635 43.225731,28.1898635 L42.097076,28.1898635 C41.9475634,28.1898635 41.8263158,28.0688109 41.8263158,27.9191033 L41.8263158,27.3327485 C41.8263158,27.1832359 41.7052632,27.0619883 41.5555556,27.0619883 L39.3060429,27.0619883 C39.1565302,27.0619883 39.0352827,27.1830409 39.0352827,27.3327485 L39.0352827,28.4904483 C39.0352827,28.639961 39.1563353,28.7612086 39.3060429,28.7612086 L40.4350877,28.7612086 C40.5846004,28.7612086 40.705848,28.6401559 40.705848,28.4904483 L40.705848,28.4608187 C40.705848,28.311306 40.5847953,28.1900585 40.4350877,28.1900585 L39.8699805,28.1900585 C39.7204678,28.1900585 39.5992203,28.0690058 39.5992203,27.9192982 L39.5992203,27.8898635 C39.5992203,27.7403509 39.7202729,27.6191033 39.8699805,27.6191033 L40.9916179,27.6191033 C41.1411306,27.6191033 41.2623782,27.7401559 41.2623782,27.8898635 L41.2623782,28.4904483 C41.2623782,28.639961 41.3834308,28.7612086 41.5331384,28.7612086 L43.7826511,28.7612086 C43.9321637,28.7612086 44.0534113,28.6401559 44.0534113,28.4904483 L44.0534113,27.3327485 C44.0534113,27.1832359 43.9321637,27.0619883 43.7826511,27.0619883 L43.7826511,27.0619883 Z M42.6619883,27.0619883 L42.6538012,27.0619883 C42.5042885,27.0619883 42.3830409,27.1830409 42.3830409,27.3327485 L42.3830409,27.3481481 C42.3830409,27.4976608 42.5040936,27.6189084 42.6538012,27.6189084 L42.6619883,27.6189084 C42.811501,27.6189084 42.9327485,27.4978558 42.9327485,27.3481481 L42.9327485,27.3327485 C42.9325536,27.1832359 42.811501,27.0619883 42.6619883,27.0619883 L42.6619883,27.0619883 Z M43.7826511,29.3319688 L37.0721248,29.3319688 C36.9226121,29.3319688 36.8013645,29.4530214 36.8013645,29.602729 L36.8013645,29.6323587 C36.8013645,29.7818713 36.9224172,29.9031189 37.0721248,29.9031189 L43.7824561,29.9031189 C43.9319688,29.9031189 44.0532164,29.7820663 44.0532164,29.6323587 L44.0532164,29.602729 C44.0534113,29.4530214 43.9321637,29.3319688 43.7826511,29.3319688 L43.7826511,29.3319688 Z M37.0721248,27.0619883 L38.2007797,27.0619883 C38.3502924,27.0619883 38.47154,27.1830409 38.47154,27.3327485 L38.47154,28.4904483 C38.47154,28.639961 38.3504873,28.7612086 38.2007797,28.7612086 L36.5153996,28.7612086 C36.3658869,28.7612086 36.2446394,28.8822612 36.2446394,29.0319688 L36.2446394,29.6325536 C36.2446394,29.7820663 36.1235867,29.9033138 35.9738791,29.9033138 L35.9584795,29.9033138 C35.8089669,29.9033138 35.6877193,29.7822612 35.6877193,29.6325536 L35.6877193,27.8898635 C35.6877193,27.7403509 35.5666667,27.6191033 35.4169591,27.6191033 L35.4019493,27.6191033 C35.2524366,27.6191033 35.1311891,27.7401559 35.1311891,27.8898635 L35.1311891,29.6325536 C35.1311891,29.7820663 35.0101365,29.9033138 34.8604288,29.9033138 L34.8450292,29.9033138 C34.6955166,29.9033138 34.574269,29.7822612 34.574269,29.6325536 L34.574269,27.8898635 C34.574269,27.7403509 34.4532164,27.6191033 34.3035088,27.6191033 L34.288499,27.6191033 C34.1389864,27.6191033 34.0177388,27.7401559 34.0177388,27.8898635 L34.0177388,29.6325536 C34.0177388,29.7820663 33.8966862,29.9033138 33.7469786,29.9033138 L33.7315789,29.9033138 C33.5820663,29.9033138 33.4608187,29.7822612 33.4608187,29.6325536 L33.4608187,27.3329435 C33.4608187,27.1834308 33.5818713,27.0621832 33.7315789,27.0621832 L35.974269,27.0621832 C36.1237817,27.0621832 36.2450292,27.1832359 36.2450292,27.3329435 L36.2450292,27.9192982 C36.2450292,28.0688109 36.3660819,28.1900585 36.5157895,28.1900585 L37.651462,28.1900585 C37.8009747,28.1900585 37.9222222,28.0690058 37.9222222,27.9192982 L37.9222222,27.8898635 C37.9222222,27.7403509 37.8011696,27.6191033 37.651462,27.6191033 L37.0725146,27.6191033 C36.9230019,27.6191033 36.8017544,27.4980507 36.8017544,27.3483431 L36.8017544,27.3329435 C36.8013645,27.1832359 36.922807,27.0619883 37.0721248,27.0619883 L37.0721248,27.0619883 Z" id="Shape"></path>
                <path d="M32.6337232,27.0619883 L32.6183236,27.0619883 C32.4688109,27.0619883 32.3475634,27.1830409 32.3475634,27.3327485 L32.3475634,27.9191033 C32.3475634,28.068616 32.2265107,28.1898635 32.0768031,28.1898635 L30.9411306,28.1898635 C30.7916179,28.1898635 30.6703704,28.0688109 30.6703704,27.9191033 L30.6703704,27.3327485 C30.6703704,27.1832359 30.5493177,27.0619883 30.3996101,27.0619883 L28.1569201,27.0619883 C28.0074074,27.0619883 27.8861598,27.1830409 27.8861598,27.3327485 L27.8861598,28.4904483 C27.8861598,28.639961 28.0072125,28.7612086 28.1569201,28.7612086 L29.2859649,28.7612086 C29.4354776,28.7612086 29.5567251,28.6401559 29.5567251,28.4904483 L29.5567251,28.4608187 C29.5567251,28.311306 29.4356725,28.1900585 29.2859649,28.1900585 L28.7064327,28.1900585 C28.5569201,28.1900585 28.4356725,28.0690058 28.4356725,27.9192982 L28.4356725,27.8898635 C28.4356725,27.7403509 28.5567251,27.6191033 28.7064327,27.6191033 L29.8497076,27.6191033 C29.9992203,27.6191033 30.1204678,27.7401559 30.1204678,27.8898635 L30.1204678,28.4904483 C30.1204678,28.639961 30.2415205,28.7612086 30.3912281,28.7612086 L32.6333333,28.7612086 C32.782846,28.7612086 32.9040936,28.6401559 32.9040936,28.4904483 L32.9040936,27.3327485 C32.9042885,27.1832359 32.7832359,27.0619883 32.6337232,27.0619883 L32.6337232,27.0619883 Z M31.520078,27.0619883 L31.4976608,27.0619883 C31.3481481,27.0619883 31.2269006,27.1830409 31.2269006,27.3327485 L31.2269006,27.3481481 C31.2269006,27.4976608 31.3479532,27.6189084 31.4976608,27.6189084 L31.520078,27.6189084 C31.6695906,27.6189084 31.7908382,27.4978558 31.7908382,27.3481481 L31.7908382,27.3327485 C31.7908382,27.1832359 31.6695906,27.0619883 31.520078,27.0619883 L31.520078,27.0619883 Z M32.6337232,29.3319688 L25.9233918,29.3319688 C25.7738791,29.3319688 25.6526316,29.4530214 25.6526316,29.602729 L25.6526316,29.6323587 C25.6526316,29.7818713 25.7736842,29.9031189 25.9233918,29.9031189 L32.6337232,29.9031189 C32.7832359,29.9031189 32.9044834,29.7820663 32.9044834,29.6323587 L32.9044834,29.602729 C32.9042885,29.4530214 32.7832359,29.3319688 32.6337232,29.3319688 L32.6337232,29.3319688 Z M25.9230019,27.0619883 L27.0516569,27.0619883 C27.2011696,27.0619883 27.3224172,27.1830409 27.3224172,27.3327485 L27.3224172,28.4904483 C27.3224172,28.639961 27.2013645,28.7612086 27.0516569,28.7612086 L25.3662768,28.7612086 C25.2167641,28.7612086 25.0955166,28.8822612 25.0955166,29.0319688 L25.0955166,29.6325536 C25.0955166,29.7820663 24.9744639,29.9033138 24.8247563,29.9033138 L24.8093567,29.9033138 C24.6598441,29.9033138 24.5385965,29.7822612 24.5385965,29.6325536 L24.5385965,27.8898635 C24.5385965,27.7403509 24.4175439,27.6191033 24.2678363,27.6191033 L24.2528265,27.6191033 C24.1033138,27.6191033 23.9820663,27.7401559 23.9820663,27.8898635 L23.9820663,29.6325536 C23.9820663,29.7820663 23.8610136,29.9033138 23.711306,29.9033138 L23.6959064,29.9033138 C23.5463938,29.9033138 23.4251462,29.7822612 23.4251462,29.6325536 L23.4251462,27.8898635 C23.4251462,27.7403509 23.3040936,27.6191033 23.154386,27.6191033 L23.1319688,27.6191033 C22.9824561,27.6191033 22.8612086,27.7401559 22.8612086,27.8898635 L22.8612086,29.6325536 C22.8612086,29.7820663 22.7401559,29.9033138 22.5904483,29.9033138 L22.5824561,29.9033138 C22.4329435,29.9033138 22.3116959,29.7822612 22.3116959,29.6325536 L22.3116959,27.3329435 C22.3116959,27.1834308 22.4327485,27.0621832 22.5824561,27.0621832 L24.8245614,27.0621832 C24.9740741,27.0621832 25.0953216,27.1832359 25.0953216,27.3329435 L25.0953216,27.9192982 C25.0953216,28.0688109 25.2163743,28.1900585 25.3660819,28.1900585 L26.4877193,28.1900585 C26.637232,28.1900585 26.7584795,28.0690058 26.7584795,27.9192982 L26.7584795,27.8898635 C26.7584795,27.7403509 26.6374269,27.6191033 26.4877193,27.6191033 L25.9226121,27.6191033 C25.7730994,27.6191033 25.6518519,27.4980507 25.6518519,27.3483431 L25.6518519,27.3329435 C25.6524366,27.1832359 25.7734893,27.0619883 25.9230019,27.0619883 L25.9230019,27.0619883 Z" id="Shape"></path>
                <path d="M21.4775828,27.0619883 L21.4693957,27.0619883 C21.319883,27.0619883 21.1986355,27.1830409 21.1986355,27.3327485 L21.1986355,27.9191033 C21.1986355,28.068616 21.0775828,28.1898635 20.9278752,28.1898635 L19.7988304,28.1898635 C19.6493177,28.1898635 19.5280702,28.0688109 19.5280702,27.9191033 L19.5280702,27.3327485 C19.5280702,27.1832359 19.4070175,27.0619883 19.2573099,27.0619883 L17.008577,27.0619883 C16.8590643,27.0619883 16.7378168,27.1830409 16.7378168,27.3327485 L16.7378168,28.4904483 C16.7378168,28.639961 16.8588694,28.7612086 17.008577,28.7612086 L18.1298246,28.7612086 C18.2793372,28.7612086 18.4005848,28.6401559 18.4005848,28.4904483 L18.4005848,28.4608187 C18.4005848,28.311306 18.2795322,28.1900585 18.1298246,28.1900585 L17.5580897,28.1900585 C17.408577,28.1900585 17.2873294,28.0690058 17.2873294,27.9192982 L17.2873294,27.8898635 C17.2873294,27.7403509 17.4083821,27.6191033 17.5580897,27.6191033 L18.6939571,27.6191033 C18.8434698,27.6191033 18.9647173,27.7401559 18.9647173,27.8898635 L18.9647173,28.4904483 C18.9647173,28.639961 19.08577,28.7612086 19.2354776,28.7612086 L21.4781676,28.7612086 C21.6276803,28.7612086 21.7489279,28.6401559 21.7489279,28.4904483 L21.7489279,27.3327485 C21.748538,27.1832359 21.6270955,27.0619883 21.4775828,27.0619883 L21.4775828,27.0619883 Z M20.3641326,27.0619883 L20.3487329,27.0619883 C20.1992203,27.0619883 20.0779727,27.1830409 20.0779727,27.3327485 L20.0779727,27.3481481 C20.0779727,27.4976608 20.1990253,27.6189084 20.3487329,27.6189084 L20.3641326,27.6189084 C20.5136452,27.6189084 20.6348928,27.4978558 20.6348928,27.3481481 L20.6348928,27.3327485 C20.6348928,27.1832359 20.5136452,27.0619883 20.3641326,27.0619883 L20.3641326,27.0619883 Z M21.4775828,29.3319688 L14.760039,29.3319688 C14.6105263,29.3319688 14.4892788,29.4530214 14.4892788,29.602729 L14.4892788,29.6323587 C14.4892788,29.7818713 14.6103314,29.9031189 14.760039,29.9031189 L21.4777778,29.9031189 C21.6272904,29.9031189 21.748538,29.7820663 21.748538,29.6323587 L21.748538,29.602729 C21.748538,29.4530214 21.6270955,29.3319688 21.4775828,29.3319688 L21.4775828,29.3319688 Z M14.760039,27.0619883 L15.9033138,27.0619883 C16.0528265,27.0619883 16.1740741,27.1830409 16.1740741,27.3327485 L16.1740741,28.4904483 C16.1740741,28.639961 16.0530214,28.7612086 15.9033138,28.7612086 L14.2175439,28.7612086 C14.0680312,28.7612086 13.9467836,28.8822612 13.9467836,29.0319688 L13.9467836,29.6325536 C13.9467836,29.7820663 13.825731,29.9033138 13.6760234,29.9033138 L13.6536062,29.9033138 C13.5040936,29.9033138 13.382846,29.7822612 13.382846,29.6325536 L13.382846,27.8898635 C13.382846,27.7403509 13.2617934,27.6191033 13.1120858,27.6191033 L13.097076,27.6191033 C12.9475634,27.6191033 12.8263158,27.7401559 12.8263158,27.8898635 L12.8263158,29.6325536 C12.8263158,29.7820663 12.7052632,29.9033138 12.5555556,29.9033138 L12.5473684,29.9033138 C12.3978558,29.9033138 12.2766082,29.7822612 12.2766082,29.6325536 L12.2766082,27.8898635 C12.2766082,27.7403509 12.1555556,27.6191033 12.005848,27.6191033 L11.9834308,27.6191033 C11.8339181,27.6191033 11.7126706,27.7401559 11.7126706,27.8898635 L11.7126706,29.6325536 C11.7126706,29.7820663 11.5916179,29.9033138 11.4419103,29.9033138 L11.4265107,29.9033138 C11.2769981,29.9033138 11.1557505,29.7822612 11.1557505,29.6325536 L11.1557505,27.3329435 C11.1557505,27.1834308 11.2768031,27.0621832 11.4265107,27.0621832 L13.6760234,27.0621832 C13.8255361,27.0621832 13.9467836,27.1832359 13.9467836,27.3329435 L13.9467836,27.9192982 C13.9467836,28.0688109 14.0678363,28.1900585 14.2175439,28.1900585 L15.3461988,28.1900585 C15.4957115,28.1900585 15.6169591,28.0690058 15.6169591,27.9192982 L15.6169591,27.8898635 C15.6169591,27.7403509 15.4959064,27.6191033 15.3461988,27.6191033 L14.7604288,27.6191033 C14.6109162,27.6191033 14.4896686,27.4980507 14.4896686,27.3483431 L14.4896686,27.3329435 C14.4890838,27.1832359 14.6105263,27.0619883 14.760039,27.0619883 L14.760039,27.0619883 Z" id="Shape"></path>
                <path d="M10.328655,27.0619883 L10.3132554,27.0619883 C10.1637427,27.0619883 10.0424951,27.1830409 10.0424951,27.3327485 L10.0424951,27.9191033 C10.0424951,28.068616 9.9214425,28.1898635 9.77173489,28.1898635 L8.64307992,28.1898635 C8.49356725,28.1898635 8.37231969,28.0688109 8.37231969,27.9191033 L8.37231969,27.3327485 C8.37231969,27.1832359 8.25126706,27.0619883 8.10155945,27.0619883 L5.85224172,27.0619883 C5.70272904,27.0619883 5.58148148,27.1830409 5.58148148,27.3327485 L5.58148148,28.4904483 C5.58148148,28.639961 5.70253411,28.7612086 5.85224172,28.7612086 L6.97387914,28.7612086 C7.12339181,28.7612086 7.24463938,28.6401559 7.24463938,28.4904483 L7.24463938,28.4608187 C7.24463938,28.311306 7.12358674,28.1900585 6.97387914,28.1900585 L6.40175439,28.1900585 C6.25224172,28.1900585 6.13099415,28.0690058 6.13099415,27.9192982 L6.13099415,27.8898635 C6.13099415,27.7403509 6.25204678,27.6191033 6.40175439,27.6191033 L7.54502924,27.6191033 C7.69454191,27.6191033 7.81578947,27.7401559 7.81578947,27.8898635 L7.81578947,28.4904483 C7.81578947,28.639961 7.93684211,28.7612086 8.08654971,28.7612086 L10.328655,28.7612086 C10.4781676,28.7612086 10.5994152,28.6401559 10.5994152,28.4904483 L10.5994152,27.3327485 C10.5994152,27.1832359 10.4781676,27.0619883 10.328655,27.0619883 L10.328655,27.0619883 Z M9.21520468,27.0619883 L9.19980507,27.0619883 C9.0502924,27.0619883 8.92904483,27.1830409 8.92904483,27.3327485 L8.92904483,27.3481481 C8.92904483,27.4976608 9.05009747,27.6189084 9.19980507,27.6189084 L9.21520468,27.6189084 C9.36471735,27.6189084 9.48596491,27.4978558 9.48596491,27.3481481 L9.48596491,27.3327485 C9.48576998,27.1832359 9.36471735,27.0619883 9.21520468,27.0619883 L9.21520468,27.0619883 Z M10.328655,29.3319688 L3.62553606,29.3319688 C3.47602339,29.3319688 3.35477583,29.4530214 3.35477583,29.602729 L3.35477583,29.6323587 C3.35477583,29.7818713 3.47582846,29.9031189 3.62553606,29.9031189 L10.3288499,29.9031189 C10.4783626,29.9031189 10.5996101,29.7820663 10.5996101,29.6323587 L10.5996101,29.602729 C10.5994152,29.4530214 10.4781676,29.3319688 10.328655,29.3319688 L10.328655,29.3319688 Z M3.62553606,27.0619883 L4.75419103,27.0619883 C4.9037037,27.0619883 5.02495127,27.1830409 5.02495127,27.3327485 L5.02495127,28.4904483 C5.02495127,28.639961 4.90389864,28.7612086 4.75419103,28.7612086 L3.0545809,28.7612086 C2.90506823,28.7612086 2.78382066,28.8822612 2.78382066,29.0319688 L2.78382066,29.6325536 C2.78382066,29.7820663 2.66276803,29.9033138 2.51306043,29.9033138 L2.5122807,29.9033138 C2.36276803,29.9033138 2.24152047,29.7822612 2.24152047,29.6325536 L2.24152047,27.8898635 C2.24152047,27.7403509 2.12046784,27.6191033 1.97076023,27.6191033 L1.94074074,27.6191033 C1.79122807,27.6191033 1.66998051,27.7401559 1.66998051,27.8898635 L1.66998051,29.6325536 C1.66998051,29.7820663 1.54892788,29.9033138 1.39922027,29.9033138 L1.39863548,29.9033138 C1.24912281,29.9033138 1.12787524,29.7822612 1.12787524,29.6325536 L1.12787524,27.8898635 C1.12787524,27.7403509 1.00682261,27.6191033 0.85711501,27.6191033 L0.841520468,27.6191033 C0.692007797,27.6191033 0.570760234,27.7401559 0.570760234,27.8898635 L0.570760234,29.6325536 C0.570760234,29.7820663 0.449707602,29.9033138 0.3,29.9033138 L0.270760234,29.9033138 C0.121247563,29.9033138 0,29.7822612 0,29.6325536 L0,27.3329435 C0,27.1834308 0.121052632,27.0621832 0.270760234,27.0621832 L2.5128655,27.0621832 C2.66237817,27.0621832 2.78362573,27.1832359 2.78362573,27.3329435 L2.78362573,27.9192982 C2.78362573,28.0688109 2.90467836,28.1900585 3.05438596,28.1900585 L4.19746589,28.1900585 C4.34697856,28.1900585 4.46822612,28.0690058 4.46822612,27.9192982 L4.46822612,27.8898635 C4.46822612,27.7403509 4.34717349,27.6191033 4.19746589,27.6191033 L3.62573099,27.6191033 C3.47621832,27.6191033 3.35497076,27.4980507 3.35497076,27.3483431 L3.35497076,27.3329435 C3.35477583,27.1832359 3.47602339,27.0619883 3.62553606,27.0619883 L3.62553606,27.0619883 Z" id="Shape"></path>
                <path d="M99.534308,25.3348928 L95.0580897,25.3348928 C94.908577,25.3348928 94.7873294,25.4559454 94.7873294,25.605653 L94.7873294,26.2062378 C94.7873294,26.3557505 94.9083821,26.4769981 95.0580897,26.4769981 L99.534308,26.4769981 C99.6838207,26.4769981 99.8050682,26.3559454 99.8050682,26.2062378 L99.8050682,25.605653 C99.8050682,25.4559454 99.6840156,25.3348928 99.534308,25.3348928 L99.534308,25.3348928 Z M93.9528265,25.3348928 L89.4836257,25.3348928 C89.3341131,25.3348928 89.2128655,25.4559454 89.2128655,25.605653 L89.2128655,26.2062378 C89.2128655,26.3557505 89.3339181,26.4769981 89.4836257,26.4769981 L93.9528265,26.4769981 C94.1023392,26.4769981 94.2235867,26.3559454 94.2235867,26.2062378 L94.2235867,25.605653 C94.2235867,25.4559454 94.1023392,25.3348928 93.9528265,25.3348928 L93.9528265,25.3348928 Z" id="Shape"></path>
                <path d="M88.3785575,25.3348928 L83.9093567,25.3348928 C83.7598441,25.3348928 83.6385965,25.4559454 83.6385965,25.605653 L83.6385965,26.2062378 C83.6385965,26.3557505 83.7596491,26.4769981 83.9093567,26.4769981 L88.3785575,26.4769981 C88.5280702,26.4769981 88.6493177,26.3559454 88.6493177,26.2062378 L88.6493177,25.605653 C88.6491228,25.4559454 88.5278752,25.3348928 88.3785575,25.3348928 L88.3785575,25.3348928 Z M82.8111111,25.3348928 L78.3276803,25.3348928 C78.1781676,25.3348928 78.0569201,25.4559454 78.0569201,25.605653 L78.0569201,26.2062378 C78.0569201,26.3557505 78.1779727,26.4769981 78.3276803,26.4769981 L82.8111111,26.4769981 C82.9606238,26.4769981 83.0818713,26.3559454 83.0818713,26.2062378 L83.0818713,25.605653 C83.0818713,25.4559454 82.9608187,25.3348928 82.8111111,25.3348928 L82.8111111,25.3348928 Z" id="Shape"></path>
                <path d="M77.2292398,25.3348928 L72.7530214,25.3348928 C72.6035088,25.3348928 72.4822612,25.4559454 72.4822612,25.605653 L72.4822612,26.2062378 C72.4822612,26.3557505 72.6033138,26.4769981 72.7530214,26.4769981 L77.2292398,26.4769981 C77.3787524,26.4769981 77.5,26.3559454 77.5,26.2062378 L77.5,25.605653 C77.5001949,25.4559454 77.3787524,25.3348928 77.2292398,25.3348928 L77.2292398,25.3348928 Z M71.6549708,25.3348928 L67.1787524,25.3348928 C67.0292398,25.3348928 66.9079922,25.4559454 66.9079922,25.605653 L66.9079922,26.2062378 C66.9079922,26.3557505 67.0290448,26.4769981 67.1787524,26.4769981 L71.6549708,26.4769981 C71.8044834,26.4769981 71.925731,26.3559454 71.925731,26.2062378 L71.925731,25.605653 C71.925731,25.4559454 71.8042885,25.3348928 71.6549708,25.3348928 L71.6549708,25.3348928 Z" id="Shape"></path>
                <path d="M66.0805068,25.3348928 L61.6042885,25.3348928 C61.4547758,25.3348928 61.3335283,25.4559454 61.3335283,25.605653 L61.3335283,26.2062378 C61.3335283,26.3557505 61.4545809,26.4769981 61.6042885,26.4769981 L66.0805068,26.4769981 C66.2300195,26.4769981 66.3512671,26.3559454 66.3512671,26.2062378 L66.3512671,25.605653 C66.3510721,25.4559454 66.2298246,25.3348928 66.0805068,25.3348928 L66.0805068,25.3348928 Z M60.5130604,25.3348928 L56.0296296,25.3348928 C55.880117,25.3348928 55.7588694,25.4559454 55.7588694,25.605653 L55.7588694,26.2062378 C55.7588694,26.3557505 55.879922,26.4769981 56.0296296,26.4769981 L60.5130604,26.4769981 C60.6625731,26.4769981 60.7838207,26.3559454 60.7838207,26.2062378 L60.7838207,25.605653 C60.7838207,25.4559454 60.662768,25.3348928 60.5130604,25.3348928 L60.5130604,25.3348928 Z" id="Shape"></path>
                <path d="M54.9317739,25.3348928 L50.4551657,25.3348928 C50.305653,25.3348928 50.1844055,25.4559454 50.1844055,25.605653 L50.1844055,26.2062378 C50.1844055,26.3557505 50.3054581,26.4769981 50.4551657,26.4769981 L54.9317739,26.4769981 C55.0812865,26.4769981 55.2025341,26.3559454 55.2025341,26.2062378 L55.2025341,25.605653 C55.2023392,25.4559454 55.0812865,25.3348928 54.9317739,25.3348928 L54.9317739,25.3348928 Z M49.3573099,25.3348928 L44.8807018,25.3348928 C44.7311891,25.3348928 44.6099415,25.4559454 44.6099415,25.605653 L44.6099415,26.2062378 C44.6099415,26.3557505 44.7309942,26.4769981 44.8807018,26.4769981 L49.3573099,26.4769981 C49.5068226,26.4769981 49.6280702,26.3559454 49.6280702,26.2062378 L49.6280702,25.605653 C49.6278752,25.4559454 49.5068226,25.3348928 49.3573099,25.3348928 L49.3573099,25.3348928 Z" id="Shape"></path>
                <path d="M43.7826511,25.3348928 L39.3060429,25.3348928 C39.1565302,25.3348928 39.0352827,25.4559454 39.0352827,25.605653 L39.0352827,26.2062378 C39.0352827,26.3557505 39.1563353,26.4769981 39.3060429,26.4769981 L43.7826511,26.4769981 C43.9321637,26.4769981 44.0534113,26.3559454 44.0534113,26.2062378 L44.0534113,25.605653 C44.0534113,25.4559454 43.9321637,25.3348928 43.7826511,25.3348928 L43.7826511,25.3348928 Z M38.2007797,25.3348928 L33.7315789,25.3348928 C33.5820663,25.3348928 33.4608187,25.4559454 33.4608187,25.605653 L33.4608187,26.2062378 C33.4608187,26.3557505 33.5818713,26.4769981 33.7315789,26.4769981 L38.2007797,26.4769981 C38.3502924,26.4769981 38.47154,26.3559454 38.47154,26.2062378 L38.47154,25.605653 C38.47154,25.4559454 38.3502924,25.3348928 38.2007797,25.3348928 L38.2007797,25.3348928 Z" id="Shape"></path>
                <path d="M32.6337232,25.3348928 L28.157115,25.3348928 C28.0076023,25.3348928 27.8863548,25.4559454 27.8863548,25.605653 L27.8863548,26.2062378 C27.8863548,26.3557505 28.0074074,26.4769981 28.157115,26.4769981 L32.6337232,26.4769981 C32.7832359,26.4769981 32.9044834,26.3559454 32.9044834,26.2062378 L32.9044834,25.605653 C32.9042885,25.4559454 32.7832359,25.3348928 32.6337232,25.3348928 L32.6337232,25.3348928 Z M27.0518519,25.3348928 L22.5830409,25.3348928 C22.4335283,25.3348928 22.3122807,25.4559454 22.3122807,25.605653 L22.3122807,26.2062378 C22.3122807,26.3557505 22.4333333,26.4769981 22.5830409,26.4769981 L27.0518519,26.4769981 C27.2013645,26.4769981 27.3226121,26.3559454 27.3226121,26.2062378 L27.3226121,25.605653 C27.3224172,25.4559454 27.2013645,25.3348928 27.0518519,25.3348928 L27.0518519,25.3348928 Z" id="Shape"></path>
                <path d="M21.4775828,25.3348928 L17.008577,25.3348928 C16.8590643,25.3348928 16.7378168,25.4559454 16.7378168,25.605653 L16.7378168,26.2062378 C16.7378168,26.3557505 16.8588694,26.4769981 17.008577,26.4769981 L21.4777778,26.4769981 C21.6272904,26.4769981 21.748538,26.3559454 21.748538,26.2062378 L21.748538,25.605653 C21.748538,25.4559454 21.6270955,25.3348928 21.4775828,25.3348928 L21.4775828,25.3348928 Z M15.9031189,25.3348928 L11.4265107,25.3348928 C11.2769981,25.3348928 11.1557505,25.4559454 11.1557505,25.605653 L11.1557505,26.2062378 C11.1557505,26.3557505 11.2768031,26.4769981 11.4265107,26.4769981 L15.9031189,26.4769981 C16.0526316,26.4769981 16.1738791,26.3559454 16.1738791,26.2062378 L16.1738791,25.605653 C16.1738791,25.4559454 16.0526316,25.3348928 15.9031189,25.3348928 L15.9031189,25.3348928 Z" id="Shape"></path>
                <path d="M10.328655,25.3348928 L5.85224172,25.3348928 C5.70272904,25.3348928 5.58148148,25.4559454 5.58148148,25.605653 L5.58148148,26.2062378 C5.58148148,26.3557505 5.70253411,26.4769981 5.85224172,26.4769981 L10.3288499,26.4769981 C10.4783626,26.4769981 10.5996101,26.3559454 10.5996101,26.2062378 L10.5996101,25.605653 C10.5994152,25.4559454 10.4781676,25.3348928 10.328655,25.3348928 L10.328655,25.3348928 Z M4.7539961,25.3348928 L0.270760234,25.3348928 C0.121052632,25.3348928 0,25.4559454 0,25.605653 L0,26.2062378 C0,26.3557505 0.121052632,26.4769981 0.270760234,26.4769981 L4.75419103,26.4769981 C4.9037037,26.4769981 5.02495127,26.3559454 5.02495127,26.2062378 L5.02495127,25.605653 C5.02495127,25.4559454 4.9037037,25.3348928 4.7539961,25.3348928 L4.7539961,25.3348928 Z" id="Shape"></path>
            </g>
            <g id="Group" transform="translate(39.571150, 22.807018)" fill="#FF4B55">
                <path d="M8.9079922,1.80818713 C9.41832359,1.94424951 9.96335283,1.79434698 10.3376218,1.41325536 C10.9025341,1.98518519 11.8282651,1.99883041 12.4138402,1.44074074 C12.7951267,1.07309942 12.9516569,0.514814815 12.8153996,0.0111111111 C12.3187135,0.814424951 11.2705653,1.07309942 10.4672515,0.56920078 C10.4263158,0.5417154 10.3719298,0.514619883 10.3380117,0.487329435 C9.58265107,1.0454191 8.51403509,0.895711501 7.94210526,0.147173489 C7.9214425,0.106042885 7.88089669,0.0516569201 7.85341131,0.0111111111 C7.64892788,0.801169591 8.12534113,1.61754386 8.9079922,1.80818713 L8.9079922,1.80818713 Z" id="Shape"></path>
                <path d="M12.0791423,17.7109162 C13.9087719,16.7064327 15.4356725,15.1237817 16.2729045,13.0391813 C17.6986355,9.46608187 16.8007797,5.43294347 14.0734893,2.81695906 C13.9797271,2.72709552 13.837232,2.84736842 13.9052632,2.95808967 C16.5951267,7.34463938 15.5354776,13.1089669 11.3730994,16.2676413 L11.5721248,3.52553606 C11.5748538,3.35263158 11.4976608,3.18791423 11.3633528,3.07894737 L10.6863548,2.53177388 C10.4789474,2.36413255 10.1826511,2.36510721 9.97641326,2.5337232 L9.30935673,3.07894737 C9.17621832,3.1877193 9.10019493,3.35146199 9.10292398,3.52339181 L9.2962963,16.2744639 C5.13333333,13.1173489 4.07134503,7.34775828 6.75711501,2.9582846 C6.82495127,2.84756335 6.68245614,2.72729045 6.58888889,2.81734893 C3.8668616,5.43333333 2.96335283,9.4662768 4.38888889,13.0391813 C5.22612086,15.1233918 6.75282651,16.7062378 8.58304094,17.7107212 C7.41832359,18.1099415 6.19415205,18.3216374 4.95633528,18.2861598 C4.82553606,18.2824561 4.79922027,18.4664717 4.9245614,18.5042885 C6.49727096,18.9816764 8.11481481,19.014425 9.63567251,18.6734893 L10.2327485,19.8319688 C10.2740741,19.9118908 10.388499,19.9122807 10.4300195,19.8321637 L11.0311891,18.6740741 C12.5520468,19.014425 14.1701754,18.9810916 15.7440546,18.5037037 C15.8692008,18.4658869 15.8430799,18.2818713 15.7122807,18.285575 C14.4729045,18.3216374 13.245809,18.1099415 12.0791423,17.7109162 L12.0791423,17.7109162 Z" id="Shape"></path>
                <path d="M19.5265107,5.86510721 C18.5900585,4.11559454 17.0348928,2.78947368 15.1836257,2.13976608 C15.0676413,2.09902534 14.977193,2.25224172 15.0719298,2.33040936 C19.1588694,5.69707602 19.9781676,11.6933723 16.8177388,16.0345029 C16.654191,16.2524366 16.477193,16.4838207 16.3070175,16.6740741 C20.1871345,14.5912281 21.6231969,9.74502924 19.5265107,5.86510721 L19.5265107,5.86510721 Z" id="Shape"></path>
                <path d="M3.85087719,16.0345029 C0.690253411,11.6933723 1.50311891,5.69727096 5.58927875,2.33060429 C5.68421053,2.25224172 5.59356725,2.0994152 5.47758285,2.13996101 C3.62865497,2.78986355 2.08421053,4.11559454 1.1417154,5.86510721 C-0.968226121,9.74502924 0.481676413,14.5912281 4.36822612,16.6738791 C4.18460039,16.4836257 4.00760234,16.2524366 3.85087719,16.0345029 L3.85087719,16.0345029 Z" id="Shape"></path>
            </g>
        </g>
    </g>
</svg>