<?xml version="1.0" encoding="UTF-8"?>
<svg width="148px" height="125px" viewBox="0 0 148 125" version="1.1" xmlns="http://www.w3.org/2000/svg" xmlns:xlink="http://www.w3.org/1999/xlink">
    <!-- Generator: Sketch 41 (35326) - http://www.bohemiancoding.com/sketch -->
    <title>newCloud</title>
    <desc>Created with Sketch.</desc>
    <defs></defs>
    <g id="Page-1" stroke="none" stroke-width="1" fill="none" fill-rule="evenodd">
        <g id="newCloud">
            <g id="cloud-computing" transform="translate(3.000000, 6.000000)">
                <g id="Group">
                    <path d="M136.604302,48.3237184 C133.550396,44.5698565 129.402485,41.7887085 124.787183,40.3697188 C124.267523,29.7503276 119.817183,19.842226 112.146162,12.3111715 C104.059413,4.37212744 93.3338809,0 81.9448766,0 C66.9892553,0 53.1502979,7.72069189 45.3674894,20.2759392 C43.4749617,19.685192 41.5078085,19.3869768 39.4959404,19.3869768 C30.2396553,19.3869768 22.2798,25.8555838 20.360383,34.6731212 C8.47286809,37.7261625 0,48.4526359 0,60.7500482 C0,74.4264857 9.28111254,85.7555263 22.4626263,87.4683775 C23.5995226,87.6161097 30.8413393,87.6923077 32.032813,87.6923077 L34.9581191,87.6923077 C34.9581191,87.6923077 37.289463,87.4268969 37.289463,85.4489639 C37.289463,83.471031 35.8386505,83.2056202 34.5869357,83.2056202 L32.032813,83.2056202 C30.8707843,83.2056202 23.6638264,83.1186565 22.5680256,82.9509576 C11.8700433,81.3137619 4.53191489,71.9816496 4.53191489,60.7500482 C4.53191489,50.0648523 12.2044468,40.8028337 22.7752894,38.727292 C23.7285021,38.5403467 24.4554213,37.7722258 24.5814085,36.8180569 C25.5569787,29.4386524 31.9687319,23.8739634 39.4959404,23.8739634 C41.5667234,23.8739634 43.574966,24.2846449 45.4647745,25.0943424 C46.5361191,25.5534801 47.7836043,25.1317315 48.3479787,24.1210304 C55.1108043,12.0099652 67.9844638,4.48668753 81.9448766,4.48668753 C102.907702,4.48668753 120.115685,21.3679989 120.304817,42.1186296 C120.314183,43.1553535 121.039894,44.0502981 122.059877,44.283905 C131.132166,46.3624378 137.468387,54.259606 137.468387,63.4878249 C137.468387,73.3384561 130.134562,81.5251149 120.588481,82.9768992 C119.598263,83.1274932 108.323864,83.2056202 107.291754,83.2056202 L106.058771,83.2056202 C104.807056,83.2056202 103.792814,84.2097408 103.792814,85.4489639 C103.792814,86.688187 104.807056,87.6923077 106.058771,87.6923077 L107.291452,87.6923077 C108.380449,87.6923077 119.713424,87.6214502 120.765164,87.4841475 C132.732858,85.9217871 142,75.7560716 142,63.4878249 C142,57.9856505 140.083604,52.6001299 136.604302,48.3237184 Z" id="Shape" fill="#58C4FB"></path>
                    <path d="M109.042597,43.2971618 C110.29401,43.2857165 111.299189,42.2652765 111.28801,41.0177375 C111.254172,37.2968063 110.54961,33.6556911 109.193963,30.1955925 C108.738355,29.0335921 107.424704,28.4592182 106.258793,28.9131152 C105.092882,29.3670122 104.517027,30.676898 104.972334,31.8391996 C106.127065,34.7860663 106.727091,37.888047 106.755793,41.0586997 C106.767576,42.2996125 107.779704,43.2971618 109.021751,43.2971618 L109.042597,43.2971618 Z" id="Shape" fill="#83C6FF"></path>
                    <path d="M102.487334,25.4891597 C102.995814,25.4891597 103.507014,25.3195884 103.929087,24.9717111 C104.89378,24.1771655 105.03004,22.7534289 104.233027,21.7914203 C98.332474,14.6703278 89.6750059,10.5861585 80.4812612,10.5861585 C79.2295463,10.5861585 78.2153038,11.5972615 78.2153038,12.8451017 C78.2153038,14.0929419 79.2295463,15.1040449 80.4812612,15.1040449 C88.3184527,15.1040449 96.4444653,18.8304244 100.739223,24.6687115 C101.187278,25.2096531 101.834738,25.4891597 102.487334,25.4891597 Z" id="Shape" fill="#83C6FF"></path>
                    <path d="M68.8234472,83.2423087 L68.8234472,60.5124558 L68.8234472,59.208097 C68.8234472,59.208097 68.7283555,57.0241236 70.9393761,57.0001911 C73.1503966,56.9762586 73.1824241,59.208097 73.1824241,59.208097 L73.1824241,60.5298891 L73.1824241,83.2423087 L93.8510192,83.2423087 L95.3218236,83.2423087 C95.3218236,83.2423087 97.5906158,83.1956053 97.5906158,85.3099463 C97.5906158,87.4242874 95.3218236,87.3920813 95.3218236,87.3920813 L93.8792971,87.3920813 L73.1824241,87.3920813 L73.1824241,108.687218 L73.1824241,110.391248 C73.1824241,110.391248 73.0328727,112.557949 70.9393761,112.557949 C68.8458794,112.557949 68.7209377,110.391248 68.7209377,110.391248 L68.7209377,108.649296 L68.7209377,87.2977309 L47.4224495,87.2977309 L46.0806633,87.2977309 C46.0806633,87.2977309 43.9428706,87.1598183 43.9177406,85.3099463 C43.8926106,83.4600743 46.0806633,83.296934 46.0806633,83.296934 L47.3996986,83.2937659 L68.8234472,83.2423087 Z" id="Path-2" fill="#58C4FB"></path>
                </g>
            </g>
        </g>
    </g>
</svg>