<?xml version="1.0" encoding="UTF-8" standalone="no"?>
<svg width="3862px" height="4351px" viewBox="0 0 3862 4351" version="1.1" xmlns="http://www.w3.org/2000/svg" xmlns:xlink="http://www.w3.org/1999/xlink">
    <!-- Generator: Sketch 39.1 (31720) - http://www.bohemiancoding.com/sketch -->
    <title>Parsian</title>
    <desc>Created with Sketch.</desc>
    <defs></defs>
    <g id="Page-1" stroke="none" stroke-width="1" fill="none" fill-rule="evenodd">
        <g id="Artboard" stroke-width="6.94488">
            <g id="Parsian">
                <g id="Group">
                    <g id="__x0023_Layer_x0020_3">
                        <g id="_908018784">
                            <path d="M1930,303 C1822,629 1751,961 1561,1273 C1652,1423 1730,1529 1758,1793 C1884,1713 1965,1716 2096,1791 C2115,1545 2188,1431 2300,1275 C2091,948 2025,643 1930,303 L1930,303 Z" id="Shape" stroke="#050007" fill="#050007"></path>
                            <path d="M401,721 L452,863 C336,929 197,1068 172,1205 L172,4144 L1690,4143 L1690,3005 C1171,2873 986,2373 1075,1909 C1275,1961 1376,2102 1465,2236 C1490,2065 1560,1972 1631,1872 C1804,2014 1873,2408 1863,2690 L1863,4350 L0,4349 L0,1162 C9,997 158,711 401,721 L401,721 Z" id="Shape" stroke="#98110F" fill="#98110F"></path>
                            <path d="M942,2082 C809,1286 679,829 144,385 C948,510 1383,1162 1605,1763 C1467,1721 1310,1687 1226,1864 C1113,1770 983,1685 942,2082 L942,2082 Z" id="Shape" stroke="#050007" fill="#050007"></path>
                            <path d="M1028,695 C882,558 598,456 586,335 C574,214 630,166 815,182 C883,114 1055,94 1054,249 C1052,403 1051,497 1028,695 L1028,695 Z" id="Shape" stroke="#050007" fill="#050007"></path>
                            <path d="M1221,243 C1206,412 1183,550 1104,784 C1241,940 1287,995 1467,1208 C1551,1030 1588,940 1669,780 C1495,645 1381,463 1221,243 L1221,243 Z" id="Shape" stroke="#98110F" fill="#98110F"></path>
                            <path d="M2911,2081 C3044,1286 3174,828 3709,385 C2905,510 2470,1162 2248,1763 C2386,1720 2543,1686 2627,1864 C2740,1769 2870,1685 2911,2081 L2911,2081 Z" id="Shape" stroke="#050007" fill="#050007"></path>
                            <path d="M2635,242 C2650,411 2673,550 2752,783 C2615,939 2569,994 2389,1207 C2305,1029 2268,940 2187,779 C2361,644 2475,462 2635,242 L2635,242 Z" id="Shape" stroke="#98110F" fill="#98110F"></path>
                            <path d="M1684,654 C1534,468 1350,280 1342,202 C1333,124 1320,41 1550,70 C1580,-29 1781,-28 1793,115 C1805,259 1787,451 1684,654 L1684,654 Z" id="Shape" stroke="#050007" fill="#050007"></path>
                            <path d="M2177,657 C2327,471 2510,283 2519,205 C2527,127 2541,45 2311,73 C2281,-26 2079,-25 2068,119 C2056,262 2074,454 2177,657 L2177,657 Z" id="Shape" stroke="#050007" fill="#050007"></path>
                            <path d="M2830,694 C2976,557 3260,455 3272,334 C3284,213 3228,165 3042,180 C2975,113 2803,92 2804,247 C2805,402 2807,495 2830,694 L2830,694 Z" id="Shape" stroke="#050007" fill="#050007"></path>
                            <path d="M3461,722 L3410,863 C3526,929 3665,1069 3690,1206 L3690,4145 L2172,4144 L2172,3006 C2691,2874 2876,2374 2787,1910 C2587,1962 2486,2102 2397,2237 C2372,2066 2302,1973 2231,1873 C2058,2015 1989,2409 1999,2691 L1999,4351 L3862,4350 L3862,1163 C3853,998 3704,711 3461,722 L3461,722 Z" id="Shape" stroke="#98110F" fill="#98110F"></path>
                        </g>
                    </g>
                </g>
            </g>
        </g>
    </g>
</svg>