<?xml version="1.0" encoding="UTF-8"?>
<svg width="18px" height="19px" viewBox="0 0 18 19" version="1.1" xmlns="http://www.w3.org/2000/svg" xmlns:xlink="http://www.w3.org/1999/xlink">
    <!-- Generator: Sketch 41 (35326) - http://www.bohemiancoding.com/sketch -->
    <title>shopping-cart@2x</title>
    <desc>Created with Sketch.</desc>
    <defs></defs>
    <g id="Page-1" stroke="none" stroke-width="1" fill="none" fill-rule="evenodd">
        <g id="Artboard-Copy" transform="translate(-1217.000000, -300.000000)" fill="#FFFFFF">
            <g id="shopping-cart" transform="translate(1217.000000, 300.000000)">
                <g id="Group">
                    <path d="M12.1797521,15.1214876 C11.3280992,15.1214876 10.6661157,15.8206612 10.6661157,16.672314 C10.6661157,17.5239669 11.3652893,18.2231405 12.1797521,18.2231405 C12.9942149,18.2231405 13.6933884,17.5239669 13.6933884,16.672314 C13.6933884,15.8206612 12.9942149,15.1214876 12.1797521,15.1214876 Z M12.1797521,17.4458678 C11.7520661,17.4458678 11.4433884,17.096281 11.4433884,16.668595 C11.4433884,16.2409091 11.7929752,15.8913223 12.1797521,15.8913223 C12.5665289,15.8913223 12.9161157,16.2409091 12.9161157,16.668595 C12.9161157,17.096281 12.5665289,17.4458678 12.1797521,17.4458678 Z" id="Shape"></path>
                    <path d="M3.91983471,15.1214876 C3.06818182,15.1214876 2.40619835,15.8206612 2.40619835,16.672314 C2.40619835,17.5239669 3.1053719,18.2231405 3.91983471,18.2231405 C4.7714876,18.2231405 5.43347107,17.5239669 5.43347107,16.672314 C5.43347107,15.8206612 4.73429752,15.1214876 3.91983471,15.1214876 L3.91983471,15.1214876 Z M3.91983471,17.4458678 C3.49214876,17.4458678 3.18347107,17.096281 3.18347107,16.668595 C3.18347107,16.2409091 3.53305785,15.8913223 3.91983471,15.8913223 C4.34752066,15.8913223 4.65619835,16.2409091 4.65619835,16.668595 C4.65619835,17.1 4.31033058,17.4458678 3.91983471,17.4458678 L3.91983471,17.4458678 Z" id="Shape"></path>
                    <path d="M15.8243802,0 L15.2219008,2.36528926 L0.00371900826,2.36528926 L2.81157025,10.6847107 C1.87066116,10.822314 1.1677686,11.6181818 1.1677686,12.6409091 C1.1677686,13.7640496 2.01942149,14.6566116 3.1053719,14.6566116 L13.6524793,14.6566116 L13.6524793,13.9202479 L3.1053719,13.9202479 C2.44710744,13.9202479 1.94132231,13.3772727 1.94132231,12.6780992 C1.94132231,11.9789256 2.48429752,11.4359504 3.1053719,11.4359504 L13.6524793,11.4359504 L13.6896694,11.4359504 L16.4417355,0.773553719 L17.992562,0.773553719 L17.992562,3.96377146e-16 L15.8243802,3.96377146e-16 L15.8243802,0 Z M13.1095041,10.6623967 L3.61115702,10.6623967 L1.08966942,3.13884298 L15.0099174,3.13884298 L13.1095041,10.6623967 Z" id="Shape"></path>
                    <rect id="Rectangle-path" x="4.92768595" y="4.96115702" width="0.777272727" height="4.38099174"></rect>
                    <rect id="Rectangle-path" x="7.68347107" y="4.96115702" width="0.777272727" height="4.38099174"></rect>
                    <rect id="Rectangle-path" x="10.4355372" y="4.96115702" width="0.777272727" height="4.38099174"></rect>
                </g>
            </g>
        </g>
    </g>
</svg>