<?xml version="1.0" encoding="UTF-8" standalone="no"?>
<svg width="112px" height="50px" viewBox="0 0 112 50" version="1.1" xmlns="http://www.w3.org/2000/svg" xmlns:xlink="http://www.w3.org/1999/xlink">
    <!-- Generator: Sketch 39.1 (31720) - http://www.bohemiancoding.com/sketch -->
    <title>tarino_logo_white</title>
    <desc>Created with Sketch.</desc>
    <defs></defs>
    <g id="Page-1" stroke="none" stroke-width="1" fill="none" fill-rule="evenodd">
        <g id="tarino_logo_white" fill="#FFFFFF">
            <g id="Tarino-Logo">
                <path d="M112.219989,11.1968785 L102.739487,11.1968785 C102.739487,11.1968785 101.420272,11.1968785 100.523527,12.1081295 C99.6267811,13.0193805 99.7500847,15.4998358 99.7500847,15.4998358 L94.0216627,15.4998358 C94.0216627,15.4998358 93.7836,11.5973936 95.9645953,8.70443386 C98.1455906,5.81147413 100.930471,5.62379854 100.930471,5.62379854 L112.219989,5.62379854 L112.219989,11.1968785 Z" id="Path-3"></path>
                <path d="M112.10331,17.3879512 L112.10331,26.8984424 C112.10331,26.8984424 111.726331,30.6709987 109.292718,33.2851213 C106.859104,35.899244 102.569535,35.6318524 102.569535,35.6318524 L91.4237151,35.6318524 C91.4237151,35.6318524 88.3938495,35.3973231 84.988775,33.8147447 C81.5837006,32.2321662 81.5837006,26.9222992 81.5837006,26.9222992 L81.5837006,0.0162625461 L87.9259753,0.0162625461 L87.9259751,25.301257 C87.9259751,25.301257 88.0128312,28.0521202 88.9335011,28.6926106 C89.854171,29.3331011 93.3439619,29.3331004 93.3439619,29.3331004 L102.173874,29.3331004 C102.173874,29.3331004 104.118414,29.3668901 105.001026,28.4241014 C105.883638,27.4813128 105.842823,25.4140008 105.842823,25.4140008 L105.807651,17.3879506 L112.10331,17.3879512 Z" id="Path-4"></path>
                <path d="M71.8997127,17.486441 L78.3060674,17.486441 L78.3060674,35.1091767 C78.3060674,35.1091767 78.5390168,40.3782524 74.5341412,45.0237861 C70.5292656,49.6693198 65.1920937,49.7478962 65.1920937,49.7478962 L59.2679791,49.7478962 L59.2679791,43.4671794 L63.2953539,43.4671794 C63.2953539,43.4671794 67.1591389,43.0894841 69.647552,40.8708777 C72.135965,38.6522714 71.8997127,35.8219877 71.8997127,35.8219877 L71.8997127,17.486441 Z" id="Path-5"></path>
                <polygon id="Path-6" points="38.743107 43.5024233 54.5791998 43.5024233 54.5791998 49.7042574 38.8018034 49.7042574"></polygon>
                <polygon id="Path-7" points="26.8112299 5.6197061 33.1951913 5.6197061 33.1951913 11.9424758 26.8290511 11.9424758"></polygon>
                <path d="M63.9512971,29.370982 L63.9512971,35.6499703 L43.4466752,35.6499703 C43.4466752,35.6499703 41.6039691,35.6168639 39.849285,35.0534594 C38.0946009,34.4900549 36.8465751,33.5307705 36.8465751,33.5307705 C36.8465751,33.5307705 35.7527126,34.3908326 34.5760841,34.8933106 C33.3994556,35.3957886 32.008221,35.5969847 32.008221,35.5969847 L21.1251485,35.5969847 C21.1251485,35.5969847 21.4032722,42.9516129 15.2630923,46.9474131 C9.12291231,50.9432132 0.621257048,49.8524758 0.621257048,49.8524758 L0.621257048,43.4413284 L6.37216497,43.4413284 C6.37216497,43.4413284 10.0797068,43.3073965 12.4208794,40.6814957 C14.762052,38.0555948 14.4880947,35.6426691 14.4880947,35.6426691 C14.4880947,35.6426691 10.0123884,36.0445141 5.31682274,34.153468 C0.621257049,32.2624218 0.10151058,26.622214 0.101510581,22.9814142 C0.101510581,19.3406143 1.27420053,16.418222 3.22940571,14.4998619 C5.1846109,12.5815019 9.03251641,12.5509156 11.2338913,12.5509156 C13.4352662,12.5509156 16.2929784,13.6136681 18.1355659,15.5931822 C19.9781534,17.5726962 20.7887962,22.0686758 20.9956906,23.7093908 C21.202585,25.3501058 21.1251485,29.3095404 21.1251485,29.3095404 L29.3349374,29.3095404 C29.3349374,29.3095404 31.7033064,29.3871535 32.627849,28.5514037 C33.5523917,27.7156538 33.5523929,25.5903451 33.5523929,25.5903451 L33.5523929,17.4159941 L39.8492865,17.4159941 L39.8492865,25.5235365 C39.8492865,25.5235365 39.8983083,27.4193921 41.5903808,28.3928469 C43.2824532,29.3663016 46.4195724,29.3034432 46.4195724,29.3034432 L63.9512971,29.370982 Z M14.6788986,29.351424 L10.975847,29.2215596 C10.975847,29.2215596 9.0782351,29.2215596 7.39196309,27.6506163 C5.70569108,26.0796731 6.03793319,19.2417055 9.07823505,18.8834192 C12.1185369,18.5251329 12.5996421,19.3487466 13.5384372,20.3515404 C14.4772324,21.3543342 14.626631,23.8630691 14.626631,23.8630691 L14.6788986,29.351424 Z" id="Combined-Shape"></path>
            </g>
        </g>
    </g>
</svg>