<?xml version="1.0" encoding="UTF-8" standalone="no"?>
<svg width="100px" height="44px" viewBox="0 0 100 44" version="1.1" xmlns="http://www.w3.org/2000/svg" xmlns:xlink="http://www.w3.org/1999/xlink">
    <!-- Generator: Sketch 39.1 (31720) - http://www.bohemiancoding.com/sketch -->
    <title>tarino_logo_black</title>
    <desc>Created with Sketch.</desc>
    <defs></defs>
    <g id="Page-1" stroke="none" stroke-width="1" fill="none" fill-rule="evenodd">
        <g id="tarino_logo_black" fill="#000000">
            <g id="logovector">
                <g id="Page-1">
                    <g id="Logo-Copy">
                        <g id="Tarino-Logo">
                            <path d="M99.9911842,9.94550166 L91.543789,9.94550166 C91.543789,9.94550166 90.368331,9.9455016 89.5693054,10.7549101 C88.7702798,11.5643185 88.8801468,13.7675551 88.8801468,13.7675551 L83.7759607,13.7675551 C83.7759607,13.7675551 83.5638401,10.3012547 85.5071686,7.73161565 C87.4504972,5.16197665 89.9319039,4.99527591 89.9319039,4.99527591 L99.9911842,4.99527591 L99.9911842,9.94550166 L99.9911842,9.94550166 Z" id="Path-3"></path>
                            <path d="M99.8872197,15.4446525 L99.8872197,23.8922395 C99.8872197,23.8922395 99.5513208,27.2431702 97.3829025,29.5651354 C95.2144841,31.8871005 91.3923569,31.6495928 91.3923569,31.6495928 L81.4611159,31.6495928 C81.4611159,31.6495928 78.76142,31.4412748 75.7274023,30.0355673 C72.6933847,28.6298598 72.6933847,23.91343 72.6933847,23.91343 L72.6933847,0.014445024 L78.3445309,0.014445024 L78.3445306,22.4735575 C78.3445306,22.4735575 78.4219219,24.9169809 79.2422648,25.4858892 C80.0626078,26.0547977 83.1721101,26.0547971 83.1721101,26.0547971 L91.0398113,26.0547971 C91.0398113,26.0547971 92.7724518,26.0848103 93.558884,25.247389 C94.3453161,24.4099676 94.3089489,22.5737009 94.3089489,22.5737009 L94.2776093,15.4446519 L99.8872197,15.4446525 L99.8872197,15.4446525 Z" id="Path-4"></path>
                            <path d="M64.0646776,15.5321349 L69.7729209,15.5321349 L69.7729209,31.1853321 C69.7729209,31.1853321 69.9804853,35.8655294 66.4120278,39.9918725 C62.8435705,44.1182157 58.0879993,44.1880103 58.0879993,44.1880103 L52.8094457,44.1880103 L52.8094457,38.6092342 L56.3979505,38.6092342 C56.3979505,38.6092342 59.8406923,38.2737505 62.0579387,36.3030983 C64.2751851,34.3324461 64.0646777,31.8184784 64.0646777,31.8184784 L64.0646776,15.5321349 L64.0646776,15.5321349 Z" id="Path-5"></path>
                            <polygon id="Path-6" points="34.5212042 38.6405392 48.6316107 38.6405392 48.6316107 44.1492487 34.5735043 44.1492487"></polygon>
                            <polygon id="Path-7" points="23.8895642 4.99164085 29.5778543 4.99164085 29.5778543 10.60777 23.9054434 10.60777"></polygon>
                            <path d="M56.9824145,26.088445 L56.9824145,31.6656858 L38.7122165,31.6656858 C38.7122165,31.6656858 37.0703131,31.6362795 35.5068401,31.1358418 C33.9433669,30.6354041 32.8313406,29.7833304 32.8313406,29.7833304 C32.8313406,29.7833304 31.8566781,30.547271 30.8082689,30.9935914 C29.7598596,31.4399119 28.5202303,31.618622 28.5202303,31.618622 L18.8231048,31.618622 C18.8231048,31.618622 19.0709209,38.151288 13.5998469,41.7005125 C8.1287729,45.2497371 0.553557601,44.2809019 0.553557601,44.2809019 L0.553557601,38.5862723 L5.67777922,38.5862723 C5.67777922,38.5862723 8.98130389,38.4673087 11.0673549,36.1348818 C13.1534059,33.8024549 12.9093022,31.6592007 12.9093022,31.6592007 C12.9093022,31.6592007 8.92132128,32.0161351 4.73743944,30.3364344 C0.553557602,28.6567339 0.0904487978,23.6468827 0.0904487983,20.4129832 C0.0904487988,17.1790836 1.13534871,14.5833013 2.87749183,12.8793396 C4.61963495,11.1753778 8.04822759,11.1482099 10.0097149,11.1482099 C11.9712021,11.1482099 14.5175046,12.0921879 16.1593022,13.8504691 C17.8010998,15.6087501 18.5234054,19.6022535 18.7077542,21.0596002 C18.892103,22.5169468 18.8231048,26.0338702 18.8231048,26.0338702 L26.1382589,26.0338702 C26.1382589,26.0338702 28.2485427,26.1028092 29.0723363,25.3604638 C29.8961299,24.6181184 29.896131,22.7303368 29.896131,22.7303368 L29.896131,15.4695612 L35.5068413,15.4695612 L35.5068413,22.6709947 C35.5068413,22.6709947 35.5505212,24.3549673 37.0582056,25.2196274 C38.56589,26.0842877 41.361152,26.0284544 41.361152,26.0284544 L56.9824145,26.088445 L56.9824145,26.088445 Z M13.0793139,26.0710729 L9.7797901,25.9557222 C9.7797901,25.9557222 8.08896423,25.9557222 6.58644818,24.5603496 C5.08393213,23.1649769 5.37996925,17.0912289 8.0889642,16.7729851 C10.7979591,16.4547414 11.2266375,17.1863069 12.0631305,18.0770273 C12.8996235,18.9677476 13.032742,21.1961032 13.032742,21.1961032 L13.0793139,26.0710729 L13.0793139,26.0710729 Z" id="Combined-Shape"></path>
                        </g>
                    </g>
                </g>
            </g>
        </g>
    </g>
</svg>