<?xml version="1.0" encoding="UTF-8"?>
<svg width="68px" height="68px" viewBox="0 0 68 68" version="1.1" xmlns="http://www.w3.org/2000/svg" xmlns:xlink="http://www.w3.org/1999/xlink">
    <!-- Generator: Sketch 41 (35326) - http://www.bohemiancoding.com/sketch -->
    <title>unlimited support</title>
    <desc>Created with Sketch.</desc>
    <defs></defs>
    <g id="Page-1" stroke="none" stroke-width="1" fill="none" fill-rule="evenodd">
        <g id="Artboard-Copy" transform="translate(-978.000000, -207.000000)">
            <g id="unlimited-support" transform="translate(980.000000, 209.000000)">
                <circle id="Oval" stroke="#00FF98" stroke-width="3" stroke-linecap="square" stroke-dasharray="5,4" cx="32" cy="32" r="32"></circle>
                <circle id="Oval-Copy" stroke="#00FF98" stroke-linecap="round" stroke-dasharray="3,3" cx="32" cy="32" r="27.6610169"></circle>
                <text id="UNLIMITED-SUPPORT" font-family="AndaleMono, Andale Mono" font-size="7" font-weight="normal" letter-spacing="0.0419999994" fill="#029614">
                    <tspan x="12.9079238" y="44.0508475">UNLIMITED </tspan>
                    <tspan x="17.1506074" y="52.0508475">SUPPORT</tspan>
                </text>
                <path d="M29.32438,33.277224 C29.3344604,33.2776205 29.3446069,33.2778187 29.3548195,33.2778187 L30.1504716,33.2821665 C30.5359808,33.2821665 30.9077162,33.2510074 31.265689,33.1886883 C31.6236618,33.1263691 31.9693105,33.0444859 32.3026455,32.9430361 C32.6359805,32.8415863 32.9577165,32.7249208 33.2678629,32.5930361 C33.5780094,32.4611514 33.8765572,32.3256455 34.1635151,32.1865144 C34.2649649,32.3575297 34.3939491,32.5104267 34.5504716,32.64521 C34.7069942,32.7799933 34.8859779,32.8944849 35.0874282,32.9886883 C35.2888784,33.0828917 35.5120646,33.1546301 35.7569934,33.2039057 C36.0019221,33.2531813 36.2635137,33.2778187 36.541776,33.2778187 L36.6026455,33.2778187 C36.6128165,33.2778187 36.6229218,33.2776221 36.6329616,33.2772288 C36.6427855,33.2776221 36.6526801,33.2778187 36.6626455,33.2778187 C36.8336609,33.2778187 36.9916303,33.2611522 37.1365586,33.2278187 C37.2814868,33.1944852 37.4177174,33.1473842 37.5452542,33.0865144 C37.6727911,33.0256445 37.794529,32.9517322 37.9104716,32.8647752 C38.0264142,32.7778183 38.1423551,32.6807178 38.2582977,32.5734709 C38.3249647,32.6169494 38.3974278,32.6618765 38.475689,32.7082535 C38.5539503,32.7546305 38.632935,32.7995576 38.7126455,32.8430361 C38.7923561,32.8865146 38.8684423,32.9263693 38.9409064,32.9626013 C39.0133705,32.9988334 39.0785873,33.0299925 39.1365586,33.0560796 C39.2785883,33.1111523 39.4227897,33.1546302 39.5691673,33.1865144 C39.7155448,33.2183986 39.8539492,33.2343405 39.9843847,33.2343405 C40.0597474,33.2343405 40.1314858,33.2307173 40.1996021,33.2234709 C40.2677183,33.2162245 40.3365582,33.2024565 40.4061238,33.1821665 C40.6148205,33.1212967 40.8082968,33.008979 40.9865586,32.84521 C41.1648203,32.6814411 41.3017755,32.4778199 41.3974281,32.2343405 C41.4467038,32.1010065 41.4851092,31.9597035 41.5126455,31.8104274 C41.5401819,31.6611513 41.5539499,31.5082543 41.5539499,31.3517318 C41.5539499,31.2068035 41.5452543,31.0778193 41.5278629,30.9647752 L41.5278629,30.9734709 C41.5017758,30.7473828 41.4481532,30.5336168 41.3669934,30.3321665 C41.2858335,30.1307163 41.1800375,29.9517325 41.0496021,29.79521 C40.8756881,29.595209 40.6822118,29.4415874 40.4691673,29.3343405 C40.2561227,29.2270935 40.0191686,29.1734709 39.7582977,29.1734709 C39.5380068,29.1734709 39.3307625,29.2234704 39.1365586,29.3234709 C38.9423547,29.4234714 38.7669941,29.5647743 38.6104716,29.7473839 C38.5090218,29.8778194 38.4155445,30.0198469 38.3300368,30.1734709 C38.2445292,30.3270948 38.1640952,30.4821658 38.0887325,30.6386883 L38.0887325,30.6343405 C38.0104712,30.7850658 37.9278634,30.935789 37.8409064,31.0865144 C37.7539495,31.2372398 37.6553997,31.3734703 37.5452542,31.49521 C37.4351088,31.6169498 37.3082984,31.7154995 37.1648195,31.7908622 C37.0213405,31.8662249 36.8525016,31.9039057 36.6582977,31.9039057 C36.6529906,31.9042273 36.6477036,31.9045958 36.6424367,31.9050111 C36.6292864,31.9042742 36.6160227,31.9039057 36.6026455,31.9039057 L36.541776,31.9039057 C36.4838047,31.9039057 36.40482,31.9010072 36.3048195,31.89521 C36.204819,31.8894129 36.1004722,31.8756449 35.991776,31.8539057 C35.8830798,31.8321664 35.7772837,31.7981088 35.6743847,31.7517318 C35.5714856,31.7053547 35.4867038,31.6430365 35.4200368,31.5647752 L35.5330803,31.5082535 C35.5968488,31.4763693 35.6700364,31.4408624 35.7526455,31.4017318 C35.8352547,31.3626011 35.9098916,31.3285435 35.9765586,31.2995578 L36.2026455,30.0169492 C35.9852532,30.0169492 35.7627916,29.9981088 35.5352542,29.9604274 C35.3077169,29.9227461 35.0845307,29.8734712 34.865689,29.8126013 C34.6468473,29.7517315 34.4367045,29.6821669 34.2352542,29.6039057 C34.033804,29.5256444 33.8504725,29.4459351 33.6852542,29.3647752 C33.5229346,29.2894125 33.3620666,29.2162249 33.2026455,29.14521 C33.0432245,29.0741952 32.885255,29.011877 32.7287325,28.9582535 C32.57221,28.90463 32.4164144,28.8604276 32.2613412,28.8256448 C32.106268,28.790862 31.9504724,28.7720216 31.7939499,28.7691231 C31.5823546,28.7662245 31.3714872,28.8097023 31.1613412,28.8995578 C30.9511952,28.9894134 30.7504726,29.1104267 30.5591673,29.2626013 C30.367862,29.414776 30.1910522,29.5901366 30.0287325,29.7886883 C29.8664128,29.98724 29.7272838,30.1937597 29.6113412,30.4082535 L30.641776,30.9995578 L30.6830803,30.9365144 C30.7106167,30.8944852 30.7490221,30.8423118 30.7982977,30.7799926 C30.8475733,30.7176735 30.9062684,30.6510075 30.9743847,30.5799926 C31.042501,30.5089778 31.1193118,30.4423118 31.2048195,30.3799926 C31.2903271,30.3176735 31.3830798,30.2655001 31.4830803,30.2234709 C31.5830808,30.1814417 31.686703,30.1589782 31.7939499,30.1560796 C31.9620667,30.153181 32.1526445,30.1785431 32.365689,30.2321665 C32.5787336,30.28579 32.7982966,30.3502821 33.0243847,30.4256448 C33.2504728,30.5010075 33.4736589,30.5778183 33.6939499,30.6560796 C33.9142408,30.7343408 34.1142388,30.7952098 34.2939499,30.8386883 C34.0185862,30.9691237 33.7077197,31.0973833 33.3613412,31.2234709 C33.0149627,31.3495585 32.6569952,31.4633255 32.2874282,31.5647752 C31.9178611,31.666225 31.5490242,31.7481083 31.1809064,31.8104274 C30.8127886,31.8727466 30.4693138,31.9039057 30.1504716,31.9039057 L29.3548195,31.9039057 C29.3448084,31.9039057 29.3348609,31.904112 29.3249769,31.9045248 C29.314976,31.904112 29.3049235,31.9039057 29.2948195,31.9039057 C29.164384,31.9039057 29.0578633,31.8886884 28.9752542,31.8582535 C28.8926451,31.8278186 28.8216313,31.7807176 28.7622108,31.7169492 C28.7027902,31.6531807 28.6513414,31.5734714 28.6078629,31.4778187 C28.5643845,31.3821661 28.5165588,31.270573 28.4643847,31.1430361 C28.2382966,30.6097001 28.0382986,30.1321687 27.8643847,29.7104274 C27.6904708,29.2886862 27.5411969,28.9241971 27.4165586,28.6169492 L27.0296021,27.6778187 L25.7600368,28.2082535 C25.8701823,28.4720229 25.9890217,28.7473825 26.1165586,29.0343405 C26.2440955,29.3212984 26.3730797,29.610426 26.5035151,29.9017318 C26.6339505,30.1930376 26.7636594,30.4828897 26.8926455,30.771297 C27.0216317,31.0597042 27.1411957,31.3372377 27.2513412,31.6039057 C27.1643842,31.6676741 27.0455448,31.7314416 26.8948195,31.79521 C26.851341,31.8126014 26.8035154,31.827094 26.7513412,31.8386883 C26.699167,31.8502825 26.6455444,31.8597027 26.5904716,31.8669492 C26.5353989,31.8741956 26.480327,31.879268 26.4252542,31.8821665 C26.3701815,31.8850651 26.3209066,31.8865144 26.2774282,31.8865144 C26.1817755,31.8865144 26.0796026,31.8778188 25.9709064,31.8604274 C25.8622102,31.843036 25.746994,31.8111523 25.6252542,31.7647752 C25.5035145,31.7183982 25.3759795,31.6539061 25.2426455,31.571297 C25.1093115,31.4886879 24.9716318,31.3821672 24.8296021,31.2517318 L24.0426455,32.3604274 C24.352792,32.6821682 24.6897452,32.9154992 25.0535151,33.0604274 C25.417285,33.2053557 25.7890205,33.2778187 26.1687325,33.2778187 C26.4151105,33.2778187 26.6390213,33.2626015 26.8404716,33.2321665 C27.0419219,33.2017316 27.2296012,33.1531814 27.4035151,33.0865144 C27.5165592,33.0401373 27.6165582,32.9930363 27.7035151,32.94521 C27.7904721,32.8973837 27.8730799,32.8473842 27.9513412,32.79521 C28.0238053,32.8676742 28.1013408,32.9336155 28.1839499,32.9930361 C28.266559,33.0524567 28.360761,33.1031808 28.4665586,33.14521 C28.5723562,33.1872392 28.6926449,33.2198476 28.8274282,33.2430361 C28.9622114,33.2662246 29.118007,33.2778187 29.2948195,33.2778187 C29.3047226,33.2778187 29.3145761,33.2776205 29.32438,33.277224 Z M44.4683835,31.9039057 L45.0565586,31.9039057 C45.1638055,31.9039057 45.2761232,31.8995579 45.3935151,31.8908622 C45.510907,31.8821665 45.6210508,31.8647754 45.7239499,31.8386883 C45.826849,31.8126012 45.9181524,31.7763697 45.9978629,31.7299926 C46.0775735,31.6836156 46.1348193,31.6212974 46.1696021,31.5430361 C46.1927906,31.4908619 46.2043847,31.4126018 46.2043847,31.3082535 C46.2043847,31.2386879 46.184095,31.1343412 46.1435151,30.99521 C46.1029352,30.8560789 46.0493125,30.7017326 45.9826455,30.5321665 C45.9159785,30.3626005 45.840617,30.185066 45.7565586,29.9995578 C45.6725002,29.8140497 45.5869938,29.6386891 45.5000368,29.4734709 L46.7435151,28.8560796 C46.8246749,29.0386892 46.9051089,29.2328902 46.9848195,29.4386883 C47.06453,29.6444864 47.1362684,29.85318 47.2000368,30.0647752 C47.2638053,30.2763705 47.315254,30.487238 47.3543847,30.6973839 C47.3935153,30.9075299 47.4130803,31.1082525 47.4130803,31.2995578 C47.4130803,31.5923129 47.3609069,31.8604262 47.2565586,32.1039057 C47.1348188,32.3763708 46.9681538,32.6017309 46.7565586,32.7799926 C46.5449633,32.9582544 46.2913427,33.0894125 45.995689,33.1734709 C45.8217751,33.2227465 45.6551101,33.2524563 45.495689,33.2626013 C45.3362679,33.2727463 45.1869941,33.2778187 45.0478629,33.2778187 L44.4130803,33.2778187 C44.4095415,33.2778187 44.4060106,33.2777949 44.4024877,33.2777473 C44.399068,33.2777949 44.3956423,33.2778187 44.3922108,33.2778187 C44.0356872,33.2778187 43.7298932,33.2336163 43.4748195,33.14521 C43.2197457,33.0568038 42.9994581,32.9212979 42.8139499,32.7386883 C42.6980073,32.6227457 42.6088777,32.5010078 42.5465586,32.3734709 C42.4842394,32.245934 42.4393123,32.120573 42.411776,31.9973839 C42.3842396,31.8741949 42.3682977,31.7575294 42.3639499,31.6473839 C42.359602,31.5372385 42.3574281,31.4430365 42.3574281,31.3647752 L42.3574281,31.2995578 C42.3603267,31.1923109 42.3639499,31.0379647 42.3682977,30.8365144 C42.3726456,30.6350641 42.3748195,30.3981099 42.3748195,30.1256448 C42.3748195,29.8531797 42.3733702,29.5531827 42.3704716,29.2256448 C42.3675731,28.8981069 42.3596021,28.5712986 42.3465586,28.24521 C42.333515,27.9191214 42.3146746,27.6053565 42.2900368,27.3039057 C42.265399,27.0024549 42.2313414,26.7401387 42.1878629,26.5169492 L43.4878629,26.121297 C43.5255443,26.3126023 43.5559788,26.5379623 43.5791673,26.7973839 C43.6023558,27.0568055 43.6219208,27.3285419 43.6378629,27.6126013 C43.653805,27.8966607 43.6653991,28.1821651 43.6726455,28.4691231 C43.679892,28.756081 43.6849644,29.022745 43.6878629,29.2691231 C43.6907615,29.4865155 43.6827906,29.6988322 43.6639499,29.9060796 C43.6451092,30.113327 43.629892,30.3162235 43.6182977,30.5147752 C43.6067035,30.713327 43.6074281,30.9060787 43.6204716,31.0930361 C43.6335152,31.2799936 43.6733698,31.4618758 43.7400368,31.6386883 C43.7661239,31.7053553 43.7987323,31.7560794 43.8378629,31.7908622 C43.8769936,31.825645 43.9226453,31.851007 43.9748195,31.8669492 C44.0269936,31.8828913 44.0842394,31.8923115 44.1465586,31.89521 C44.2088777,31.8981086 44.2777176,31.8995578 44.3530803,31.8995578 L44.3922108,31.8995578 C44.4179362,31.8995578 44.4433271,31.9010071 44.4683835,31.9039057 Z M20.2611024,19.9053999 C20.276958,19.9044038 20.2929796,19.9039057 20.3091673,19.9039057 L20.9526455,19.9039057 C21.0598925,19.9039057 21.1722102,19.8995579 21.2896021,19.8908622 C21.406994,19.8821665 21.5171378,19.8647754 21.6200369,19.8386883 C21.7229359,19.8126012 21.8142394,19.7763697 21.8939499,19.7299926 C21.9736604,19.6836156 22.0309062,19.6212974 22.065689,19.5430361 C22.0888775,19.4908619 22.1004716,19.4126018 22.1004716,19.3082535 C22.1004716,19.2386879 22.080182,19.1343412 22.0396021,18.99521 C21.9990222,18.8560789 21.9453995,18.7017326 21.8787325,18.5321665 C21.8120655,18.3626005 21.7367039,18.185066 21.6526455,17.9995578 C21.5685872,17.8140497 21.4830808,17.6386891 21.3961238,17.4734709 L22.6396021,16.8560796 C22.7207619,17.0386892 22.8011959,17.2328902 22.8809064,17.4386883 C22.960617,17.6444864 23.0323554,17.85318 23.0961238,18.0647752 C23.1598922,18.2763705 23.211341,18.487238 23.2504716,18.6973839 C23.2896023,18.9075299 23.3091673,19.1082525 23.3091673,19.2995578 C23.3091673,19.5923129 23.2569939,19.8604262 23.1526455,20.1039057 C23.0309058,20.3763708 22.8642408,20.6017309 22.6526455,20.7799926 C22.4410503,20.9582544 22.1874296,21.0894125 21.891776,21.1734709 C21.7178621,21.2227465 21.5511971,21.2524563 21.391776,21.2626013 C21.2323549,21.2727463 21.083081,21.2778187 20.9439499,21.2778187 L20.3091673,21.2778187 C20.2929796,21.2778187 20.276958,21.2773206 20.2611024,21.2763245 C20.2456544,21.2773206 20.2300818,21.2778187 20.2143847,21.2778187 L19.731776,21.2778187 C19.7926459,21.3937613 19.8368483,21.5104268 19.8643847,21.6278187 C19.891921,21.7452106 19.9071383,21.8459342 19.9100369,21.9299926 C19.895544,22.2024578 19.8267041,22.445209 19.7035151,22.6582535 C19.5803261,22.871298 19.421632,23.0589773 19.2274282,23.221297 C19.0332243,23.3836166 18.8129366,23.5212964 18.5665586,23.6343405 C18.3201805,23.7473845 18.0680092,23.8394126 17.8100369,23.9104274 C17.5520645,23.9814423 17.2977193,24.032891 17.0469934,24.0647752 C16.7962675,24.0966595 16.5680089,24.1126013 16.3622108,24.1126013 C16.0926442,24.1126013 15.8151107,24.0973841 15.5296021,24.0669492 C15.2440934,24.0365142 14.9687338,23.9792684 14.7035151,23.89521 C14.4382964,23.8111516 14.1911974,23.6930369 13.9622108,23.5408622 C13.7332241,23.3886875 13.5404724,23.1908634 13.3839499,22.9473839 C13.2361231,22.7126002 13.1216315,22.4546317 13.0404716,22.1734709 C12.9593118,21.8923101 12.9187325,21.5778205 12.9187325,21.2299926 C12.9187325,20.9749189 12.929602,20.7321677 12.9513412,20.5017318 C12.9730804,20.2712958 13.0071381,20.0430372 13.0535151,19.8169492 C13.0998922,19.5908611 13.1600365,19.3618778 13.2339499,19.1299926 C13.3078633,18.8981074 13.3969929,18.6517331 13.5013412,18.3908622 L14.6187325,18.8560796 C14.5346741,19.0647763 14.4629357,19.2531802 14.4035151,19.421297 C14.3440945,19.5894138 14.294095,19.7423108 14.2535151,19.8799926 C14.2129352,20.0176745 14.1810515,20.1444848 14.1578629,20.2604274 C14.1346744,20.37637 14.1172833,20.4872385 14.105689,20.5930361 C14.0940948,20.6988337 14.0868485,20.8031805 14.0839499,20.9060796 C14.0810513,21.0089787 14.0796021,21.1169486 14.0796021,21.2299926 C14.0796021,21.447385 14.1143843,21.6357889 14.1839499,21.79521 C14.2535155,21.9546311 14.3477174,22.0894124 14.4665586,22.1995578 C14.5853998,22.3097033 14.7223549,22.4002821 14.8774282,22.471297 C15.0325014,22.5423118 15.194094,22.5966591 15.3622108,22.6343405 C15.5303275,22.6720218 15.7006157,22.6981085 15.8730803,22.7126013 C16.045545,22.7270942 16.2085868,22.7343405 16.3622108,22.7343405 C16.4375735,22.7343405 16.5491665,22.729268 16.6969934,22.7191231 C16.8448202,22.7089781 17.0064128,22.691587 17.181776,22.6669492 C17.3571392,22.6423113 17.5368475,22.609703 17.7209064,22.5691231 C17.9049653,22.5285432 18.0723549,22.4785437 18.2230803,22.4191231 C18.3738057,22.3597025 18.4969929,22.290138 18.5926455,22.2104274 C18.6882982,22.1307169 18.7361238,22.0372395 18.7361238,21.9299926 C18.7361238,21.9183984 18.712211,21.8981087 18.6643847,21.8691231 C18.6165584,21.8401374 18.5513416,21.8060798 18.4687325,21.7669492 C18.3861234,21.7278185 18.2904722,21.6843407 18.181776,21.6365144 C18.0730798,21.588688 17.9564143,21.5401378 17.831776,21.4908622 L17.8361238,21.4908622 C17.6969927,21.4473837 17.551342,21.4104276 17.3991673,21.3799926 C17.2469926,21.3495577 17.0969941,21.3227464 16.9491673,21.2995578 C16.9259788,21.2966593 16.8962689,21.2923115 16.8600369,21.2865144 C16.8238048,21.2807172 16.7868486,21.2741956 16.7491673,21.2669492 C16.7114859,21.2597027 16.6745298,21.2524564 16.6382977,21.24521 C16.6020657,21.2379636 16.5723558,21.2314419 16.5491673,21.2256448 L16.7274282,19.9039057 L20.2143847,19.9039057 C20.2300818,19.9039057 20.2456544,19.9044038 20.2611024,19.9053999 Z M26.2670792,19.9039057 L26.3161238,19.9039057 C26.7190244,19.9039057 27.0233692,19.8394136 27.2291673,19.7104274 C27.4349654,19.5814413 27.5378629,19.3850664 27.5378629,19.121297 C27.5378629,19.0691228 27.5385876,19.0227465 27.5400368,18.9821665 C27.5414861,18.9415866 27.5371383,18.8886886 27.5269934,18.8234709 C27.5168484,18.7582532 27.498008,18.6727468 27.4704716,18.5669492 C27.4429353,18.4611515 27.4016313,18.3155008 27.3465586,18.1299926 L28.585689,17.8299926 C28.6465589,18.0039065 28.7001815,18.1988321 28.7465586,18.4147752 C28.7929356,18.6307183 28.8161238,18.8662232 28.8161238,19.121297 C28.8161238,19.2053554 28.8240947,19.2930357 28.8400368,19.3843405 C28.855979,19.4756453 28.8820657,19.5597024 28.9182977,19.6365144 C28.9545298,19.7133263 29.0038047,19.7770938 29.0661238,19.8278187 C29.128443,19.8785436 29.2074277,19.9039057 29.3030803,19.9039057 C29.3178963,19.9039057 29.3326013,19.9043679 29.3471953,19.9052923 C29.3624812,19.9043679 29.3779211,19.9039057 29.3935151,19.9039057 L29.7239499,19.9039057 C29.9326466,19.9039057 30.1333692,19.8952101 30.3261238,19.8778187 C30.5188784,19.8604273 30.6891665,19.8234712 30.8369934,19.7669492 C30.9848202,19.7104271 31.1043842,19.6307178 31.195689,19.5278187 C31.2869938,19.4249197 31.3355441,19.2879645 31.3413412,19.1169492 C31.3442398,19.0531807 31.3449644,19.0002827 31.3435151,18.9582535 C31.3420658,18.9162243 31.3340949,18.8655002 31.3196021,18.8060796 C31.3051092,18.746659 31.284095,18.6683989 31.2565586,18.571297 C31.2290222,18.474195 31.1906168,18.3372399 31.1413412,18.1604274 L32.4065586,17.8039057 C32.4616313,17.9430368 32.5123555,18.1270929 32.5587325,18.3560796 C32.6051095,18.5850662 32.6398918,18.8357884 32.6630803,19.1082535 C32.6688775,19.1952105 32.6790223,19.2850646 32.6935151,19.3778187 C32.7080079,19.4705728 32.7319207,19.5560792 32.7652542,19.6343405 C32.7985877,19.7126017 32.8442395,19.7770938 32.9022108,19.8278187 C32.9601821,19.8785436 33.0355436,19.9039057 33.1282977,19.9039057 C33.1390963,19.9039057 33.1498209,19.9041273 33.1604716,19.9045706 C33.1711224,19.9041273 33.181847,19.9039057 33.1926455,19.9039057 L33.5230803,19.9039057 C33.731777,19.9039057 33.9324996,19.8952101 34.1252542,19.8778187 C34.3180088,19.8604273 34.488297,19.8234712 34.6361238,19.7669492 C34.7839506,19.7104271 34.9035146,19.6307178 34.9948195,19.5278187 C35.0861243,19.4249197 35.1346745,19.2879645 35.1404716,19.1169492 C35.1433702,19.0531807 35.1440948,19.0002827 35.1426455,18.9582535 C35.1411963,18.9162243 35.1332253,18.8655002 35.1187325,18.8060796 C35.1042397,18.746659 35.0832254,18.6683989 35.055689,18.571297 C35.0281526,18.474195 34.9897472,18.3372399 34.9404716,18.1604274 L36.205689,17.8039057 C36.2607618,17.9430368 36.3114859,18.1270929 36.3578629,18.3560796 C36.40424,18.5850662 36.4390222,18.8357884 36.4622108,19.1082535 C36.4680079,19.1952105 36.4781527,19.2850646 36.4926455,19.3778187 C36.5071384,19.4705728 36.5310512,19.5560792 36.5643847,19.6343405 C36.5977182,19.7126017 36.6433699,19.7770938 36.7013412,19.8278187 C36.7593125,19.8785436 36.8346741,19.9039057 36.9274281,19.9039057 C36.9605807,19.9039057 36.9930368,19.9059948 37.0247963,19.9101731 C37.0467977,19.9072892 37.0691242,19.9052001 37.091776,19.9039057 C37.2453999,19.9039057 37.3888768,19.8785436 37.5222108,19.8278187 C37.6555448,19.7770938 37.7816305,19.6792687 37.9004716,19.5343405 C38.0193128,19.3894122 38.1309059,19.1850664 38.2352542,18.921297 C38.3396026,18.6575275 38.4396016,18.3126035 38.5352542,17.8865144 L39.6913352,18.0516688 L39.6913352,18.0516688 C39.6881152,18.0638879 39.6831896,18.0827495 39.6765586,18.1082535 C39.6577179,18.1807176 39.635979,18.2828905 39.6113412,18.4147752 C39.5867034,18.54666 39.5635152,18.6944846 39.541776,18.8582535 C39.5200367,19.0220224 39.5098919,19.1785426 39.5113412,19.3278187 C39.5127905,19.4770948 39.5301816,19.606079 39.5635151,19.7147752 C39.5968486,19.8234714 39.6555437,19.8879635 39.7396021,19.9082535 C39.8294576,19.931442 39.9164132,19.9133263 40.0004716,19.8539057 C40.08453,19.7944851 40.1642394,19.7089787 40.2396021,19.5973839 C40.3149648,19.4857892 40.3845293,19.3553557 40.4482977,19.2060796 C40.5120661,19.0568035 40.5700366,18.9039065 40.6222108,18.7473839 C40.6743849,18.5908614 40.719312,18.4372398 40.7569934,18.2865144 C40.7946747,18.135789 40.8236599,18.002457 40.8439499,17.8865144 L41.991776,18.0517318 C41.9859788,18.1241959 41.975834,18.2205717 41.9613412,18.3408622 C41.9468484,18.4611527 41.9352543,18.5894122 41.9265586,18.7256448 C41.9178629,18.8618774 41.9142397,18.9988325 41.915689,19.1365144 C41.9171383,19.2741962 41.9323555,19.3988327 41.9613412,19.5104274 C41.9903268,19.6220222 42.0352539,19.7133256 42.0961238,19.7843405 C42.1569937,19.8553553 42.2410508,19.8908622 42.3482977,19.8908622 C42.4439504,19.8908622 42.5265582,19.8589785 42.5961238,19.79521 C42.6656894,19.7314416 42.7243844,19.6481091 42.7722108,19.54521 C42.8200371,19.442311 42.8584425,19.3249208 42.8874281,19.1930361 C42.9164138,19.0611514 42.9381527,18.9270948 42.9526455,18.7908622 C42.9671384,18.6546296 42.9743847,18.5220223 42.9743847,18.3930361 C42.9743847,18.26405 42.9700369,18.150283 42.9613412,18.0517318 L44.1352542,17.8865144 L44.2787325,19.1126013 C44.2961239,19.2459353 44.3338047,19.3618762 44.391776,19.4604274 C44.4497473,19.5589786 44.5178625,19.6408619 44.5961238,19.7060796 C44.6743851,19.7712973 44.7569929,19.8205722 44.8439499,19.8539057 C44.9309068,19.8872392 45.0135147,19.9039057 45.091776,19.9039057 L45.1439499,19.9039057 C45.16874,19.9039057 45.1930266,19.9048349 45.2168099,19.9066933 C45.2383004,19.9048349 45.2601007,19.9039057 45.2822108,19.9039057 L45.9735151,19.9039057 C46.1039505,19.9039057 46.2474274,19.8981086 46.4039499,19.8865144 C46.5604724,19.8749201 46.7111955,19.8560797 46.8561238,19.8299926 C47.0010521,19.8039055 47.1322102,19.7683987 47.2496021,19.7234709 C47.366994,19.6785431 47.453225,19.6212973 47.5082977,19.5517318 C47.5401819,19.5024562 47.5561238,19.4357902 47.5561238,19.3517318 C47.5561238,19.2270935 47.526414,19.0792688 47.4669934,18.9082535 C47.4075728,18.7372382 47.3372836,18.5633268 47.2561238,18.3865144 C47.174964,18.2097019 47.0916315,18.0401384 47.0061238,17.8778187 C46.9206161,17.7154991 46.8517762,17.5807178 46.7996021,17.4734709 L48.0387325,16.8647752 C48.128588,17.0212978 48.2155437,17.2060785 48.2996021,17.4191231 C48.3836605,17.6321676 48.459022,17.851006 48.525689,18.0756448 C48.592356,18.3002836 48.6459787,18.5205713 48.6865586,18.7365144 C48.7271385,18.9524575 48.7474281,19.1401368 48.7474281,19.2995578 C48.7474281,19.5923129 48.6952548,19.8604262 48.5909064,20.1039057 C48.4691667,20.3763708 48.3025017,20.6017309 48.0909064,20.7799926 C47.8793111,20.9582544 47.6256905,21.0894125 47.3300368,21.1734709 C47.2430799,21.1966594 47.1343853,21.2154998 47.0039499,21.2299926 C46.8735145,21.2444855 46.7416317,21.2553549 46.6082977,21.2626013 C46.4749637,21.2698477 46.348878,21.2741955 46.2300368,21.2756448 C46.1111957,21.2770941 46.018443,21.2778187 45.951776,21.2778187 L45.2822108,21.2778187 C45.2532412,21.2778187 45.2248035,21.2762235 45.1968976,21.2730331 C45.1629419,21.2762235 45.1279014,21.2778187 45.091776,21.2778187 C44.8106151,21.2778187 44.5454004,21.2285438 44.2961238,21.1299926 C44.0468472,21.0314414 43.8309073,20.8647764 43.6482977,20.6299926 C43.6309063,20.6531812 43.6135152,20.6734708 43.5961238,20.6908622 C43.5787324,20.7082536 43.5627905,20.7256447 43.5482977,20.7430361 L43.5482977,20.7386883 C43.3917752,20.9039065 43.2113422,21.0350646 43.0069934,21.1321665 C42.8026445,21.2292685 42.5830815,21.2778187 42.3482977,21.2778187 C42.0845283,21.2778187 41.8417771,21.2212975 41.6200368,21.1082535 C41.3982966,20.9952095 41.2135158,20.8415878 41.065689,20.6473839 C40.8917751,20.8386892 40.6946756,20.9937602 40.4743847,21.1126013 C40.2540937,21.2314425 40.0120671,21.2908622 39.7482977,21.2908622 C39.5019197,21.2908622 39.2729365,21.2357903 39.0613412,21.1256448 C38.8497459,21.0154993 38.6743854,20.8647762 38.5352542,20.6734709 C38.3787317,20.8908633 38.1852554,21.0459342 37.9548195,21.1386883 C37.7243835,21.2314424 37.4396038,21.2778187 37.1004716,21.2778187 C37.069578,21.2778187 37.0394825,21.2763936 37.0101852,21.2735432 C36.9844645,21.2763936 36.9583282,21.2778187 36.931776,21.2778187 C36.6535137,21.2778187 36.4151103,21.2350655 36.2165586,21.1495578 C36.0180069,21.0640502 35.8477187,20.9531817 35.705689,20.8169492 C35.5752536,20.9039061 35.4252551,20.9763692 35.255689,21.0343405 C35.086123,21.0923118 34.90569,21.1394127 34.7143847,21.1756448 C34.5230794,21.2118769 34.3259799,21.2379636 34.1230803,21.2539057 C33.9201808,21.2698478 33.7201828,21.2778187 33.5230803,21.2778187 L33.1926455,21.2778187 C33.1824287,21.2778187 33.1722781,21.2776203 33.1621935,21.2772235 C33.1524021,21.2776203 33.1425528,21.2778187 33.1326455,21.2778187 C32.8543833,21.2778187 32.6159799,21.2350655 32.4174282,21.1495578 C32.2188764,21.0640502 32.0485883,20.9531817 31.9065586,20.8169492 C31.7761232,20.9039061 31.6261247,20.9763692 31.4565586,21.0343405 C31.2869925,21.0923118 31.1065595,21.1394127 30.9152542,21.1756448 C30.7239489,21.2118769 30.5268495,21.2379636 30.3239499,21.2539057 C30.1210503,21.2698478 29.9210523,21.2778187 29.7239499,21.2778187 L29.3935151,21.2778187 C29.3788162,21.2778187 29.3642542,21.277408 29.3498292,21.2765867 C29.3358153,21.277408 29.3216816,21.2778187 29.3074282,21.2778187 C29.0291659,21.2778187 28.7914871,21.237964 28.5943847,21.1582535 C28.3972822,21.078543 28.2277187,20.9720223 28.085689,20.8386883 C27.8769923,20.9894137 27.6284441,21.1002821 27.3400368,21.171297 C27.0516296,21.2423118 26.7103287,21.2778187 26.3161238,21.2778187 L26.2422108,21.2778187 C26.2334856,21.2778187 26.2248087,21.277674 26.2161801,21.2773846 C26.2077917,21.277674 26.1993672,21.2778187 26.1909064,21.2778187 C25.8343829,21.2778187 25.5285888,21.2336163 25.2735151,21.14521 C25.0184414,21.0568038 24.7981537,20.9212979 24.6126455,20.7386883 C24.4967029,20.6227457 24.4075734,20.5010078 24.3452542,20.3734709 C24.2829351,20.245934 24.238008,20.120573 24.2104716,19.9973839 C24.1829353,19.8741949 24.1669934,19.7575294 24.1626455,19.6473839 C24.1582977,19.5372385 24.1561238,19.4430365 24.1561238,19.3647752 L24.1561238,19.2995578 C24.1590224,19.1923109 24.1626455,19.0379647 24.1669934,18.8365144 C24.1713412,18.6350641 24.1735151,18.3981099 24.1735151,18.1256448 C24.1735151,17.8531797 24.1720658,17.5531827 24.1691673,17.2256448 C24.1662687,16.8981069 24.1582978,16.5712986 24.1452542,16.24521 C24.1322107,15.9191214 24.1133703,15.6053565 24.0887325,15.3039057 C24.0640947,15.0024549 24.0300371,14.7401387 23.9865586,14.5169492 L25.2865586,14.121297 C25.3242399,14.3126023 25.3546744,14.5379623 25.3778629,14.7973839 C25.4010515,15.0568055 25.4206165,15.3285419 25.4365586,15.6126013 C25.4525007,15.8966607 25.4640948,16.1821651 25.4713412,16.4691231 C25.4785876,16.756081 25.48366,17.022745 25.4865586,17.2691231 C25.4894572,17.4865155 25.4814862,17.6988322 25.4626455,17.9060796 C25.4438049,18.113327 25.4285876,18.3162235 25.4169934,18.5147752 C25.4053991,18.713327 25.4061237,18.9060787 25.4191673,19.0930361 C25.4322108,19.2799936 25.4720655,19.4618758 25.5387325,19.6386883 C25.5648196,19.7053553 25.597428,19.7560794 25.6365586,19.7908622 C25.6756892,19.825645 25.7213409,19.851007 25.7735151,19.8669492 C25.8256893,19.8828913 25.8829351,19.8923115 25.9452542,19.89521 C26.0075734,19.8981086 26.0764133,19.8995578 26.151776,19.8995578 L26.1909064,19.8995578 C26.2166319,19.8995578 26.2420228,19.9010071 26.2670792,19.9039057 Z M47.8691673,23.49521 L47.051776,22.6778187 L46.225689,23.5039057 L45.3909064,22.6647752 L46.2343847,21.8256448 L47.051776,22.6430361 L47.8778629,21.8169492 L48.7126455,22.6560796 L47.8691673,23.49521 Z M47.0561238,23.1386883 L47.8300368,23.9126013 L47.051776,24.6908622 L46.2778629,23.9169492 L47.0561238,23.1386883 Z M43.091776,16.1169492 L42.2569934,16.9560796 L41.4309064,16.1299926 L40.6135151,16.9473839 L39.7700368,16.1082535 L40.6048195,15.2691231 L41.4309064,16.09521 L42.2482977,15.2778187 L43.091776,16.1169492 Z M40.6569934,14.8560796 L41.4309064,14.0821665 L42.2091673,14.8604274 L41.4352542,15.6343405 L40.6569934,14.8560796 Z M36.8230803,16.3995578 L35.9882977,17.2386883 L35.1622108,16.4126013 L34.3448195,17.2299926 L33.5013412,16.3908622 L34.3361238,15.5517318 L35.1622108,16.3778187 L35.9796021,15.5604274 L36.8230803,16.3995578 Z M32.8674282,22.8386883 L32.0326455,23.6778187 L31.2065586,22.8517318 L30.3891673,23.6691231 L29.545689,22.8299926 L30.3804716,21.9908622 L31.2065586,22.8169492 L32.0239499,21.9995578 L32.8674282,22.8386883 Z M27.911776,21.6082535 L28.8769934,22.5734709 L27.911776,23.5386883 L26.9465586,22.5734709 L27.911776,21.6082535 Z M21.7743847,14.3995578 L22.7396021,15.3647752 L21.7743847,16.3299926 L20.8091673,15.3647752 L21.7743847,14.3995578 Z M45.8782977,26.3995578 L46.8435151,27.3647752 L45.8782977,28.3299926 L44.9130803,27.3647752 L45.8782977,26.3995578 Z M19.3391673,35.0039057 C19.747865,34.9227458 20.120325,34.820573 20.4565586,34.6973839 C20.7927922,34.5741949 21.0877167,34.4365151 21.3413412,34.2843405 C21.5949657,34.1321658 21.8051085,33.9705732 21.971776,33.7995578 C22.1384435,33.6285425 22.2565582,33.4546312 22.3261238,33.2778187 C22.2014855,33.2778187 22.0696028,33.2756448 21.9304716,33.271297 C21.7913405,33.2669491 21.6768489,33.2618767 21.5869934,33.2560796 C21.2507598,33.2270939 20.9435165,33.152457 20.6652542,33.0321665 C20.386992,32.9118761 20.1652551,32.7488342 20.0000368,32.5430361 C19.8782971,32.3865136 19.7920661,32.2169501 19.7413412,32.0343405 C19.6906163,31.8517308 19.6652542,31.6589792 19.6652542,31.4560796 C19.6652542,31.2995571 19.6797468,31.1423123 19.7087325,30.9843405 C19.7377182,30.8263687 19.7782975,30.672747 19.8304716,30.5234709 C19.8826458,30.3741948 19.9442394,30.2328918 20.0152542,30.0995578 C20.0862691,29.9662238 20.1623553,29.8444859 20.2435151,29.7343405 C20.417429,29.5169481 20.6080068,29.352457 20.8152542,29.2408622 C21.0225017,29.1292674 21.2406154,29.0734709 21.4696021,29.0734709 C21.9594596,29.0734709 22.4014842,29.2879615 22.795689,29.7169492 C22.9348202,29.8734717 23.0594566,30.0488322 23.1696021,30.2430361 C23.2797475,30.43724 23.3732249,30.6437597 23.4500368,30.8626013 C23.5268488,31.081443 23.5855439,31.3104262 23.6261238,31.5495578 C23.6667037,31.7886895 23.6869934,32.0314407 23.6869934,32.2778187 C23.6869934,32.3531814 23.6848195,32.428543 23.6804716,32.5039057 C23.6761238,32.5792684 23.6710514,32.6502822 23.6652542,32.7169492 C23.6304715,33.0560813 23.5543853,33.374194 23.4369934,33.671297 C23.3196015,33.9683999 23.1688783,34.2423102 22.9848195,34.4930361 C22.8007606,34.743762 22.5869946,34.971296 22.3435151,35.1756448 C22.1000356,35.3799937 21.8355455,35.559702 21.5500368,35.7147752 C21.2645282,35.8698485 20.9623573,35.9995573 20.6435151,36.1039057 C20.3246729,36.208254 19.99714,36.2865141 19.6609064,36.3386883 L19.3391673,35.0039057 Z M14.9400369,31.2473839 C15.0617766,31.3256452 15.2045288,31.4039053 15.3682977,31.4821665 C15.5320667,31.5604278 15.7001809,31.6321662 15.8726455,31.6973839 C16.0451102,31.7626017 16.2124998,31.8154997 16.3748195,31.8560796 C16.5371391,31.8966595 16.6777174,31.9169492 16.7965586,31.9169492 C16.8400371,31.9169492 16.8965582,31.9147753 16.9661238,31.9104274 C17.0356894,31.9060796 17.108877,31.897384 17.185689,31.8843405 C17.262501,31.8712969 17.3400365,31.8539058 17.4182977,31.8321665 C17.496559,31.8104273 17.5682974,31.7821667 17.6335151,31.7473839 C17.6987328,31.7126012 17.7516309,31.6712972 17.7922108,31.6234709 C17.8327907,31.5756446 17.8545296,31.5183988 17.8574282,31.4517318 C17.8603267,31.3386877 17.8262691,31.2111528 17.7552542,31.0691231 C17.6842394,30.9270934 17.5885882,30.7785441 17.4682977,30.6234709 C17.3480073,30.4683977 17.2088782,30.3118775 17.0509064,30.1539057 C16.8929346,29.9959339 16.7298928,29.8437615 16.561776,29.6973839 C16.3936592,29.5510064 16.2255449,29.4147759 16.0574282,29.2886883 C15.8893114,29.1626007 15.7342405,29.0546308 15.5922108,28.9647752 L16.361776,27.821297 C16.6429368,28.0183994 16.9219195,28.2386871 17.1987325,28.4821665 C17.4755455,28.725646 17.73134,28.9843391 17.9661238,29.2582535 C18.2009076,29.5321679 18.4038041,29.8154984 18.5748195,30.1082535 C18.7458348,30.4010086 18.869022,30.6937593 18.9443847,30.9865144 C18.9675732,31.0705728 18.9835151,31.1553545 18.9922108,31.2408622 C19.0009065,31.3263699 19.0052542,31.4082531 19.0052542,31.4865144 C19.0052542,31.7560809 18.9530809,32.0031799 18.8487325,32.2278187 C18.7443842,32.4524575 18.5987334,32.6466585 18.411776,32.8104274 C18.2248185,32.9741963 18.0009077,33.1010067 17.7400369,33.1908622 C17.479166,33.2807177 17.1922123,33.3256448 16.8791673,33.3256448 C16.8559788,33.3256448 16.8327906,33.3249202 16.8096021,33.3234709 C16.7864135,33.3220216 16.7632254,33.321297 16.7400369,33.321297 C16.5400359,33.321297 16.3349654,33.3002827 16.1248195,33.2582535 C15.9146735,33.2162243 15.7074292,33.1604278 15.5030803,33.0908622 C15.2987315,33.0212966 15.1001827,32.940138 14.9074282,32.8473839 C14.7146736,32.7546298 14.5356899,32.6575294 14.3704716,32.5560796 L14.9400369,31.2473839 Z" id="پشتیبانی-نامحدود" fill="#029614"></path>
            </g>
        </g>
    </g>
</svg>