<?xml version="1.0" encoding="iso-8859-1"?>
<!-- Generator: Adobe Illustrator 18.1.1, SVG Export Plug-In . SVG Version: 6.00 Build 0)  -->
<svg xmlns="http://www.w3.org/2000/svg" xmlns:xlink="http://www.w3.org/1999/xlink" version="1.1" id="Capa_1" x="0px" y="0px" viewBox="0 0 535.5 535.5" style="enable-background:new 0 0 535.5 535.5;" xml:space="preserve" width="512px" height="512px">
<g>
	<g>
		<path d="M267.445,535.5c-36.72,0-71.4-7.038-104.04-21.114c-32.64-14.073-60.996-33.252-85.068-57.525    c-24.072-24.276-43.146-52.734-57.222-85.374C7.039,338.844,0.001,304.166,0.001,267.446s7.038-71.4,21.114-104.04    s33.15-60.996,57.222-85.068s52.428-43.146,85.068-57.222S230.725,0,267.445,0s71.4,7.038,104.041,21.114    c32.639,14.076,61.098,33.15,85.373,57.222c24.277,24.072,43.453,52.428,57.529,85.068c14.072,32.64,21.111,67.32,21.111,104.04    s-7.039,71.397-21.111,104.04c-14.076,32.64-33.252,61.098-57.529,85.374c-24.275,24.273-52.734,43.452-85.373,57.525    C338.845,528.462,304.165,535.5,267.445,535.5z M267.445,18.972c-34.272,0-66.504,6.528-96.696,19.584S114.139,69.36,91.495,91.8    s-40.494,48.756-53.55,78.948s-19.584,62.424-19.584,96.696c0,34.271,6.528,66.504,19.584,96.696    c13.056,30.189,30.906,56.607,53.55,79.254c22.644,22.644,49.062,40.491,79.254,53.55c30.192,13.056,62.424,19.584,96.696,19.584    c34.273,0,66.503-6.528,96.697-19.584c30.189-13.059,56.607-30.906,79.254-53.55c22.643-22.646,40.494-49.063,53.549-79.254    c13.057-30.192,19.584-62.427,19.584-96.696c0-34.272-6.527-66.504-19.584-96.696c-13.055-30.192-30.906-56.508-53.549-78.948    c-22.646-22.44-49.063-40.188-79.254-53.244C333.948,25.5,301.718,18.972,267.445,18.972z M203.185,486.54    c10.2,2.856,20.706,5.103,31.518,6.732s21.726,2.445,32.742,2.445c25.705,0,51-4.485,75.888-13.464l-71.604-192.777    L203.185,486.54z M150.553,138.312c2.448,0,4.692,0.816,6.732,2.448s3.264,3.672,3.672,6.12c0.816,5.712-2.04,8.976-8.568,9.792    c-4.488,0.816-8.772,1.326-12.852,1.53s-8.364,0.51-12.852,0.918l83.232,245.412l50.184-148.104l-36.108-96.696    c-7.752-0.816-13.77-1.53-18.054-2.142s-6.63-0.918-7.038-0.918c-2.448-0.408-4.488-1.632-6.12-3.672s-2.04-4.284-1.224-6.732    c0.408-2.448,1.632-4.488,3.672-6.12s4.284-2.04,6.732-1.224l8.568,1.224c0,0,8.058,0.612,24.174,1.836s28.662,1.224,37.638,0    c8.979-1.224,25.5-2.448,49.572-3.672c2.447,0,4.691,0.816,6.732,2.448c2.039,1.632,3.264,3.672,3.672,6.12    c0.813,5.712-2.041,8.976-8.568,9.792c-4.486,0.816-8.771,1.326-12.852,1.53c-4.082,0.204-8.16,0.51-12.24,0.918l82.619,245.412    c6.529-22.032,11.934-40.392,16.219-55.08c4.283-14.688,7.854-26.724,10.709-36.108c3.268-10.605,5.713-19.176,7.344-25.702    c4.488-14.688,6.225-28.866,5.203-42.536c-1.02-13.668-4.387-25.194-10.098-34.578c-2.449-4.896-6.02-11.016-10.711-18.36    s-8.873-15.198-12.545-23.562c-3.672-8.364-6.121-16.728-7.344-25.092c-1.227-8.364,0-16.014,3.672-22.95    c5.303-9.384,11.219-15.402,17.748-18.054c6.525-2.652,13.26-3.57,20.193-2.754c-20.398-18.768-43.758-33.456-70.072-44.063    c-26.316-10.608-54.365-15.912-84.15-15.912c-39.984,0-76.602,9.282-109.854,27.846s-60.078,43.35-80.478,74.358    c9.792,0.408,20.808,0.408,33.048,0C122.401,141.576,135.865,140.352,150.553,138.312z M39.781,267.444    c0,22.438,3.06,44.062,9.18,64.872c6.12,20.808,14.892,40.086,26.316,57.834c11.424,17.748,24.99,33.66,40.698,47.733    c15.708,14.076,33.15,25.604,52.326,34.578L58.753,176.256C46.105,205.224,39.781,235.62,39.781,267.444z M495.108,267.444    c0-38.352-8.771-73.848-26.316-106.488c0.816,4.488,1.227,8.874,1.227,13.158s-0.203,8.67-0.611,13.158    c-2.449,22.032-6.732,42.024-12.852,59.976c-6.121,17.952-12.037,35.088-17.748,51.408c-2.449,6.936-6.324,18.359-11.629,34.271    c-5.307,15.911-11.018,32.537-17.139,49.88c-6.119,17.34-11.832,33.762-17.135,49.266c-5.305,15.504-9.18,26.52-11.629,33.048    c17.137-9.792,32.641-21.726,46.512-35.802c13.873-14.076,25.809-29.58,35.805-46.513c9.994-16.934,17.748-35.09,23.256-54.47    C492.355,308.958,495.108,288.66,495.108,267.444z" fill="#696869"/>
	</g>
</g>
<g>
</g>
<g>
</g>
<g>
</g>
<g>
</g>
<g>
</g>
<g>
</g>
<g>
</g>
<g>
</g>
<g>
</g>
<g>
</g>
<g>
</g>
<g>
</g>
<g>
</g>
<g>
</g>
<g>
</g>
</svg>
